{
.appVersion = "1357";
DisplayStrings = (
"\"",
"'",
"/quoteright",
"/guilsinglleft nonn",
"«non»/guilsinglleft non/guilsinglright"
);
classes = (
{
automatic = 1;

glyphs = (
{
glyphname = .notdef;
lastChange = "2021-11-23 01:30:52 +0000";
layers = (
{
layerId = "DE28931B-8CFB-452E-AAB2-BC9BAE33C973";
paths = (
{
closed = 1;
nodes = (
"511 0 LINE",
"520 8 LINE",
"520 621 LINE",
"511 630 LINE",
"90 630 LINE",
"82 620 LINE",
"82 9 LINE",
"90 0 LINE"
);
},
{
closed = 1;
nodes = (
"186 150 LINE",
"276 316 LINE",
"186 479 LINE",
"205 514 LINE",
"295 350 LINE",
"386 514 LINE",
"405 479 LINE",
"315 314 LINE",
"405 150 LINE",
"386 116 LINE",
"295 279 LINE",
"205 116 LINE"
);
},
{
closed = 1;
nodes = (
"99 613 LINE",
"503 613 LINE",
"503 16 LINE",
"99 16 LINE"
);
},
{
closed = 1;
nodes = (
"469 49 LINE",
"469 577 LINE",
"134 577 LINE",
"134 49 LINE"
);
}
);
userData = {
assembly = "SVTCA[0]	/* SetFreedomAndProjectionVectorToAxis */\012PUSHW[ ]	/* 1 value pushed */\0122 \012MDAP[1]	/* MoveDirectAbsPt */\012PUSHW[ ]	/* 1 value pushed */\0120 \012RCVT[ ]	/* ReadCVT */\012IF[ ]	/* If */\012PUSHW[ ]	/* 1 value pushed */\0126 \012MDAP[1]	/* MoveDirectAbsPt */\012ELSE[ ]	/* Else */\012PUSHW[ ]	/* 2 values pushed */\0126 7 \012MIAP[0]	/* MoveIndirectAbsPt */\012EIF[ ]	/* EndIf */\012PUSHW[ ]	/* 3 values pushed */\01216 6 2 \012SRP1[ ]	/* SetRefPoint1 */\012SRP2[ ]	/* SetRefPoint2 */\012IP[ ]	/* InterpolatePts */\012PUSHW[ ]	/* 3 values pushed */\01217 6 2 \012SRP1[ ]	/* SetRefPoint1 */\012SRP2[ ]	/* SetRefPoint2 */\012IP[ ]	/* InterpolatePts */\012PUSHW[ ]	/* 3 values pushed */\01218 6 2 \012SRP1[ ]	/* SetRefPoint1 */\012SRP2[ ]	/* SetRefPoint2 */\012IP[ ]	/* InterpolatePts */\012PUSHW[ ]	/* 3 values pushed */\01222 6 2 \012SRP1[ ]	/* SetRefPoint1 */\012SRP2[ ]	/* SetRefPoint2 */\012IP[ ]	/* InterpolatePts */\012PUSHW[ ]	/* 3 values pushed */\01223 6 2 \012SRP1[ ]	/* SetRefPoint1 */\012SRP2[ ]	/* SetRefPoint2 */\012IP[ ]	/* InterpolatePts */\012PUSHW[ ]	/* 3 values pushed */\01224 6 2 \012SRP1[ ]	/* SetRefPoint1 */\012SRP2[ ]	/* SetRefPoint2 */\012IP[ ]	/* InterpolatePts */\012IUP[0]	/* InterpolateUntPts */\012IUP[1]	/* InterpolateUntPts */";
};
width = 584;
}
);
note = .notdef;
},
{
glyphname = A;
lastChange = "2021-11-26 07:31:38 +0000";
layers = (
{
anchors = (
{
name = bottom;
position = "{172, 0}";
},
{
name = ogonek;
position = "{339, 10}";
},
{
name = top;
position = "{276, 591}";
}
);
layerId = "DE28931B-8CFB-452E-AAB2-BC9BAE33C973";
paths = (
{
closed = 1;
nodes = (
"168 0 LINE",
"186 86 LINE",
"223 86 LINE",
"219 0 LINE",
"398 0 LINE",
"398 591 LINE",
"163 591 LINE",
"-5 0 LINE"
);
},
{
closed = 1;
nodes = (
"147 301 LINE",
"221 549 LINE",
"272 547 LINE",
"330 549 LINE",
"326 299 LINE",
"314 47 LINE",
"309 47 LINE",
"312 123 LINE",
"210 124 LINE",
"107 123 LINE",
"103.667 111.667 OFFCURVE",
"101 101.333 OFFCURVE",
"99 92 CURVE SMOOTH",
"97 82.667 OFFCURVE",
"95 75 OFFCURVE",
"93 68 CURVE SMOOTH",
"87 47 LINE",
"83 47 LINE"
);
},
{
closed = 1;
nodes = (
"258 466 LINE",
"233 163 LINE",
"197 163 LINE"
);
},
{
closed = 1;
nodes = (
"311 127 LINE",
"314 299 LINE",
"325 545 LINE",
"272 546 LINE",
"224 545 LINE",
"158 300 LINE",
"108 127 LINE",
"210 125 LINE"
);
}
);
userData = {
assembly = "SVTCA[0]	/* SetFreedomAndProjectionVectorToAxis */\012PUSHW[ ]	/* 1 value pushed */\0120 \012RCVT[ ]	/* ReadCVT */\012IF[ ]	/* If */\012PUSHW[ ]	/* 1 value pushed */\0121 \012MDAP[1]	/* MoveDirectAbsPt */\012ELSE[ ]	/* Else */\012PUSHW[ ]	/* 2 values pushed */\0121 7 \012MIAP[0]	/* MoveIndirectAbsPt */\012EIF[ ]	/* EndIf */\012PUSHW[ ]	/* 1 value pushed */\0120 \012RCVT[ ]	/* ReadCVT */\012IF[ ]	/* If */\012PUSHW[ ]	/* 1 value pushed */\0125 \012MDAP[1]	/* MoveDirectAbsPt */\012ELSE[ ]	/* Else */\012PUSHW[ ]	/* 2 values pushed */\0125 7 \012MIAP[0]	/* MoveIndirectAbsPt */\012EIF[ ]	/* EndIf */\012PUSHW[ ]	/* 4 values pushed */\0129 2 3 4 \012CALL[ ]	/* CallFunction */\012PUSHW[ ]	/* 1 value pushed */\0125 \012SRP0[ ]	/* SetRefPoint0 */\012PUSHW[ ]	/* 2 values pushed */\0128 4 \012MIRP[10100]	/* MoveIndirectRelPt */\012PUSHW[ ]	/* 3 values pushed */\01219 5 8 \012SRP1[ ]	/* SetRefPoint1 */\012SRP2[ ]	/* SetRefPoint2 */\012IP[ ]	/* InterpolatePts */\012PUSHW[ ]	/* 3 values pushed */\01232 5 8 \012SRP1[ ]	/* SetRefPoint1 */\012SRP2[ ]	/* SetRefPoint2 */\012IP[ ]	/* InterpolatePts */\012IUP[0]	/* InterpolateUntPts */\012IUP[1]	/* InterpolateUntPts */";
};
width = 413;
}
);
note = A;
rightKerningGroup = parenright;
unicode = 0041;
},
{
glyphname = AE;
lastChange = "2021-11-26 08:21:41 +0000";
layers = (
{
anchors = (
{
name = bottom;
position = "{231, 0}";
},
{
name = top;
position = "{368, 591}";
}
);
layerId = "DE28931B-8CFB-452E-AAB2-BC9BAE33C973";
paths = (
{
closed = 1;
nodes = (
"173 0 LINE",
"191 86 LINE",
"228 86 LINE",
"224 0 LINE",
"511 0 LINE",
"526 108 LINE",
"402 108 LINE",
"402 240 LINE",
"534 240 LINE",
"552 365 LINE",
"402 365 LINE",
"402 480 LINE",
"578 480 LINE",
"594 591 LINE",
"168 591 LINE",
"0 0 LINE"
);
},
{
closed = 1;
nodes = (
"263 466 LINE",
"238 163 LINE",
"202 163 LINE"
);
},
{
closed = 1;
nodes = (
"326 127 LINE",
"329 299 LINE",
"340 545 LINE",
"287 546 LINE",
"239 545 LINE",
"173 300 LINE",
"123 127 LINE",
"225 125 LINE"
);
},
{
closed = 1;
nodes = (
"162 301 LINE",
"236 549 LINE",
"287 547 LINE",
"345 549 LINE",
"545 545 LINE",
"545 544 LINE",
"344 544 LINE",
"341 301 LINE",
"510 297 LINE",
"510 296 LINE",
"340 296 LINE",
"329 52 LINE",
"475 48 LINE",
"475 47 LINE",
"324 47 LINE",
"327 123 LINE",
"225 124 LINE",
"122 123 LINE",
"118.667 111.667 OFFCURVE",
"116 101.333 OFFCURVE",
"114 92 CURVE SMOOTH",
"112 82.667 OFFCURVE",
"110 75 OFFCURVE",
"108 68 CURVE SMOOTH",
"102 47 LINE",
"98 47 LINE"
);
}
);
width = 531;
}
);
note = AE;
unicode = 00C6;
},
{
glyphname = B;
lastChange = "2021-11-26 08:21:41 +0000";
layers = (
{
layerId = "DE28931B-8CFB-452E-AAB2-BC9BAE33C973";
paths = (
{
closed = 1;
nodes = (
"238 0 LINE SMOOTH",
"331.333 0 OFFCURVE",
"390.667 30.333 OFFCURVE",
"404 125 CURVE SMOOTH",
"415 202 LINE SMOOTH",
"425.667 280.667 OFFCURVE",
"385.333 316 OFFCURVE",
"328 316 CURVE",
"328 318 LINE",
"392 324.667 OFFCURVE",
"424.333 370 OFFCURVE",
"431 426 CURVE SMOOTH",
"440 490 LINE SMOOTH",
"449.333 550 OFFCURVE",
"418 591 OFFCURVE",
"330 591 CURVE SMOOTH",
"98 591 LINE",
"15 0 LINE"
);
},
{
closed = 1;
nodes = (
"215 249 LINE",
"230 249 LINE SMOOTH",
"249.943 249 OFFCURVE",
"241.145 202.302 OFFCURVE",
"237 165 CURVE SMOOTH",
"233.667 141.667 OFFCURVE",
"229.667 121.833 OFFCURVE",
"225 105.5 CURVE SMOOTH",
"220.333 89.167 OFFCURVE",
"214.333 81 OFFCURVE",
"207 81 CURVE SMOOTH",
"192 81 LINE"
);
},
{
closed = 1;
nodes = (
"135 305 LINE",
"174 547 LINE",
"178 547 LINE",
"145 305 LINE",
"107 45 LINE",
"104 45 LINE"
);
},
{
closed = 1;
nodes = (
"187 46 LINE",
"187 48 LINE",
"231 49 LINE SMOOTH",
"271.07 49 OFFCURVE",
"305.78 87.662 OFFCURVE",
"319 178 CURVE SMOOTH",
"322 204 LINE SMOOTH",
"330.031 260.214 OFFCURVE",
"325.36 302 OFFCURVE",
"263 302 CURVE SMOOTH",
"223 302 LINE",
"223 304 LINE",
"263 304 LINE SMOOTH",
"309.667 304 OFFCURVE",
"333.333 362 OFFCURVE",
"344 438 CURVE SMOOTH",
"355.307 517.149 OFFCURVE",
"356.068 545 OFFCURVE",
"287 545 CURVE SMOOTH",
"255 546 LINE",
"256 548 LINE",
"288 549 LINE SMOOTH",
"357.172 549 OFFCURVE",
"364.197 528.26 OFFCURVE",
"352 438 CURVE SMOOTH",
"345.333 391.333 OFFCURVE",
"334.167 357.333 OFFCURVE",
"318.5 336 CURVE SMOOTH",
"302.833 314.667 OFFCURVE",
"287.667 304 OFFCURVE",
"273 304 CURVE SMOOTH",
"323.626 304 OFFCURVE",
"339.302 253.811 OFFCURVE",
"331 204 CURVE SMOOTH",
"329.188 190.412 OFFCURVE",
"328 169.6 OFFCURVE",
"328 178 CURVE",
"314.602 86.445 OFFCURVE",
"274.118 45 OFFCURVE",
"231 45 CURVE SMOOTH"
);
},
{
closed = 1;
nodes = (
"252 507 LINE",
"267 507 LINE SMOOTH",
"275.667 507 OFFCURVE",
"279.667 499.333 OFFCURVE",
"279 484 CURVE SMOOTH",
"278.333 468.667 OFFCURVE",
"276.667 449.667 OFFCURVE",
"274 427 CURVE SMOOTH",
"270.667 405 OFFCURVE",
"266.167 386.333 OFFCURVE",
"260.5 371 CURVE SMOOTH",
"254.833 355.667 OFFCURVE",
"248.333 348 OFFCURVE",
"241 348 CURVE SMOOTH",
"229 348 LINE"
);
}
);
userData = {
assembly = "SVTCA[0]	/* SetFreedomAndProjectionVectorToAxis */\012PUSHW[ ]	/* 1 value pushed */\0120 \012RCVT[ ]	/* ReadCVT */\012IF[ ]	/* If */\012PUSHW[ ]	/* 1 value pushed */\01277 \012MDAP[1]	/* MoveDirectAbsPt */\012ELSE[ ]	/* Else */\012PUSHW[ ]	/* 2 values pushed */\01277 7 \012MIAP[0]	/* MoveIndirectAbsPt */\012EIF[ ]	/* EndIf */\012PUSHW[ ]	/* 4 values pushed */\01290 3 88 4 \012CALL[ ]	/* CallFunction */\012PUSHW[ ]	/* 3 values pushed */\01222 88 90 \012SRP1[ ]	/* SetRefPoint1 */\012SRP2[ ]	/* SetRefPoint2 */\012IP[ ]	/* InterpolatePts */\012PUSHW[ ]	/* 3 values pushed */\01243 88 90 \012SRP1[ ]	/* SetRefPoint1 */\012SRP2[ ]	/* SetRefPoint2 */\012IP[ ]	/* InterpolatePts */\012PUSHW[ ]	/* 3 values pushed */\01270 88 90 \012SRP1[ ]	/* SetRefPoint1 */\012SRP2[ ]	/* SetRefPoint2 */\012IP[ ]	/* InterpolatePts */\012PUSHW[ ]	/* 1 value pushed */\01277 \012SRP0[ ]	/* SetRefPoint0 */\012PUSHW[ ]	/* 2 values pushed */\01279 2 \012MIRP[10100]	/* MoveIndirectRelPt */\012IUP[0]	/* InterpolateUntPts */\012IUP[1]	/* InterpolateUntPts */";
};
width = 417;
}
);
note = B;
rightKerningGroup = parenright;
unicode = 0042;
},
{
glyphname = C;
lastChange = "2021-11-26 08:21:41 +0000";
layers = (
{
anchors = (
{
name = bottom;
position = "{203, 0}";
},
{
name = top;
position = "{280, 591}";
}
);
layerId = "DE28931B-8CFB-452E-AAB2-BC9BAE33C973";
paths = (
{
closed = 1;
nodes = (
"314.389 -12 OFFCURVE",
"375 24 OFFCURVE",
"395 174 CURVE SMOOTH",
"405 248 LINE",
"246 248 LINE",
"227 110 LINE SMOOTH",
"225 99 OFFCURVE",
"222.167 90.833 OFFCURVE",
"218.5 86.5 CURVE SMOOTH",
"214.833 82.167 OFFCURVE",
"210.667 80 OFFCURVE",
"206 80 CURVE SMOOTH",
"200.667 80 OFFCURVE",
"197 82.167 OFFCURVE",
"195 86.5 CURVE SMOOTH",
"193 90.833 OFFCURVE",
"193 99 OFFCURVE",
"195 110 CURVE SMOOTH",
"246 473 LINE SMOOTH",
"249 496 OFFCURVE",
"255.333 503 OFFCURVE",
"266 503 CURVE SMOOTH",
"270.667 503 OFFCURVE",
"274.167 500.833 OFFCURVE",
"276.5 496.5 CURVE SMOOTH",
"278.833 492.167 OFFCURVE",
"280 484 OFFCURVE",
"278 473 CURVE SMOOTH",
"257 327 LINE",
"416 327 LINE",
"436 465 LINE SMOOTH",
"450 564 OFFCURVE",
"389.333 600 OFFCURVE",
"280 600 CURVE SMOOTH",
"170.667 600 OFFCURVE",
"93 564 OFFCURVE",
"79 465 CURVE SMOOTH",
"38 173 LINE SMOOTH",
"17 25 OFFCURVE",
"73.487 -12 OFFCURVE",
"194 -12 CURVE SMOOTH"
);
},
{
closed = 1;
nodes = (
"183.667 44 OFFCURVE",
"168.667 44 OFFCURVE",
"158 48 CURVE SMOOTH",
"123.333 58.667 OFFCURVE",
"114 88 OFFCURVE",
"121 156 CURVE SMOOTH",
"136 294 LINE",
"165 466 LINE SMOOTH",
"172 509 OFFCURVE",
"190.333 535.667 OFFCURVE",
"233 545 CURVE SMOOTH",
"242.333 547.667 OFFCURVE",
"257.333 548 OFFCURVE",
"272 548 CURVE SMOOTH",
"293 548 LINE SMOOTH",
"299.667 548 OFFCURVE",
"305 547.333 OFFCURVE",
"309 546 CURVE SMOOTH",
"350.333 535.333 OFFCURVE",
"365 510 OFFCURVE",
"359 473 CURVE SMOOTH",
"343 378 LINE",
"341 378 LINE",
"354 473 LINE SMOOTH",
"359 508 OFFCURVE",
"345.667 532.667 OFFCURVE",
"307 542 CURVE SMOOTH",
"297.667 544.667 OFFCURVE",
"286.667 546 OFFCURVE",
"272 546 CURVE SMOOTH",
"258.667 546 OFFCURVE",
"245.333 544.333 OFFCURVE",
"232 541 CURVE SMOOTH",
"192 531.667 OFFCURVE",
"174 506 OFFCURVE",
"169 466 CURVE SMOOTH",
"149 294 LINE",
"125 156 LINE SMOOTH",
"114 92 OFFCURVE",
"128 62.667 OFFCURVE",
"160 52 CURVE SMOOTH",
"172 48 OFFCURVE",
"186 46 OFFCURVE",
"202 46 CURVE SMOOTH",
"217.333 46 OFFCURVE",
"230.667 48 OFFCURVE",
"242 52 CURVE SMOOTH",
"283.655 64.817 OFFCURVE",
"299 91 OFFCURVE",
"310 156 CURVE SMOOTH",
"320 216 LINE",
"322 216 LINE",
"315 156 LINE SMOOTH",
"307 87 OFFCURVE",
"285.899 60.892 OFFCURVE",
"244 48 CURVE SMOOTH",
"230.667 44 OFFCURVE",
"217 44 OFFCURVE",
"201 44 CURVE SMOOTH"
);
}
);
userData = {
assembly = "PUSHW[ ]	/* 4 values pushed */\01265 5 70 4 \012CALL[ ]	/* CallFunction */\012PUSHW[ ]	/* 4 values pushed */\01260 5 10 4 \012CALL[ ]	/* CallFunction */\012PUSHW[ ]	/* 3 values pushed */\01231 10 60 \012SRP1[ ]	/* SetRefPoint1 */\012SRP2[ ]	/* SetRefPoint2 */\012IP[ ]	/* InterpolatePts */\012PUSHW[ ]	/* 3 values pushed */\01237 10 60 \012SRP1[ ]	/* SetRefPoint1 */\012SRP2[ ]	/* SetRefPoint2 */\012IP[ ]	/* InterpolatePts */\012PUSHW[ ]	/* 1 value pushed */\01237 \012MDAP[1]	/* MoveDirectAbsPt */\012PUSHW[ ]	/* 2 values pushed */\01259 5 \012MIRP[10100]	/* MoveIndirectRelPt */\012PUSHW[ ]	/* 1 value pushed */\01237 \012SRP0[ ]	/* SetRefPoint0 */\012PUSHW[ ]	/* 1 value pushed */\01286 \012MDRP[10000]	/* MoveDirectRelPt */\012PUSHW[ ]	/* 1 value pushed */\01286 \012MDAP[1]	/* MoveDirectAbsPt */\012PUSHW[ ]	/* 1 value pushed */\01265 \012SRP0[ ]	/* SetRefPoint0 */\012PUSHW[ ]	/* 1 value pushed */\01287 \012MDRP[10000]	/* MoveDirectRelPt */\012PUSHW[ ]	/* 1 value pushed */\01287 \012MDAP[1]	/* MoveDirectAbsPt */\012PUSHW[ ]	/* 1 value pushed */\01210 \012SRP0[ ]	/* SetRefPoint0 */\012PUSHW[ ]	/* 1 value pushed */\01293 \012MDRP[10000]	/* MoveDirectRelPt */\012PUSHW[ ]	/* 1 value pushed */\01293 \012MDAP[1]	/* MoveDirectAbsPt */\012PUSHW[ ]	/* 1 value pushed */\01259 \012SRP0[ ]	/* SetRefPoint0 */\012PUSHW[ ]	/* 1 value pushed */\01296 \012MDRP[11100]	/* MoveDirectRelPt */\012IUP[0]	/* InterpolateUntPts */\012IUP[1]	/* InterpolateUntPts */";
};
width = 402;
}
);
note = C;
unicode = 0043;
},
{
glyphname = D;
lastChange = "2021-11-26 08:21:41 +0000";
layers = (
{
anchors = (
{
name = bottom;
position = "{174, 0}";
},
{
name = center;
position = "{208, 296}";
},
{
name = top;
position = "{270, 591}";
}
);
layerId = "DE28931B-8CFB-452E-AAB2-BC9BAE33C973";
paths = (
{
closed = 1;
nodes = (
"223 0 LINE SMOOTH",
"316.333 0 OFFCURVE",
"376 30 OFFCURVE",
"389 125 CURVE SMOOTH",
"440 490 LINE SMOOTH",
"448 550 OFFCURVE",
"418 591 OFFCURVE",
"330 591 CURVE SMOOTH",
"98 591 LINE",
"15 0 LINE"
);
},
{
closed = 1;
nodes = (
"131 298 LINE",
"170 549 LINE",
"174 549 LINE",
"141 298 LINE",
"103 47 LINE",
"99 47 LINE"
);
},
{
closed = 1;
nodes = (
"251 503 LINE",
"266 503 LINE SMOOTH",
"271.333 503 OFFCURVE",
"275.167 500.833 OFFCURVE",
"277.5 496.5 CURVE SMOOTH",
"279.833 492.167 OFFCURVE",
"281 484 OFFCURVE",
"279 473 CURVE SMOOTH",
"228 110 LINE SMOOTH",
"225 87 OFFCURVE",
"217.667 80 OFFCURVE",
"207 80 CURVE SMOOTH",
"192 80 LINE"
);
},
{
closed = 1;
nodes = (
"195.333 45 OFFCURVE",
"191 45.333 OFFCURVE",
"187 46 CURVE",
"187 48 LINE",
"200 48 LINE SMOOTH",
"204 48 OFFCURVE",
"208 48 OFFCURVE",
"213.5 48.5 CURVE SMOOTH",
"230 49 LINE SMOOTH",
"270 50 OFFCURVE",
"297 71 OFFCURVE",
"302 114 CURVE SMOOTH",
"325 301 LINE",
"355 493 LINE SMOOTH",
"361 532 OFFCURVE",
"335 544 OFFCURVE",
"294 545 CURVE SMOOTH",
"260 546 LINE",
"261 548 LINE",
"295 549 LINE SMOOTH",
"338 550 OFFCURVE",
"364 535 OFFCURVE",
"359 493 CURVE SMOOTH",
"335 300 LINE",
"306 114 LINE SMOOTH",
"299 70 OFFCURVE",
"272.667 45 OFFCURVE",
"230 45 CURVE SMOOTH",
"200 45 LINE SMOOTH"
);
}
);
userData = {
assembly = "SVTCA[0]	/* SetFreedomAndProjectionVectorToAxis */\012PUSHW[ ]	/* 1 value pushed */\0120 \012RCVT[ ]	/* ReadCVT */\012IF[ ]	/* If */\012PUSHW[ ]	/* 1 value pushed */\01241 \012MDAP[1]	/* MoveDirectAbsPt */\012ELSE[ ]	/* Else */\012PUSHW[ ]	/* 2 values pushed */\01241 7 \012MIAP[0]	/* MoveIndirectAbsPt */\012EIF[ ]	/* EndIf */\012PUSHW[ ]	/* 2 values pushed */\01248 2 \012MIRP[10100]	/* MoveIndirectRelPt */\012PUSHW[ ]	/* 3 values pushed */\0123 41 48 \012SRP1[ ]	/* SetRefPoint1 */\012SRP2[ ]	/* SetRefPoint2 */\012IP[ ]	/* InterpolatePts */\012PUSHW[ ]	/* 3 values pushed */\01220 41 48 \012SRP1[ ]	/* SetRefPoint1 */\012SRP2[ ]	/* SetRefPoint2 */\012IP[ ]	/* InterpolatePts */\012IUP[0]	/* InterpolateUntPts */\012IUP[1]	/* InterpolateUntPts */";
};
width = 402;
}
);
note = D;
unicode = 0044;
},
{
glyphname = Eth;
lastChange = "2021-11-26 08:21:41 +0000";
layers = (
{
layerId = "DE28931B-8CFB-452E-AAB2-BC9BAE33C973";
paths = (
{
closed = 1;
nodes = (
"243 0 LINE SMOOTH",
"395.351 0 OFFCURVE",
"412.117 61.475 OFFCURVE",
"436 226 CURVE SMOOTH",
"459 389 LINE SMOOTH",
"480.295 543.39 OFFCURVE",
"485.738 591 OFFCURVE",
"334 591 CURVE SMOOTH",
"108 591 LINE",
"63 271 LINE",
"27 271 LINE",
"14 180 LINE",
"50 180 LINE",
"25 0 LINE"
);
},
{
closed = 1;
nodes = (
"150 298 LINE",
"189 549 LINE",
"193 549 LINE",
"160 298 LINE",
"122 47 LINE",
"118 47 LINE"
);
},
{
closed = 1;
nodes = (
"218 180 LINE",
"238 180 LINE",
"251 271 LINE",
"231 271 LINE",
"264 508 LINE",
"287 508 LINE SMOOTH",
"301.667 508 OFFCURVE",
"311.667 500.667 OFFCURVE",
"309 478 CURVE SMOOTH",
"301.633 432.326 OFFCURVE",
"285.305 316.829 OFFCURVE",
"282 297 CURVE SMOOTH",
"256 112 LINE SMOOTH",
"253.333 88 OFFCURVE",
"241.667 81 OFFCURVE",
"227 81 CURVE SMOOTH",
"204 81 LINE"
);
},
{
closed = 1;
nodes = (
"228.333 45 OFFCURVE",
"224 45.333 OFFCURVE",
"220 46 CURVE",
"220 48 LINE",
"233 48 LINE SMOOTH",
"237 48 OFFCURVE",
"241.5 48.167 OFFCURVE",
"246.5 48.5 CURVE SMOOTH",
"263 49 LINE SMOOTH",
"303 49 OFFCURVE",
"328.333 71.333 OFFCURVE",
"335 114 CURVE SMOOTH",
"358 301 LINE",
"388 493 LINE SMOOTH",
"393.333 531.667 OFFCURVE",
"368.333 545 OFFCURVE",
"327 545 CURVE SMOOTH",
"293 546 LINE",
"294 548 LINE",
"328 549 LINE SMOOTH",
"370.667 549 OFFCURVE",
"398.667 534.333 OFFCURVE",
"392 493 CURVE SMOOTH",
"368 300 LINE",
"339 114 LINE SMOOTH",
"332.333 70 OFFCURVE",
"305.667 45 OFFCURVE",
"263 45 CURVE SMOOTH",
"233 45 LINE SMOOTH"
);
}
);
userData = {
assembly = "SVTCA[0]	/* SetFreedomAndProjectionVectorToAxis */\012PUSHW[ ]	/* 1 value pushed */\0120 \012RCVT[ ]	/* ReadCVT */\012IF[ ]	/* If */\012PUSHW[ ]	/* 1 value pushed */\01213 \012MDAP[1]	/* MoveDirectAbsPt */\012ELSE[ ]	/* Else */\012PUSHW[ ]	/* 2 values pushed */\01213 7 \012MIAP[0]	/* MoveIndirectAbsPt */\012EIF[ ]	/* EndIf */\012PUSHW[ ]	/* 2 values pushed */\01232 2 \012MIRP[10100]	/* MoveIndirectRelPt */\012PUSHW[ ]	/* 3 values pushed */\01240 13 32 \012SRP1[ ]	/* SetRefPoint1 */\012SRP2[ ]	/* SetRefPoint2 */\012IP[ ]	/* InterpolatePts */\012PUSHW[ ]	/* 3 values pushed */\01257 13 32 \012SRP1[ ]	/* SetRefPoint1 */\012SRP2[ ]	/* SetRefPoint2 */\012IP[ ]	/* InterpolatePts */\012IUP[0]	/* InterpolateUntPts */\012IUP[1]	/* InterpolateUntPts */";
};
width = 435;
}
);
note = Eth;
rightKerningGroup = parenright;
unicode = 00D0;
},
{
glyphname = E;
lastChange = "2021-11-26 08:21:41 +0000";
layers = (
{
anchors = (
{
name = bottom;
position = "{161, 0}";
},
{
name = ogonek;
position = "{297, 0}";
},
{
name = top;
position = "{241, 591}";
},
{
name = topleft;
position = "{68, 591}";
}
);
layerId = "DE28931B-8CFB-452E-AAB2-BC9BAE33C973";
paths = (
{
closed = 1;
nodes = (
"301 0 LINE",
"316 108 LINE",
"196 108 LINE",
"214 240 LINE",
"324 240 LINE",
"342 365 LINE",
"232 365 LINE",
"248 480 LINE",
"368 480 LINE",
"384 591 LINE",
"98 591 LINE",
"15 0 LINE"
);
},
{
closed = 1;
nodes = (
"133 300 LINE",
"170 536 LINE",
"335 535 LINE",
"334 533 LINE",
"174 532 LINE",
"146 302 LINE",
"277 301 LINE",
"277 299 LINE",
"145 298 LINE",
"108 59 LINE",
"268 58 LINE",
"267 56 LINE",
"102 55 LINE"
);
}
);
userData = {
assembly = "SVTCA[0]	/* SetFreedomAndProjectionVectorToAxis */\012PUSHW[ ]	/* 1 value pushed */\0120 \012RCVT[ ]	/* ReadCVT */\012IF[ ]	/* If */\012PUSHW[ ]	/* 1 value pushed */\01223 \012MDAP[1]	/* MoveDirectAbsPt */\012ELSE[ ]	/* Else */\012PUSHW[ ]	/* 2 values pushed */\01223 7 \012MIAP[0]	/* MoveIndirectAbsPt */\012EIF[ ]	/* EndIf */\012PUSHW[ ]	/* 2 values pushed */\01221 4 \012MIRP[10100]	/* MoveIndirectRelPt */\012PUSHW[ ]	/* 3 values pushed */\0125 23 21 \012SRP1[ ]	/* SetRefPoint1 */\012SRP2[ ]	/* SetRefPoint2 */\012IP[ ]	/* InterpolatePts */\012IUP[0]	/* InterpolateUntPts */\012IUP[1]	/* InterpolateUntPts */";
};
width = 331;
}
);
note = E;
unicode = 0045;
},
{
glyphname = F;
lastChange = "2021-11-26 08:21:41 +0000";
layers = (
{
layerId = "DE28931B-8CFB-452E-AAB2-BC9BAE33C973";
paths = (
{
closed = 1;
nodes = (
"181 0 LINE",
"214 240 LINE",
"324 240 LINE",
"342 365 LINE",
"232 365 LINE",
"248 480 LINE",
"368 480 LINE",
"384 591 LINE",
"98 591 LINE",
"15 0 LINE"
);
},
{
closed = 1;
nodes = (
"133 300 LINE",
"170 536 LINE",
"335 535 LINE",
"334 533 LINE",
"174 532 LINE",
"146 302 LINE",
"277 301 LINE",
"277 299 LINE",
"145 298 LINE",
"107 55 LINE",
"102 55 LINE"
);
}
);
userData = {
assembly = "SVTCA[0]	/* SetFreedomAndProjectionVectorToAxis */\012PUSHW[ ]	/* 1 value pushed */\0120 \012RCVT[ ]	/* ReadCVT */\012IF[ ]	/* If */\012PUSHW[ ]	/* 1 value pushed */\0128 \012MDAP[1]	/* MoveDirectAbsPt */\012ELSE[ ]	/* Else */\012PUSHW[ ]	/* 2 values pushed */\0128 7 \012MIAP[0]	/* MoveIndirectAbsPt */\012EIF[ ]	/* EndIf */\012IUP[0]	/* InterpolateUntPts */\012IUP[1]	/* InterpolateUntPts */";
};
width = 321;
}
);
note = F;
unicode = 0046;
},
{
glyphname = G;
lastChange = "2021-11-26 08:21:41 +0000";
layers = (
{
anchors = (
{
name = bottom;
position = "{199, 0}";
},
{
name = top;
position = "{278, 591}";
}
);
layerId = "DE28931B-8CFB-452E-AAB2-BC9BAE33C973";
paths = (
{
closed = 1;
nodes = (
"199.296 -10 OFFCURVE",
"228.601 30.682 OFFCURVE",
"246 62 CURVE",
"251 0 LINE",
"371 0 LINE",
"415 311 LINE",
"236 311 LINE",
"223 222 LINE",
"248 222 LINE",
"232 110 LINE SMOOTH",
"229 87 OFFCURVE",
"219.333 80 OFFCURVE",
"206 80 CURVE SMOOTH",
"192.667 80 OFFCURVE",
"185 87 OFFCURVE",
"188 110 CURVE SMOOTH",
"239 473 LINE SMOOTH",
"242 496 OFFCURVE",
"252.667 503 OFFCURVE",
"266 503 CURVE SMOOTH",
"279.333 503 OFFCURVE",
"286 496 OFFCURVE",
"283 473 CURVE SMOOTH",
"269 373 LINE",
"423 373 LINE",
"436 463 LINE SMOOTH",
"450 562 OFFCURVE",
"381.909 598 OFFCURVE",
"274 598 CURVE SMOOTH",
"168.659 598 OFFCURVE",
"93 563 OFFCURVE",
"79 463 CURVE SMOOTH",
"35 151 LINE SMOOTH",
"18 31 OFFCURVE",
"63.787 -10 OFFCURVE",
"142 -10 CURVE SMOOTH"
);
},
{
closed = 1;
nodes = (
"335 264 LINE",
"299 264 LINE",
"270 265 LINE",
"270 267 LINE",
"345 268 LINE",
"311 47 LINE",
"307 47 LINE"
);
},
{
closed = 1;
nodes = (
"121.616 39.624 OFFCURVE",
"115 83 OFFCURVE",
"120 135 CURVE SMOOTH",
"136 293 LINE",
"165 466 LINE SMOOTH",
"174 519 OFFCURVE",
"201 549 OFFCURVE",
"273 549 CURVE SMOOTH",
"345 549 OFFCURVE",
"361 520 OFFCURVE",
"354 473 CURVE SMOOTH",
"344 409 LINE",
"342 409 LINE",
"350 473 LINE SMOOTH",
"356 517 OFFCURVE",
"341 545 OFFCURVE",
"273 545 CURVE SMOOTH",
"203.667 545 OFFCURVE",
"175 517 OFFCURVE",
"169 466 CURVE SMOOTH",
"148 293 LINE",
"124 138 LINE SMOOTH",
"115 83 OFFCURVE",
"125.667 43 OFFCURVE",
"171 47 CURVE",
"170 45 LINE"
);
}
);
userData = {
assembly = "SVTCA[0]	/* SetFreedomAndProjectionVectorToAxis */\012PUSHW[ ]	/* 1 value pushed */\0120 \012RCVT[ ]	/* ReadCVT */\012IF[ ]	/* If */\012PUSHW[ ]	/* 1 value pushed */\0129 \012MDAP[1]	/* MoveDirectAbsPt */\012ELSE[ ]	/* Else */\012PUSHW[ ]	/* 2 values pushed */\0129 7 \012MIAP[0]	/* MoveIndirectAbsPt */\012EIF[ ]	/* EndIf */\012PUSHW[ ]	/* 4 values pushed */\01245 1 16 4 \012CALL[ ]	/* CallFunction */\012PUSHW[ ]	/* 3 values pushed */\0125 16 45 \012SRP1[ ]	/* SetRefPoint1 */\012SRP2[ ]	/* SetRefPoint2 */\012IP[ ]	/* InterpolatePts */\012PUSHW[ ]	/* 3 values pushed */\01211 16 45 \012SRP1[ ]	/* SetRefPoint1 */\012SRP2[ ]	/* SetRefPoint2 */\012IP[ ]	/* InterpolatePts */\012PUSHW[ ]	/* 3 values pushed */\01252 16 45 \012SRP1[ ]	/* SetRefPoint1 */\012SRP2[ ]	/* SetRefPoint2 */\012IP[ ]	/* InterpolatePts */\012IUP[0]	/* InterpolateUntPts */\012IUP[1]	/* InterpolateUntPts */";
};
width = 402;
}
);
note = G;
unicode = 0047;
},
{
glyphname = H;
lastChange = "2021-11-26 08:21:41 +0000";
layers = (
{
anchors = (
{
name = bottom;
position = "{167, 0}";
},
{
name = center;
position = "{209, 296}";
},
{
name = top;
position = "{273, 591}";
},
{
name = topleft;
position = "{68, 591}";
}
);
layerId = "DE28931B-8CFB-452E-AAB2-BC9BAE33C973";
paths = (
{
closed = 1;
nodes = (
"174 0 LINE",
"208 245 LINE",
"244 245 LINE",
"210 0 LINE",
"369 0 LINE",
"452 591 LINE",
"293 591 LINE",
"260 362 LINE",
"224 362 LINE",
"257 591 LINE",
"98 591 LINE",
"15 0 LINE"
);
},
{
closed = 1;
nodes = (
"128 300 LINE",
"167 547 LINE",
"171 547 LINE",
"141 302 LINE",
"232 301 LINE",
"323 302 LINE",
"361 547 LINE",
"365 547 LINE",
"336 300 LINE",
"296 47 LINE",
"292 47 LINE",
"322 298 LINE",
"232 299 LINE",
"140 298 LINE",
"100 47 LINE",
"96 47 LINE"
);
}
);
userData = {
assembly = "SVTCA[0]	/* SetFreedomAndProjectionVectorToAxis */\012PUSHW[ ]	/* 1 value pushed */\0120 \012RCVT[ ]	/* ReadCVT */\012IF[ ]	/* If */\012PUSHW[ ]	/* 1 value pushed */\01217 \012MDAP[1]	/* MoveDirectAbsPt */\012ELSE[ ]	/* Else */\012PUSHW[ ]	/* 2 values pushed */\01217 7 \012MIAP[0]	/* MoveIndirectAbsPt */\012EIF[ ]	/* EndIf */\012PUSHW[ ]	/* 1 value pushed */\0120 \012RCVT[ ]	/* ReadCVT */\012IF[ ]	/* If */\012PUSHW[ ]	/* 1 value pushed */\01225 \012MDAP[1]	/* MoveDirectAbsPt */\012ELSE[ ]	/* Else */\012PUSHW[ ]	/* 2 values pushed */\01225 7 \012MIAP[0]	/* MoveIndirectAbsPt */\012EIF[ ]	/* EndIf */\012PUSHW[ ]	/* 4 values pushed */\01221 4 16 4 \012CALL[ ]	/* CallFunction */\012IUP[0]	/* InterpolateUntPts */\012IUP[1]	/* InterpolateUntPts */";
};
width = 404;
}
);
note = H;
unicode = 0048;
},
{
glyphname = Hbar;
lastChange = "2021-11-26 08:21:41 +0000";
layers = (
{
layerId = "DE28931B-8CFB-452E-AAB2-BC9BAE33C973";
paths = (
{
closed = 1;
nodes = (
"175 0 LINE",
"209 245 LINE",
"245 245 LINE",
"211 0 LINE",
"370 0 LINE",
"431 437 LINE",
"468 437 LINE",
"479 516 LINE",
"442 516 LINE",
"453 591 LINE",
"294 591 LINE",
"283 516 LINE",
"247 516 LINE",
"258 591 LINE",
"99 591 LINE",
"88 516 LINE",
"43 516 LINE",
"32 437 LINE",
"77 437 LINE",
"16 0 LINE"
);
},
{
closed = 1;
nodes = (
"128 300 LINE",
"167 547 LINE",
"171 547 LINE",
"141 302 LINE",
"232 301 LINE",
"323 302 LINE",
"361 547 LINE",
"365 547 LINE",
"336 300 LINE",
"296 47 LINE",
"292 47 LINE",
"322 298 LINE",
"232 299 LINE",
"140 298 LINE",
"100 47 LINE",
"96 47 LINE"
);
},
{
closed = 1;
nodes = (
"236 437 LINE",
"272 437 LINE",
"261 362 LINE",
"225 362 LINE"
);
}
);
userData = {
assembly = "SVTCA[0]	/* SetFreedomAndProjectionVectorToAxis */\012PUSHW[ ]	/* 1 value pushed */\0120 \012RCVT[ ]	/* ReadCVT */\012IF[ ]	/* If */\012PUSHW[ ]	/* 1 value pushed */\0121 \012MDAP[1]	/* MoveDirectAbsPt */\012ELSE[ ]	/* Else */\012PUSHW[ ]	/* 2 values pushed */\0121 7 \012MIAP[0]	/* MoveIndirectAbsPt */\012EIF[ ]	/* EndIf */\012PUSHW[ ]	/* 1 value pushed */\0120 \012RCVT[ ]	/* ReadCVT */\012IF[ ]	/* If */\012PUSHW[ ]	/* 1 value pushed */\01217 \012MDAP[1]	/* MoveDirectAbsPt */\012ELSE[ ]	/* Else */\012PUSHW[ ]	/* 2 values pushed */\01217 7 \012MIAP[0]	/* MoveIndirectAbsPt */\012EIF[ ]	/* EndIf */\012PUSHW[ ]	/* 4 values pushed */\01223 4 0 4 \012CALL[ ]	/* CallFunction */\012IUP[0]	/* InterpolateUntPts */\012IUP[1]	/* InterpolateUntPts */";
};
width = 406;
}
);
unicode = 0126;
},
{
glyphname = I;
lastChange = "2021-11-26 08:21:41 +0000";
layers = (
{
anchors = (
{
name = bottom;
position = "{97, 0}";
},
{
name = ogonek;
position = "{177, 0}";
},
{
name = top;
position = "{179, 591}";
},
{
name = topleft;
position = "{68, 591}";
}
);
layerId = "DE28931B-8CFB-452E-AAB2-BC9BAE33C973";
paths = (
{
closed = 1;
nodes = (
"179 0 LINE",
"262 591 LINE",
"103 591 LINE",
"20 0 LINE"
);
},
{
closed = 1;
nodes = (
"133 300 LINE",
"172 547 LINE",
"176 547 LINE",
"146 300 LINE",
"105 47 LINE",
"101 47 LINE"
);
}
);
userData = {
assembly = "SVTCA[0]	/* SetFreedomAndProjectionVectorToAxis */\012PUSHW[ ]	/* 1 value pushed */\0120 \012RCVT[ ]	/* ReadCVT */\012IF[ ]	/* If */\012PUSHW[ ]	/* 1 value pushed */\0120 \012MDAP[1]	/* MoveDirectAbsPt */\012ELSE[ ]	/* Else */\012PUSHW[ ]	/* 2 values pushed */\0120 7 \012MIAP[0]	/* MoveIndirectAbsPt */\012EIF[ ]	/* EndIf */\012IUP[0]	/* InterpolateUntPts */\012IUP[1]	/* InterpolateUntPts */";
};
width = 219;
}
);
note = I;
unicode = 0049;
},
{
glyphname = J;
lastChange = "2021-11-26 08:21:41 +0000";
layers = (
{
anchors = (
{
name = bottom;
position = "{97, 0}";
},
{
name = top;
position = "{233, 591}";
}
);
layerId = "DE28931B-8CFB-452E-AAB2-BC9BAE33C973";
paths = (
{
closed = 1;
nodes = (
"177 -3 OFFCURVE",
"233 34 OFFCURVE",
"251 159 CURVE SMOOTH",
"312 591 LINE",
"153 591 LINE",
"92 156 LINE SMOOTH",
"87 117 OFFCURVE",
"77.667 108 OFFCURVE",
"39 108 CURVE SMOOTH",
"10 108 LINE",
"-5 0 LINE",
"49 -1 LINE SMOOTH"
);
},
{
closed = 1;
nodes = (
"78 63 LINE",
"92 64.333 OFFCURVE",
"105 69 OFFCURVE",
"117 77 CURVE SMOOTH",
"137 91.667 OFFCURVE",
"161 119 OFFCURVE",
"168 175 CURVE SMOOTH",
"184 300 LINE",
"224 547 LINE",
"228 547 LINE",
"198 300 LINE",
"178 177 LINE SMOOTH",
"168 117 OFFCURVE",
"144.667 88.667 OFFCURVE",
"122 74 CURVE SMOOTH",
"108.667 66 OFFCURVE",
"94 61.333 OFFCURVE",
"78 60 CURVE"
);
}
);
width = 264;
}
);
note = J;
unicode = 004A;
},
{
glyphname = K;
lastChange = "2021-11-26 08:21:41 +0000";
layers = (
{
anchors = (
{
name = bottom;
position = "{203, 0}";
},
{
name = top;
position = "{279, 591}";
}
);
layerId = "DE28931B-8CFB-452E-AAB2-BC9BAE33C973";
paths = (
{
closed = 1;
nodes = (
"174 0 LINE",
"211 266 LINE",
"232 0 LINE",
"409 0 LINE",
"350 307 LINE",
"490 591 LINE",
"307 591 LINE",
"223 350 LINE",
"257 591 LINE",
"98 591 LINE",
"15 0 LINE"
);
},
{
closed = 1;
nodes = (
"128 300 LINE",
"167 547 LINE",
"171 547 LINE",
"141 300 LINE",
"100 47 LINE",
"96 47 LINE"
);
},
{
closed = 1;
nodes = (
"304.333 73 OFFCURVE",
"300 99 OFFCURVE",
"296 125 CURVE SMOOTH",
"292.667 147 OFFCURVE",
"289 170 OFFCURVE",
"285.5 194.5 CURVE SMOOTH",
"275 259 LINE",
"265 304 LINE",
"288 349 LINE",
"313.5 409 LINE SMOOTH",
"323 432 OFFCURVE",
"332 453 OFFCURVE",
"341 474 CURVE SMOOTH",
"372 547 LINE",
"377 547 LINE",
"279 304 LINE",
"279 293.739 OFFCURVE",
"291.295 210.64 OFFCURVE",
"296 173 CURVE SMOOTH",
"300.667 135.667 OFFCURVE",
"306.333 93.667 OFFCURVE",
"313 47 CURVE",
"309 47 LINE"
);
}
);
userData = {
assembly = "SVTCA[0]	/* SetFreedomAndProjectionVectorToAxis */\012PUSHW[ ]	/* 1 value pushed */\0120 \012RCVT[ ]	/* ReadCVT */\012IF[ ]	/* If */\012PUSHW[ ]	/* 1 value pushed */\01226 \012MDAP[1]	/* MoveDirectAbsPt */\012ELSE[ ]	/* Else */\012PUSHW[ ]	/* 2 values pushed */\01226 7 \012MIAP[0]	/* MoveIndirectAbsPt */\012EIF[ ]	/* EndIf */\012PUSHW[ ]	/* 1 value pushed */\0120 \012RCVT[ ]	/* ReadCVT */\012IF[ ]	/* If */\012PUSHW[ ]	/* 1 value pushed */\01229 \012MDAP[1]	/* MoveDirectAbsPt */\012ELSE[ ]	/* Else */\012PUSHW[ ]	/* 2 values pushed */\01229 7 \012MIAP[0]	/* MoveIndirectAbsPt */\012EIF[ ]	/* EndIf */\012IUP[0]	/* InterpolateUntPts */\012IUP[1]	/* InterpolateUntPts */";
};
width = 429;
}
);
note = K;
unicode = 004B;
},
{
glyphname = L;
lastChange = "2021-11-26 08:21:41 +0000";
layers = (
{
anchors = (
{
name = bottom;
position = "{136, 0}";
},
{
name = center;
position = "{158, 296}";
},
{
name = top;
position = "{172, 591}";
},
{
name = topright;
position = "{281, 460}";
}
);
layerId = "DE28931B-8CFB-452E-AAB2-BC9BAE33C973";
paths = (
{
closed = 1;
nodes = (
"281 0 LINE",
"296 108 LINE",
"187 108 LINE",
"255 591 LINE",
"98 591 LINE",
"15 0 LINE"
);
},
{
closed = 1;
nodes = (
"128 300 LINE",
"166 547 LINE",
"171 547 LINE",
"141 300 LINE",
"103 59 LINE",
"243 58 LINE",
"242 56 LINE",
"97 55 LINE"
);
}
);
userData = {
assembly = "SVTCA[0]	/* SetFreedomAndProjectionVectorToAxis */\012PUSHW[ ]	/* 1 value pushed */\0120 \012RCVT[ ]	/* ReadCVT */\012IF[ ]	/* If */\012PUSHW[ ]	/* 1 value pushed */\0124 \012MDAP[1]	/* MoveDirectAbsPt */\012ELSE[ ]	/* Else */\012PUSHW[ ]	/* 2 values pushed */\0124 7 \012MIAP[0]	/* MoveIndirectAbsPt */\012EIF[ ]	/* EndIf */\012PUSHW[ ]	/* 2 values pushed */\0122 4 \012MIRP[10100]	/* MoveIndirectRelPt */\012PUSHW[ ]	/* 3 values pushed */\01210 4 2 \012SRP1[ ]	/* SetRefPoint1 */\012SRP2[ ]	/* SetRefPoint2 */\012IP[ ]	/* InterpolatePts */\012IUP[0]	/* InterpolateUntPts */\012IUP[1]	/* InterpolateUntPts */";
};
width = 301;
}
);
note = L;
rightKerningGroup = L;
unicode = 004C;
},
{
glyphname = Lslash;
lastChange = "2021-11-26 08:21:41 +0000";
layers = (
{
layerId = "DE28931B-8CFB-452E-AAB2-BC9BAE33C973";
paths = (
{
closed = 1;
nodes = (
"321 0 LINE",
"336 108 LINE",
"227 108 LINE",
"243 225 LINE",
"308 253 LINE",
"317 316 LINE",
"252 289 LINE",
"294 585 LINE",
"137 585 LINE",
"85 219 LINE",
"30 196 LINE",
"21 132 LINE",
"76 155 LINE",
"55 0 LINE"
);
},
{
closed = 1;
nodes = (
"169 300 LINE",
"207 547 LINE",
"212 547 LINE",
"182 300 LINE",
"144 59 LINE",
"284 58 LINE",
"283 56 LINE",
"138 55 LINE"
);
}
);
userData = {
assembly = "SVTCA[0]	/* SetFreedomAndProjectionVectorToAxis */\012PUSHW[ ]	/* 1 value pushed */\0120 \012RCVT[ ]	/* ReadCVT */\012IF[ ]	/* If */\012PUSHW[ ]	/* 1 value pushed */\0129 \012MDAP[1]	/* MoveDirectAbsPt */\012ELSE[ ]	/* Else */\012PUSHW[ ]	/* 2 values pushed */\0129 13 \012MIAP[0]	/* MoveIndirectAbsPt */\012EIF[ ]	/* EndIf */\012PUSHW[ ]	/* 1 value pushed */\0120 \012RCVT[ ]	/* ReadCVT */\012IF[ ]	/* If */\012PUSHW[ ]	/* 1 value pushed */\0123 \012MDAP[1]	/* MoveDirectAbsPt */\012ELSE[ ]	/* Else */\012PUSHW[ ]	/* 2 values pushed */\0123 7 \012MIAP[0]	/* MoveIndirectAbsPt */\012EIF[ ]	/* EndIf */\012PUSHW[ ]	/* 2 values pushed */\0121 4 \012MIRP[10100]	/* MoveIndirectRelPt */\012PUSHW[ ]	/* 3 values pushed */\0125 3 9 \012SRP1[ ]	/* SetRefPoint1 */\012SRP2[ ]	/* SetRefPoint2 */\012IP[ ]	/* InterpolatePts */\012PUSHW[ ]	/* 3 values pushed */\0126 3 9 \012SRP1[ ]	/* SetRefPoint1 */\012SRP2[ ]	/* SetRefPoint2 */\012IP[ ]	/* InterpolatePts */\012PUSHW[ ]	/* 3 values pushed */\01211 3 9 \012SRP1[ ]	/* SetRefPoint1 */\012SRP2[ ]	/* SetRefPoint2 */\012IP[ ]	/* InterpolatePts */\012PUSHW[ ]	/* 3 values pushed */\01212 3 9 \012SRP1[ ]	/* SetRefPoint1 */\012SRP2[ ]	/* SetRefPoint2 */\012IP[ ]	/* InterpolatePts */\012PUSHW[ ]	/* 3 values pushed */\01218 3 1 \012SRP1[ ]	/* SetRefPoint1 */\012SRP2[ ]	/* SetRefPoint2 */\012IP[ ]	/* InterpolatePts */\012IUP[0]	/* InterpolateUntPts */\012IUP[1]	/* InterpolateUntPts */";
};
width = 348;
}
);
note = Lslash;
unicode = 0141;
},
{
glyphname = M;
lastChange = "2021-11-26 08:21:41 +0000";
layers = (
{
layerId = "DE28931B-8CFB-452E-AAB2-BC9BAE33C973";
paths = (
{
closed = 1;
nodes = (
"154 0 LINE",
"211 412 LINE",
"207 0 LINE",
"313 0 LINE",
"423 412 LINE",
"366 0 LINE",
"505 0 LINE",
"588 591 LINE",
"386 591 LINE",
"300 289 LINE",
"300 591 LINE",
"98 591 LINE",
"15 0 LINE"
);
},
{
closed = 1;
nodes = (
"121 300 LINE",
"160 547 LINE",
"164 547 LINE",
"134 300 LINE",
"93 47 LINE",
"89 47 LINE"
);
},
{
closed = 1;
nodes = (
"266 53.095 OFFCURVE",
"263.075 88.037 OFFCURVE",
"260.5 121 CURVE SMOOTH",
"257.167 163.667 OFFCURVE",
"253.333 219.667 OFFCURVE",
"252 277 CURVE SMOOTH",
"250.667 307.667 OFFCURVE",
"249.833 338.333 OFFCURVE",
"249.5 369 CURVE SMOOTH",
"249.167 399.667 OFFCURVE",
"248.667 427.333 OFFCURVE",
"248 452 CURVE SMOOTH",
"246 535 LINE",
"248 535 LINE",
"254 451 LINE SMOOTH",
"255.333 426.333 OFFCURVE",
"256.833 398.833 OFFCURVE",
"258.5 368.5 CURVE SMOOTH",
"263 278 LINE SMOOTH",
"264.333 251.333 OFFCURVE",
"265.167 225.167 OFFCURVE",
"265.5 199.5 CURVE SMOOTH",
"267 130 LINE SMOOTH",
"267.667 106 OFFCURVE",
"268 83 OFFCURVE",
"268 61 CURVE",
"333 279 LINE",
"423 534 LINE",
"425 534 LINE",
"398 452 LINE SMOOTH",
"382 402.667 OFFCURVE",
"361.667 339.333 OFFCURVE",
"343 278 CURVE SMOOTH",
"324.333 218 OFFCURVE",
"304.667 161.667 OFFCURVE",
"290 119 CURVE SMOOTH",
"266 47 LINE"
);
},
{
closed = 1;
nodes = (
"472 300 LINE",
"511 547 LINE",
"515 547 LINE",
"485 300 LINE",
"444 47 LINE",
"440 47 LINE"
);
}
);
userData = {
assembly = "SVTCA[0]	/* SetFreedomAndProjectionVectorToAxis */\012PUSHW[ ]	/* 1 value pushed */\0120 \012RCVT[ ]	/* ReadCVT */\012IF[ ]	/* If */\012PUSHW[ ]	/* 1 value pushed */\0121 \012MDAP[1]	/* MoveDirectAbsPt */\012ELSE[ ]	/* Else */\012PUSHW[ ]	/* 2 values pushed */\0121 7 \012MIAP[0]	/* MoveIndirectAbsPt */\012EIF[ ]	/* EndIf */\012PUSHW[ ]	/* 1 value pushed */\0120 \012RCVT[ ]	/* ReadCVT */\012IF[ ]	/* If */\012PUSHW[ ]	/* 1 value pushed */\0128 \012MDAP[1]	/* MoveDirectAbsPt */\012ELSE[ ]	/* Else */\012PUSHW[ ]	/* 2 values pushed */\0128 7 \012MIAP[0]	/* MoveIndirectAbsPt */\012EIF[ ]	/* EndIf */\012PUSHW[ ]	/* 1 value pushed */\0120 \012RCVT[ ]	/* ReadCVT */\012IF[ ]	/* If */\012PUSHW[ ]	/* 1 value pushed */\01211 \012MDAP[1]	/* MoveDirectAbsPt */\012ELSE[ ]	/* Else */\012PUSHW[ ]	/* 2 values pushed */\01211 7 \012MIAP[0]	/* MoveIndirectAbsPt */\012EIF[ ]	/* EndIf */\012IUP[0]	/* InterpolateUntPts */\012IUP[1]	/* InterpolateUntPts */";
};
width = 540;
}
);
note = M;
unicode = 004D;
},
{
glyphname = N;
lastChange = "2021-11-26 08:21:41 +0000";
layers = (
{
anchors = (
{
name = bottom;
position = "{188, 0}";
},
{
name = top;
position = "{274, 591}";
}
);
layerId = "DE28931B-8CFB-452E-AAB2-BC9BAE33C973";
paths = (
{
closed = 1;
nodes = (
"154 0 LINE",
"188 245 LINE",
"227 0 LINE",
"364 0 LINE",
"447 591 LINE",
"308 591 LINE",
"269 316 LINE",
"236 591 LINE",
"98 591 LINE",
"15 0 LINE"
);
},
{
closed = 1;
nodes = (
"122 300 LINE",
"159 547 LINE",
"162 547 LINE",
"231 299 LINE",
"298 57 LINE",
"328 300 LINE",
"365 547 LINE",
"370 547 LINE",
"339 300 LINE",
"300 47 LINE",
"297 47 LINE",
"217 305 LINE",
"163 534 LINE",
"133 300 LINE",
"94 47 LINE",
"89 47 LINE"
);
}
);
userData = {
assembly = "SVTCA[0]	/* SetFreedomAndProjectionVectorToAxis */\012PUSHW[ ]	/* 1 value pushed */\0120 \012RCVT[ ]	/* ReadCVT */\012IF[ ]	/* If */\012PUSHW[ ]	/* 1 value pushed */\01217 \012MDAP[1]	/* MoveDirectAbsPt */\012ELSE[ ]	/* Else */\012PUSHW[ ]	/* 2 values pushed */\01217 7 \012MIAP[0]	/* MoveIndirectAbsPt */\012EIF[ ]	/* EndIf */\012PUSHW[ ]	/* 1 value pushed */\0120 \012RCVT[ ]	/* ReadCVT */\012IF[ ]	/* If */\012PUSHW[ ]	/* 1 value pushed */\01224 \012MDAP[1]	/* MoveDirectAbsPt */\012ELSE[ ]	/* Else */\012PUSHW[ ]	/* 2 values pushed */\01224 7 \012MIAP[0]	/* MoveIndirectAbsPt */\012EIF[ ]	/* EndIf */\012IUP[0]	/* InterpolateUntPts */\012IUP[1]	/* InterpolateUntPts */";
};
width = 399;
}
);
note = N;
unicode = 004E;
},
{
glyphname = Eng;
lastChange = "2021-11-26 08:21:41 +0000";
layers = (
{
layerId = "DE28931B-8CFB-452E-AAB2-BC9BAE33C973";
paths = (
{
closed = 1;
nodes = (
"277 -250 OFFCURVE",
"332 -214 OFFCURVE",
"351 -90 CURVE SMOOTH",
"447 591 LINE",
"308 591 LINE",
"269 316 LINE",
"236 591 LINE",
"98 591 LINE",
"15 0 LINE",
"154 0 LINE",
"188 245 LINE",
"215 74 LINE",
"192 -93 LINE SMOOTH",
"185 -132 OFFCURVE",
"178 -141 OFFCURVE",
"139 -141 CURVE SMOOTH",
"110 -141 LINE",
"95 -249 LINE",
"149 -250 LINE SMOOTH"
);
},
{
closed = 1;
nodes = (
"181 -189 LINE",
"194 -188 OFFCURVE",
"206 -183 OFFCURVE",
"218 -175 CURVE SMOOTH",
"238 -160 OFFCURVE",
"260 -133 OFFCURVE",
"271 -77 CURVE SMOOTH",
"296 54 LINE",
"218 305 LINE",
"163 534 LINE",
"133 300 LINE",
"94 47 LINE",
"89 47 LINE",
"122 300 LINE",
"160 547 LINE",
"163 547 LINE",
"231 299 LINE",
"298 57 LINE",
"328 300 LINE",
"366 547 LINE",
"371 547 LINE",
"339 300 LINE",
"280 -75 LINE SMOOTH",
"271 -135 OFFCURVE",
"247 -163 OFFCURVE",
"224 -178 CURVE SMOOTH",
"211 -186 OFFCURVE",
"196 -191 OFFCURVE",
"181 -192 CURVE"
);
}
);
userData = {
assembly = "PUSHW[ ]	/* 4 values pushed */\0120 6 31 4 \012CALL[ ]	/* CallFunction */\012PUSHW[ ]	/* 3 values pushed */\0124 31 0 \012SRP1[ ]	/* SetRefPoint1 */\012SRP2[ ]	/* SetRefPoint2 */\012IP[ ]	/* InterpolatePts */\012PUSHW[ ]	/* 1 value pushed */\01231 \012SRP0[ ]	/* SetRefPoint0 */\012PUSHW[ ]	/* 1 value pushed */\01233 \012MDRP[10000]	/* MoveDirectRelPt */\012PUSHW[ ]	/* 1 value pushed */\01233 \012MDAP[1]	/* MoveDirectAbsPt */\012PUSHW[ ]	/* 3 values pushed */\01238 31 0 \012SRP1[ ]	/* SetRefPoint1 */\012SRP2[ ]	/* SetRefPoint2 */\012IP[ ]	/* InterpolatePts */\012SVTCA[0]	/* SetFreedomAndProjectionVectorToAxis */\012PUSHW[ ]	/* 1 value pushed */\0120 \012RCVT[ ]	/* ReadCVT */\012IF[ ]	/* If */\012PUSHW[ ]	/* 1 value pushed */\01234 \012MDAP[1]	/* MoveDirectAbsPt */\012ELSE[ ]	/* Else */\012PUSHW[ ]	/* 2 values pushed */\01234 7 \012MIAP[0]	/* MoveIndirectAbsPt */\012EIF[ ]	/* EndIf */\012IUP[0]	/* InterpolateUntPts */\012IUP[1]	/* InterpolateUntPts */";
};
width = 399;
}
);
leftMetricsKey = H;
rightMetricsKey = H;
unicode = 014A;
},
{
glyphname = O;
lastChange = "2021-11-26 08:21:41 +0000";
layers = (
{
anchors = (
{
name = bottom;
position = "{193, 0}";
},
{
name = center;
position = "{206, 296}";
},
{
name = ogonek;
position = "{255, 0}";
},
{
name = top;
position = "{279, 591}";
},
{
name = topleft;
position = "{68, 591}";
},
{
name = topright;
position = "{317, 591}";
}
);
layerId = "DE28931B-8CFB-452E-AAB2-BC9BAE33C973";
paths = (
{
closed = 1;
nodes = (
"314.389 -12 OFFCURVE",
"374 24 OFFCURVE",
"395 174 CURVE SMOOTH",
"436 465 LINE SMOOTH",
"450 564 OFFCURVE",
"389.333 600 OFFCURVE",
"280 600 CURVE SMOOTH",
"170.667 600 OFFCURVE",
"93 564 OFFCURVE",
"79 465 CURVE SMOOTH",
"38 173 LINE SMOOTH",
"17 25 OFFCURVE",
"73.487 -12 OFFCURVE",
"194 -12 CURVE SMOOTH"
);
},
{
closed = 1;
nodes = (
"200.667 80 OFFCURVE",
"197 82.167 OFFCURVE",
"195 86.5 CURVE SMOOTH",
"193 90.833 OFFCURVE",
"193 99 OFFCURVE",
"195 110 CURVE SMOOTH",
"246 473 LINE SMOOTH",
"249 496 OFFCURVE",
"255.333 503 OFFCURVE",
"266 503 CURVE SMOOTH",
"270.667 503 OFFCURVE",
"274.167 500.833 OFFCURVE",
"276.5 496.5 CURVE SMOOTH",
"278.833 492.167 OFFCURVE",
"280 484 OFFCURVE",
"278 473 CURVE SMOOTH",
"227 110 LINE SMOOTH",
"225 99 OFFCURVE",
"222.167 90.833 OFFCURVE",
"218.5 86.5 CURVE SMOOTH",
"214.833 82.167 OFFCURVE",
"210.667 80 OFFCURVE",
"206 80 CURVE SMOOTH"
);
},
{
closed = 1;
nodes = (
"123.333 45 OFFCURVE",
"104 70 OFFCURVE",
"109 114 CURVE SMOOTH",
"131 300 LINE",
"162 493 LINE SMOOTH",
"169 534 OFFCURVE",
"199 550 OFFCURVE",
"242 549 CURVE SMOOTH",
"272 548 LINE",
"297 549 LINE SMOOTH",
"340 551 OFFCURVE",
"366 535 OFFCURVE",
"361 493 CURVE SMOOTH",
"338 300 LINE",
"308 114 LINE SMOOTH",
"301 70 OFFCURVE",
"275.667 45 OFFCURVE",
"233 45 CURVE SMOOTH",
"209 45 LINE SMOOTH",
"206.333 45 OFFCURVE",
"204 45.333 OFFCURVE",
"202 46 CURVE",
"199.333 45.333 OFFCURVE",
"196.333 45 OFFCURVE",
"193 45 CURVE SMOOTH",
"166 45 LINE SMOOTH"
);
},
{
closed = 1;
nodes = (
"209 48 LINE SMOOTH",
"211.667 48 OFFCURVE",
"215 48 OFFCURVE",
"218.5 48.5 CURVE SMOOTH",
"233 49 LINE SMOOTH",
"274 50 OFFCURVE",
"299 71 OFFCURVE",
"304 114 CURVE SMOOTH",
"325 301 LINE",
"357 493 LINE SMOOTH",
"363 532 OFFCURVE",
"338 543 OFFCURVE",
"297 545 CURVE SMOOTH",
"272 546 LINE",
"242 545 LINE SMOOTH",
"201 544 OFFCURVE",
"172.667 531.667 OFFCURVE",
"166 493 CURVE",
"144 301 LINE",
"113 114 LINE SMOOTH",
"106 71 OFFCURVE",
"124.667 49 OFFCURVE",
"166 49 CURVE SMOOTH",
"171.333 49 OFFCURVE",
"176 49 OFFCURVE",
"181 48.5 CURVE SMOOTH",
"193 48 LINE"
);
}
);
userData = {
assembly = "PUSHW[ ]	/* 1 value pushed */\01280 \012MDAP[1]	/* MoveDirectAbsPt */\012PUSHW[ ]	/* 1 value pushed */\01232 \012MDAP[1]	/* MoveDirectAbsPt */\012PUSHW[ ]	/* 1 value pushed */\01280 \012SRP0[ ]	/* SetRefPoint0 */\012PUSHW[ ]	/* 1 value pushed */\0125 \012MDRP[10000]	/* MoveDirectRelPt */\012PUSHW[ ]	/* 1 value pushed */\0125 \012MDAP[1]	/* MoveDirectAbsPt */\012PUSHW[ ]	/* 2 values pushed */\0120 5 \012MIRP[10100]	/* MoveIndirectRelPt */\012PUSHW[ ]	/* 1 value pushed */\01232 \012SRP0[ ]	/* SetRefPoint0 */\012PUSHW[ ]	/* 2 values pushed */\01213 5 \012MIRP[10100]	/* MoveIndirectRelPt */\012PUSHW[ ]	/* 1 value pushed */\0120 \012SRP0[ ]	/* SetRefPoint0 */\012PUSHW[ ]	/* 1 value pushed */\01227 \012MDRP[10000]	/* MoveDirectRelPt */\012PUSHW[ ]	/* 1 value pushed */\01227 \012MDAP[1]	/* MoveDirectAbsPt */\012PUSHW[ ]	/* 1 value pushed */\01232 \012SRP0[ ]	/* SetRefPoint0 */\012PUSHW[ ]	/* 1 value pushed */\01249 \012MDRP[10000]	/* MoveDirectRelPt */\012PUSHW[ ]	/* 1 value pushed */\0120 \012SRP0[ ]	/* SetRefPoint0 */\012PUSHW[ ]	/* 1 value pushed */\01254 \012MDRP[10000]	/* MoveDirectRelPt */\012PUSHW[ ]	/* 1 value pushed */\01254 \012MDAP[1]	/* MoveDirectAbsPt */\012PUSHW[ ]	/* 1 value pushed */\01232 \012SRP0[ ]	/* SetRefPoint0 */\012PUSHW[ ]	/* 1 value pushed */\01269 \012MDRP[10000]	/* MoveDirectRelPt */\012PUSHW[ ]	/* 1 value pushed */\01269 \012MDAP[1]	/* MoveDirectAbsPt */\012PUSHW[ ]	/* 1 value pushed */\0120 \012SRP0[ ]	/* SetRefPoint0 */\012PUSHW[ ]	/* 1 value pushed */\01277 \012MDRP[10000]	/* MoveDirectRelPt */\012PUSHW[ ]	/* 1 value pushed */\01277 \012MDAP[1]	/* MoveDirectAbsPt */\012PUSHW[ ]	/* 1 value pushed */\01213 \012SRP0[ ]	/* SetRefPoint0 */\012PUSHW[ ]	/* 1 value pushed */\01281 \012MDRP[11100]	/* MoveDirectRelPt */\012IUP[0]	/* InterpolateUntPts */\012IUP[1]	/* InterpolateUntPts */";
};
width = 397;
}
);
note = O;
unicode = 004F;
},
{
glyphname = Oslash;
lastChange = "2021-11-26 08:21:41 +0000";
layers = (
{
anchors = (
{
name = bottom;
position = "{164, 0}";
},
{
name = top;
position = "{282, 591}";
}
);
layerId = "DE28931B-8CFB-452E-AAB2-BC9BAE33C973";
paths = (
{
closed = 1;
nodes = (
"50 -44 LINE",
"84 9 LINE",
"112 -7 OFFCURVE",
"149.333 -12 OFFCURVE",
"196 -12 CURVE SMOOTH",
"316.217 -12 OFFCURVE",
"376 24 OFFCURVE",
"397 174 CURVE SMOOTH",
"438 465 LINE SMOOTH",
"443 497 OFFCURVE",
"439.667 522 OFFCURVE",
"429 542 CURVE",
"486 630 LINE",
"418 630 LINE",
"386 581 LINE",
"360.667 593.667 OFFCURVE",
"326 600 OFFCURVE",
"282 600 CURVE SMOOTH",
"174.577 600 OFFCURVE",
"95 565 OFFCURVE",
"81 465 CURVE SMOOTH",
"40 173 LINE SMOOTH",
"33 121 OFFCURVE",
"35.333 81.333 OFFCURVE",
"46 54 CURVE",
"-17 -44 LINE"
);
},
{
closed = 1;
nodes = (
"203.667 80 OFFCURVE",
"200 82.167 OFFCURVE",
"198 86.5 CURVE SMOOTH",
"196 90.833 OFFCURVE",
"195 99 OFFCURVE",
"197 110 CURVE SMOOTH",
"213 224 LINE",
"254 287 LINE",
"229 110 LINE SMOOTH",
"227 99 OFFCURVE",
"225.167 90.833 OFFCURVE",
"221.5 86.5 CURVE SMOOTH",
"217.833 82.167 OFFCURVE",
"213.667 80 OFFCURVE",
"209 80 CURVE SMOOTH"
);
},
{
closed = 1;
nodes = (
"248 473 LINE SMOOTH",
"251 496 OFFCURVE",
"257.333 503 OFFCURVE",
"268 503 CURVE SMOOTH",
"272.667 503 OFFCURVE",
"276.167 500.833 OFFCURVE",
"278.5 496.5 CURVE SMOOTH",
"280.833 492.167 OFFCURVE",
"282 484 OFFCURVE",
"280 473 CURVE SMOOTH",
"267 380 LINE",
"226 317 LINE"
);
},
{
closed = 1;
nodes = (
"123.333 45 OFFCURVE",
"104 70 OFFCURVE",
"109 114 CURVE SMOOTH",
"131 300 LINE",
"162 493 LINE SMOOTH",
"169 534 OFFCURVE",
"199 550 OFFCURVE",
"242 549 CURVE SMOOTH",
"272 548 LINE",
"297 549 LINE SMOOTH",
"340 551 OFFCURVE",
"366 535 OFFCURVE",
"361 493 CURVE SMOOTH",
"338 300 LINE",
"308 114 LINE SMOOTH",
"301 70 OFFCURVE",
"275.667 45 OFFCURVE",
"233 45 CURVE SMOOTH",
"209 45 LINE SMOOTH",
"206.333 45 OFFCURVE",
"204 45.333 OFFCURVE",
"202 46 CURVE",
"199.333 45.333 OFFCURVE",
"196.333 45 OFFCURVE",
"193 45 CURVE SMOOTH",
"166 45 LINE SMOOTH"
);
},
{
closed = 1;
nodes = (
"209 48 LINE SMOOTH",
"211.667 48 OFFCURVE",
"215 48 OFFCURVE",
"218.5 48.5 CURVE SMOOTH",
"233 49 LINE SMOOTH",
"274 50 OFFCURVE",
"299 71 OFFCURVE",
"304 114 CURVE SMOOTH",
"325 301 LINE",
"357 493 LINE SMOOTH",
"363 532 OFFCURVE",
"338 543 OFFCURVE",
"297 545 CURVE SMOOTH",
"272 546 LINE",
"242 545 LINE SMOOTH",
"201 544 OFFCURVE",
"172.667 531.667 OFFCURVE",
"166 493 CURVE",
"144 301 LINE",
"113 114 LINE SMOOTH",
"106 71 OFFCURVE",
"124.667 49 OFFCURVE",
"166 49 CURVE SMOOTH",
"171.333 49 OFFCURVE",
"176 49 OFFCURVE",
"181 48.5 CURVE SMOOTH",
"193 48 LINE"
);
}
);
userData = {
assembly = "SVTCA[0]	/* SetFreedomAndProjectionVectorToAxis */\012PUSHW[ ]	/* 3 values pushed */\01217 4 3 \012CALL[ ]	/* CallFunction */\012PUSHW[ ]	/* 3 values pushed */\01232 4 17 \012SRP1[ ]	/* SetRefPoint1 */\012SRP2[ ]	/* SetRefPoint2 */\012IP[ ]	/* InterpolatePts */\012PUSHW[ ]	/* 3 values pushed */\01237 4 17 \012SRP1[ ]	/* SetRefPoint1 */\012SRP2[ ]	/* SetRefPoint2 */\012IP[ ]	/* InterpolatePts */\012IUP[0]	/* InterpolateUntPts */\012IUP[1]	/* InterpolateUntPts */";
};
width = 397;
}
);
note = Oslash;
unicode = 00D8;
},
{
glyphname = OE;
lastChange = "2021-11-26 08:23:25 +0000";
layers = (
{
layerId = "DE28931B-8CFB-452E-AAB2-BC9BAE33C973";
paths = (
{
closed = 1;
nodes = (
"226.667 -12 OFFCURVE",
"256.667 -9.333 OFFCURVE",
"282 0 CURVE",
"487 0 LINE",
"502 108 LINE",
"382 108 LINE",
"401 240 LINE",
"511 240 LINE",
"528 365 LINE",
"418 365 LINE",
"435 480 LINE",
"555 480 LINE",
"570 591 LINE",
"355 591 LINE",
"333.667 597 OFFCURVE",
"308 600 OFFCURVE",
"278 600 CURVE SMOOTH",
"168.667 600 OFFCURVE",
"91 564 OFFCURVE",
"77 465 CURVE SMOOTH",
"36 173 LINE SMOOTH",
"15 25 OFFCURVE",
"71.487 -12 OFFCURVE",
"192 -12 CURVE SMOOTH"
);
},
{
closed = 1;
nodes = (
"198.667 80 OFFCURVE",
"195 82.167 OFFCURVE",
"193 86.5 CURVE SMOOTH",
"191 90.833 OFFCURVE",
"191 99 OFFCURVE",
"193 110 CURVE SMOOTH",
"244 473 LINE SMOOTH",
"247 496 OFFCURVE",
"253.333 503 OFFCURVE",
"264 503 CURVE SMOOTH",
"268.667 503 OFFCURVE",
"272.167 500.833 OFFCURVE",
"274.5 496.5 CURVE SMOOTH",
"276.833 492.167 OFFCURVE",
"278 484 OFFCURVE",
"276 473 CURVE SMOOTH",
"225 110 LINE SMOOTH",
"223 99 OFFCURVE",
"220.167 90.833 OFFCURVE",
"216.5 86.5 CURVE SMOOTH",
"212.833 82.167 OFFCURVE",
"208.667 80 OFFCURVE",
"204 80 CURVE SMOOTH"
);
},
{
closed = 1;
nodes = (
"335 300 LINE",
"372 536 LINE",
"537 535 LINE",
"536 533 LINE",
"376 532 LINE",
"348 302 LINE",
"479 301 LINE",
"479 299 LINE",
"347 298 LINE",
"310 59 LINE",
"470 58 LINE",
"469 56 LINE",
"304 55 LINE"
);
},
{
closed = 1;
nodes = (
"202 46 LINE",
"199.333 45.333 OFFCURVE",
"196.333 45 OFFCURVE",
"193 45 CURVE SMOOTH",
"166 45 LINE SMOOTH",
"123.333 45 OFFCURVE",
"104 70 OFFCURVE",
"109 114 CURVE SMOOTH",
"131 300 LINE",
"162 493 LINE SMOOTH",
"169 534 OFFCURVE",
"199 550 OFFCURVE",
"242 549 CURVE SMOOTH",
"272 548 LINE",
"272 546 LINE",
"242 545 LINE SMOOTH",
"201 544 OFFCURVE",
"173 532 OFFCURVE",
"166 493 CURVE",
"144 301 LINE",
"113 114 LINE SMOOTH",
"106 71 OFFCURVE",
"125 49 OFFCURVE",
"166 49 CURVE SMOOTH",
"171 49 OFFCURVE",
"176 49 OFFCURVE",
"181 49 CURVE SMOOTH",
"193 48 LINE"
);
}
);
userData = {
assembly = "PUSHW[ ]	/* 4 values pushed */\01218 5 35 4 \012CALL[ ]	/* CallFunction */\012PUSHW[ ]	/* 1 value pushed */\01218 \012SRP0[ ]	/* SetRefPoint0 */\012PUSHW[ ]	/* 1 value pushed */\01240 \012MDRP[11100]	/* MoveDirectRelPt */\012SVTCA[0]	/* SetFreedomAndProjectionVectorToAxis */\012PUSHW[ ]	/* 1 value pushed */\0120 \012RCVT[ ]	/* ReadCVT */\012IF[ ]	/* If */\012PUSHW[ ]	/* 1 value pushed */\01211 \012MDAP[1]	/* MoveDirectAbsPt */\012ELSE[ ]	/* Else */\012PUSHW[ ]	/* 2 values pushed */\01211 13 \012MIAP[0]	/* MoveIndirectAbsPt */\012EIF[ ]	/* EndIf */\012PUSHW[ ]	/* 1 value pushed */\0120 \012RCVT[ ]	/* ReadCVT */\012IF[ ]	/* If */\012PUSHW[ ]	/* 1 value pushed */\01221 \012MDAP[1]	/* MoveDirectAbsPt */\012ELSE[ ]	/* Else */\012PUSHW[ ]	/* 2 values pushed */\01221 7 \012MIAP[0]	/* MoveIndirectAbsPt */\012EIF[ ]	/* EndIf */\012PUSHW[ ]	/* 2 values pushed */\01219 4 \012MIRP[10100]	/* MoveIndirectRelPt */\012PUSHW[ ]	/* 1 value pushed */\01211 \012SRP0[ ]	/* SetRefPoint0 */\012PUSHW[ ]	/* 2 values pushed */\01232 1 \012MIRP[10100]	/* MoveIndirectRelPt */\012NPUSHW[ ]	/* 5 values pushed */\012121 32 137 32 2 \012DELTAP1[ ]	/* DeltaExceptionP1 */\012NPUSHW[ ]	/* 15 values pushed */\0128 32 24 32 40 32 56 32 72 32 88 32 104 32 7 \012DELTAP1[ ]	/* DeltaExceptionP1 */\012IUP[0]	/* InterpolateUntPts */\012IUP[1]	/* InterpolateUntPts */";
};
width = 506;
}
);
note = OE;
unicode = 0152;
},
{
glyphname = P;
lastChange = "2021-11-26 08:21:41 +0000";
layers = (
{
layerId = "DE28931B-8CFB-452E-AAB2-BC9BAE33C973";
paths = (
{
closed = 1;
nodes = (
"181 0 LINE",
"212 224 LINE",
"286 224 LINE SMOOTH",
"376.999 224 OFFCURVE",
"412.997 299.579 OFFCURVE",
"427 392 CURVE SMOOTH",
"440 490 LINE SMOOTH",
"449.333 550 OFFCURVE",
"418 591 OFFCURVE",
"330 591 CURVE SMOOTH",
"98 591 LINE",
"15 0 LINE"
);
},
{
closed = 1;
nodes = (
"134 300 LINE",
"173 547 LINE",
"177 547 LINE",
"147 300 LINE",
"106 47 LINE",
"102 47 LINE"
);
},
{
closed = 1;
nodes = (
"252 507 LINE",
"267 507 LINE SMOOTH",
"276.333 507 OFFCURVE",
"280.667 499.667 OFFCURVE",
"280 485 CURVE SMOOTH",
"279.333 470.333 OFFCURVE",
"276.333 444.667 OFFCURVE",
"271 408 CURVE SMOOTH",
"265.667 371.333 OFFCURVE",
"260.333 345.833 OFFCURVE",
"255 331.5 CURVE SMOOTH",
"249.667 317.167 OFFCURVE",
"243.333 310 OFFCURVE",
"236 310 CURVE SMOOTH",
"224 310 LINE"
);
},
{
closed = 1;
nodes = (
"221 268 LINE",
"261 269 LINE SMOOTH",
"318.334 269 OFFCURVE",
"335.906 350.55 OFFCURVE",
"344 418 CURVE SMOOTH",
"354.785 501.587 OFFCURVE",
"365.677 545 OFFCURVE",
"290 545 CURVE SMOOTH",
"258 546 LINE",
"259 548 LINE",
"291 549 LINE",
"373.029 546.437 OFFCURVE",
"367.609 498.46 OFFCURVE",
"356 423 CURVE SMOOTH",
"343.5 343 OFFCURVE",
"321.411 266 OFFCURVE",
"261 266 CURVE SMOOTH",
"221 266 LINE"
);
}
);
userData = {
assembly = "SVTCA[0]	/* SetFreedomAndProjectionVectorToAxis */\012PUSHW[ ]	/* 1 value pushed */\0120 \012RCVT[ ]	/* ReadCVT */\012IF[ ]	/* If */\012PUSHW[ ]	/* 1 value pushed */\01212 \012MDAP[1]	/* MoveDirectAbsPt */\012ELSE[ ]	/* Else */\012PUSHW[ ]	/* 2 values pushed */\01212 7 \012MIAP[0]	/* MoveIndirectAbsPt */\012EIF[ ]	/* EndIf */\012IUP[0]	/* InterpolateUntPts */\012IUP[1]	/* InterpolateUntPts */";
};
width = 402;
}
);
note = P;
unicode = 0050;
},
{
glyphname = Thorn;
lastChange = "2021-11-26 08:21:41 +0000";
layers = (
{
layerId = "DE28931B-8CFB-452E-AAB2-BC9BAE33C973";
paths = (
{
closed = 1;
nodes = (
"181 0 LINE",
"198 127 LINE",
"272 127 LINE SMOOTH",
"362.999 127 OFFCURVE",
"398.997 202.579 OFFCURVE",
"413 295 CURVE SMOOTH",
"427 393 LINE SMOOTH",
"435 453 OFFCURVE",
"404 494 OFFCURVE",
"316 494 CURVE SMOOTH",
"251 494 LINE",
"265 591 LINE",
"98 591 LINE",
"15 0 LINE"
);
},
{
closed = 1;
nodes = (
"130 279 LINE",
"174 565 LINE",
"178 565 LINE",
"143 279 LINE",
"102 21 LINE",
"98 21 LINE"
);
},
{
closed = 1;
nodes = (
"238 410 LINE",
"253 410 LINE SMOOTH",
"262.333 410 OFFCURVE",
"266.667 402.667 OFFCURVE",
"266 388 CURVE SMOOTH",
"265.333 373.333 OFFCURVE",
"262.333 347.667 OFFCURVE",
"257 311 CURVE SMOOTH",
"251.667 274.333 OFFCURVE",
"246.333 248.833 OFFCURVE",
"241 234.5 CURVE SMOOTH",
"235.667 220.167 OFFCURVE",
"229.333 213 OFFCURVE",
"222 213 CURVE SMOOTH",
"210 213 LINE"
);
},
{
closed = 1;
nodes = (
"273 187 LINE",
"298.333 187 OFFCURVE",
"311 206.333 OFFCURVE",
"319 257 CURVE SMOOTH",
"335 374 LINE SMOOTH",
"341.667 420.667 OFFCURVE",
"331.667 448 OFFCURVE",
"289 448 CURVE",
"290 450 LINE",
"336.667 450 OFFCURVE",
"351.667 423.333 OFFCURVE",
"345 374 CURVE SMOOTH",
"329 257 LINE SMOOTH",
"321 203.667 OFFCURVE",
"299.667 185 OFFCURVE",
"273 185 CURVE"
);
}
);
userData = {
assembly = "SVTCA[0]	/* SetFreedomAndProjectionVectorToAxis */\012PUSHW[ ]	/* 1 value pushed */\0120 \012RCVT[ ]	/* ReadCVT */\012IF[ ]	/* If */\012PUSHW[ ]	/* 1 value pushed */\01214 \012MDAP[1]	/* MoveDirectAbsPt */\012ELSE[ ]	/* Else */\012PUSHW[ ]	/* 2 values pushed */\01214 7 \012MIAP[0]	/* MoveIndirectAbsPt */\012EIF[ ]	/* EndIf */\012IUP[0]	/* InterpolateUntPts */\012IUP[1]	/* InterpolateUntPts */";
};
width = 398;
}
);
note = Thorn;
unicode = 00DE;
},
{
glyphname = Q;
lastChange = "2021-11-26 08:21:41 +0000";
layers = (
{
layerId = "DE28931B-8CFB-452E-AAB2-BC9BAE33C973";
paths = (
{
closed = 1;
nodes = (
"367 -68 LINE",
"328 20 LINE",
"362.667 46.667 OFFCURVE",
"386.333 92.667 OFFCURVE",
"397 174 CURVE SMOOTH",
"438 465 LINE SMOOTH",
"451.333 563.667 OFFCURVE",
"391.333 600 OFFCURVE",
"282 600 CURVE SMOOTH",
"174.577 600 OFFCURVE",
"94.477 564.731 OFFCURVE",
"81 465 CURVE SMOOTH",
"40 173 LINE SMOOTH",
"20.137 24.029 OFFCURVE",
"75.035 -12 OFFCURVE",
"196 -12 CURVE SMOOTH",
"203 -12 LINE",
"255 -129 LINE"
);
},
{
closed = 1;
nodes = (
"203.667 80 OFFCURVE",
"200 82.167 OFFCURVE",
"198 86.5 CURVE SMOOTH",
"196 90.833 OFFCURVE",
"195.667 98.667 OFFCURVE",
"197 110 CURVE SMOOTH",
"248 473 LINE SMOOTH",
"250.667 495.667 OFFCURVE",
"257.333 503 OFFCURVE",
"268 503 CURVE SMOOTH",
"272.667 503 OFFCURVE",
"276.167 500.833 OFFCURVE",
"278.5 496.5 CURVE SMOOTH",
"280.833 492.167 OFFCURVE",
"281.333 484.333 OFFCURVE",
"280 473 CURVE SMOOTH",
"229 110 LINE SMOOTH",
"227.667 98.667 OFFCURVE",
"225.167 90.833 OFFCURVE",
"221.5 86.5 CURVE SMOOTH",
"217.833 82.167 OFFCURVE",
"213.667 80 OFFCURVE",
"209 80 CURVE SMOOTH"
);
},
{
closed = 1;
nodes = (
"125.333 45 OFFCURVE",
"105.333 70 OFFCURVE",
"112 114 CURVE SMOOTH",
"134 300 LINE",
"165 493 LINE SMOOTH",
"171.667 534.333 OFFCURVE",
"202.333 549 OFFCURVE",
"245 549 CURVE SMOOTH",
"275 548 LINE",
"300 549 LINE SMOOTH",
"342.667 549 OFFCURVE",
"370.667 534.333 OFFCURVE",
"364 493 CURVE SMOOTH",
"341 300 LINE",
"311 114 LINE SMOOTH",
"304.333 70 OFFCURVE",
"277.667 45 OFFCURVE",
"235 45 CURVE SMOOTH",
"211 45 LINE SMOOTH",
"208.333 45 OFFCURVE",
"206 45.333 OFFCURVE",
"204 46 CURVE",
"201.333 45.333 OFFCURVE",
"198.333 45 OFFCURVE",
"195 45 CURVE SMOOTH",
"168 45 LINE SMOOTH"
);
},
{
closed = 1;
nodes = (
"211 48 LINE SMOOTH",
"213.667 48 OFFCURVE",
"217 48.167 OFFCURVE",
"221 48.5 CURVE SMOOTH",
"236 49 LINE SMOOTH",
"277.333 49 OFFCURVE",
"301 70.667 OFFCURVE",
"307 114 CURVE SMOOTH",
"328 301 LINE",
"360 493 LINE SMOOTH",
"365.333 531.667 OFFCURVE",
"340.333 545 OFFCURVE",
"299 545 CURVE SMOOTH",
"274 546 LINE",
"244 545 LINE SMOOTH",
"202.667 545 OFFCURVE",
"174.333 531.667 OFFCURVE",
"169 493 CURVE SMOOTH",
"147 301 LINE",
"116 114 LINE SMOOTH",
"110 70.667 OFFCURVE",
"127.667 49 OFFCURVE",
"169 49 CURVE SMOOTH",
"174.333 49 OFFCURVE",
"179.167 48.833 OFFCURVE",
"183.5 48.5 CURVE SMOOTH",
"195 48 LINE"
);
}
);
width = 408;
}
);
note = Q;
unicode = 0051;
},
{
glyphname = R;
lastChange = "2021-11-26 08:21:41 +0000";
layers = (
{
anchors = (
{
name = bottom;
position = "{199, 0}";
},
{
name = top;
position = "{260, 591}";
}
);
layerId = "DE28931B-8CFB-452E-AAB2-BC9BAE33C973";
paths = (
{
closed = 1;
nodes = (
"181 0 LINE",
"217 262 LINE",
"232 0 LINE",
"409 0 LINE",
"384 215 LINE",
"374.187 261.614 OFFCURVE",
"356.684 274.813 OFFCURVE",
"328 278 CURVE",
"396 295.333 OFFCURVE",
"421 344 OFFCURVE",
"428 400 CURVE SMOOTH",
"440 490 LINE SMOOTH",
"448 550 OFFCURVE",
"418 591 OFFCURVE",
"330 591 CURVE SMOOTH",
"98 591 LINE",
"15 0 LINE"
);
},
{
closed = 1;
nodes = (
"134 300 LINE",
"173 547 LINE",
"177 547 LINE",
"147 300 LINE",
"106 47 LINE",
"102 47 LINE"
);
},
{
closed = 1;
nodes = (
"303.51 106.916 OFFCURVE",
"306.36 234.42 OFFCURVE",
"273 265 CURVE",
"274 265 LINE",
"310.789 233.466 OFFCURVE",
"313.334 86.665 OFFCURVE",
"319 47 CURVE",
"311 47 LINE"
);
},
{
closed = 1;
nodes = (
"252 507 LINE",
"267 507 LINE SMOOTH",
"276.333 507 OFFCURVE",
"280.667 499.667 OFFCURVE",
"280 485 CURVE SMOOTH",
"279.333 470.333 OFFCURVE",
"276.333 444.667 OFFCURVE",
"271 408 CURVE SMOOTH",
"262.64 351.568 OFFCURVE",
"255.656 320 OFFCURVE",
"237 320 CURVE SMOOTH",
"225 320 LINE"
);
},
{
closed = 1;
nodes = (
"246 292 LINE",
"268 293 LINE SMOOTH",
"328 296 OFFCURVE",
"345.332 380.21 OFFCURVE",
"354 438 CURVE SMOOTH",
"364.179 516.891 OFFCURVE",
"361 543 OFFCURVE",
"297 545 CURVE SMOOTH",
"265 546 LINE",
"266 548 LINE",
"298 549 LINE SMOOTH",
"361 551 OFFCURVE",
"377 523.333 OFFCURVE",
"365 438 CURVE SMOOTH",
"354.555 367.499 OFFCURVE",
"328.32 290 OFFCURVE",
"267 290 CURVE SMOOTH",
"245 290 LINE"
);
}
);
userData = {
assembly = "SVTCA[0]	/* SetFreedomAndProjectionVectorToAxis */\012PUSHW[ ]	/* 1 value pushed */\0120 \012RCVT[ ]	/* ReadCVT */\012IF[ ]	/* If */\012PUSHW[ ]	/* 1 value pushed */\01226 \012MDAP[1]	/* MoveDirectAbsPt */\012ELSE[ ]	/* Else */\012PUSHW[ ]	/* 2 values pushed */\01226 7 \012MIAP[0]	/* MoveIndirectAbsPt */\012EIF[ ]	/* EndIf */\012PUSHW[ ]	/* 1 value pushed */\0120 \012RCVT[ ]	/* ReadCVT */\012IF[ ]	/* If */\012PUSHW[ ]	/* 1 value pushed */\01229 \012MDAP[1]	/* MoveDirectAbsPt */\012ELSE[ ]	/* Else */\012PUSHW[ ]	/* 2 values pushed */\01229 7 \012MIAP[0]	/* MoveIndirectAbsPt */\012EIF[ ]	/* EndIf */\012IUP[0]	/* InterpolateUntPts */\012IUP[1]	/* InterpolateUntPts */";
};
width = 424;
}
);
note = R;
rightKerningGroup = parenright;
unicode = 0052;
},
{
glyphname = S;
lastChange = "2021-11-26 08:21:41 +0000";
layers = (
{
anchors = (
{
name = bottom;
position = "{202, 0}";
},
{
name = top;
position = "{284, 591}";
}
);
layerId = "DE28931B-8CFB-452E-AAB2-BC9BAE33C973";
paths = (
{
closed = 1;
nodes = (
"315.557 -8 OFFCURVE",
"395.064 40.326 OFFCURVE",
"413 171 CURVE SMOOTH",
"428.013 283.596 OFFCURVE",
"402.266 310.058 OFFCURVE",
"312 345 CURVE SMOOTH",
"264.345 364.062 OFFCURVE",
"234.223 369.972 OFFCURVE",
"242 427 CURVE SMOOTH",
"246 456.333 OFFCURVE",
"251.667 481 OFFCURVE",
"269 481 CURVE SMOOTH",
"279.667 481 OFFCURVE",
"284.833 474.167 OFFCURVE",
"284.5 460.5 CURVE SMOOTH",
"284.167 446.833 OFFCURVE",
"284 426 OFFCURVE",
"279 399 CURVE SMOOTH",
"276 383 LINE",
"435 383 LINE",
"445 449 LINE SMOOTH",
"460 545 OFFCURVE",
"403.667 593 OFFCURVE",
"283 593 CURVE SMOOTH",
"145.8 593 OFFCURVE",
"95.011 549.647 OFFCURVE",
"76 422 CURVE SMOOTH",
"63.106 334.317 OFFCURVE",
"75.28 279.101 OFFCURVE",
"147 246 CURVE SMOOTH",
"221.238 211.532 OFFCURVE",
"247.15 201.199 OFFCURVE",
"239 136 CURVE SMOOTH",
"235.667 112.667 OFFCURVE",
"232 97.667 OFFCURVE",
"228 91 CURVE SMOOTH",
"224 84.333 OFFCURVE",
"218.333 81 OFFCURVE",
"211 81 CURVE SMOOTH",
"192.988 81 OFFCURVE",
"193 98 OFFCURVE",
"199 144 CURVE SMOOTH",
"205 188 LINE",
"38 188 LINE",
"35 169 LINE SMOOTH",
"13 31 OFFCURVE",
"69.873 -8 OFFCURVE",
"193 -8 CURVE SMOOTH"
);
},
{
closed = 1;
nodes = (
"193.333 39 OFFCURVE",
"172 40.667 OFFCURVE",
"164 42 CURVE SMOOTH",
"113.333 50 OFFCURVE",
"100.333 81 OFFCURVE",
"115 161 CURVE",
"118 161 LINE",
"107.333 85 OFFCURVE",
"118.333 54.333 OFFCURVE",
"165 45 CURVE SMOOTH",
"174.333 42.333 OFFCURVE",
"193.333 41 OFFCURVE",
"204 41 CURVE SMOOTH",
"218.667 41 OFFCURVE",
"239.333 43.333 OFFCURVE",
"250 46 CURVE SMOOTH",
"294 55.333 OFFCURVE",
"310.333 88 OFFCURVE",
"321 160 CURVE SMOOTH",
"330.333 221.333 OFFCURVE",
"319 252 OFFCURVE",
"270 275 CURVE SMOOTH",
"242 288 LINE",
"214 300 LINE SMOOTH",
"165 321 OFFCURVE",
"144.333 361.667 OFFCURVE",
"153 421 CURVE SMOOTH",
"163.667 493 OFFCURVE",
"189 523.667 OFFCURVE",
"241 533 CURVE SMOOTH",
"251 535 OFFCURVE",
"263.333 536 OFFCURVE",
"278 536 CURVE SMOOTH",
"288.667 536 OFFCURVE",
"299.667 535.333 OFFCURVE",
"309 534 CURVE SMOOTH",
"362.333 526 OFFCURVE",
"376.667 497 OFFCURVE",
"362 421 CURVE",
"359 421 LINE",
"369.667 491.667 OFFCURVE",
"356 523 OFFCURVE",
"308 531 CURVE SMOOTH",
"300 533 OFFCURVE",
"290 534 OFFCURVE",
"278 534 CURVE SMOOTH",
"264.667 534 OFFCURVE",
"250.667 532.667 OFFCURVE",
"240 530 CURVE SMOOTH",
"193.333 520.667 OFFCURVE",
"175.333 489 OFFCURVE",
"166 421 CURVE SMOOTH",
"158 363.667 OFFCURVE",
"168 329 OFFCURVE",
"216 304 CURVE SMOOTH",
"243 290 LINE",
"273 279 LINE SMOOTH",
"323 261 OFFCURVE",
"342.333 224 OFFCURVE",
"333 160 CURVE SMOOTH",
"322.333 84 OFFCURVE",
"299 53.667 OFFCURVE",
"251 43 CURVE SMOOTH",
"239 40.333 OFFCURVE",
"218.667 39 OFFCURVE",
"204 39 CURVE SMOOTH"
);
}
);
userData = {
assembly = "PUSHW[ ]	/* 4 values pushed */\01218 5 15 4 \012CALL[ ]	/* CallFunction */\012PUSHW[ ]	/* 3 values pushed */\01288 15 18 \012SRP1[ ]	/* SetRefPoint1 */\012SRP2[ ]	/* SetRefPoint2 */\012IP[ ]	/* InterpolatePts */\012SVTCA[0]	/* SetFreedomAndProjectionVectorToAxis */\012PUSHW[ ]	/* 1 value pushed */\0120 \012RCVT[ ]	/* ReadCVT */\012IF[ ]	/* If */\012PUSHW[ ]	/* 1 value pushed */\01241 \012MDAP[1]	/* MoveDirectAbsPt */\012ELSE[ ]	/* Else */\012PUSHW[ ]	/* 2 values pushed */\01241 13 \012MIAP[0]	/* MoveIndirectAbsPt */\012EIF[ ]	/* EndIf */\012PUSHW[ ]	/* 1 value pushed */\0120 \012RCVT[ ]	/* ReadCVT */\012IF[ ]	/* If */\012PUSHW[ ]	/* 1 value pushed */\01210 \012MDAP[1]	/* MoveDirectAbsPt */\012ELSE[ ]	/* Else */\012PUSHW[ ]	/* 2 values pushed */\01210 7 \012MIAP[0]	/* MoveIndirectAbsPt */\012EIF[ ]	/* EndIf */\012PUSHW[ ]	/* 2 values pushed */\01223 1 \012MIRP[10100]	/* MoveIndirectRelPt */\012NPUSHW[ ]	/* 15 values pushed */\0127 23 23 23 39 23 55 23 71 23 87 23 103 23 7 \012DELTAP1[ ]	/* DeltaExceptionP1 */\012NPUSHW[ ]	/* 5 values pushed */\012118 23 134 23 2 \012DELTAP1[ ]	/* DeltaExceptionP1 */\012PUSHW[ ]	/* 1 value pushed */\01241 \012SRP0[ ]	/* SetRefPoint0 */\012PUSHW[ ]	/* 2 values pushed */\01249 4 \012MIRP[10100]	/* MoveIndirectRelPt */\012NPUSHW[ ]	/* 9 values pushed */\0128 49 24 49 40 49 56 49 4 \012DELTAP1[ ]	/* DeltaExceptionP1 */\012PUSHW[ ]	/* 3 values pushed */\01288 10 41 \012SRP1[ ]	/* SetRefPoint1 */\012SRP2[ ]	/* SetRefPoint2 */\012IP[ ]	/* InterpolatePts */\012IUP[0]	/* InterpolateUntPts */\012IUP[1]	/* InterpolateUntPts */";
};
width = 421;
}
);
leftKerningGroup = S;
note = S;
unicode = 0053;
},
{
glyphname = Germandbls;
lastChange = "2021-11-26 08:21:41 +0000";
layers = (
{
layerId = "DE28931B-8CFB-452E-AAB2-BC9BAE33C973";
paths = (
{
closed = 1;
nodes = (
"165 -116 LINE",
"250 498 LINE SMOOTH",
"255 536 OFFCURVE",
"265 558 OFFCURVE",
"302 558 CURVE SMOOTH",
"346 558 OFFCURVE",
"343 538 OFFCURVE",
"336 483 CURVE SMOOTH",
"329 435 LINE SMOOTH",
"323 396 OFFCURVE",
"316 373 OFFCURVE",
"294 373 CURVE SMOOTH",
"257 373 LINE",
"245 293 LINE",
"263 293 LINE SMOOTH",
"308 293 OFFCURVE",
"305 270 OFFCURVE",
"300 239 CURVE SMOOTH",
"293 186 LINE SMOOTH",
"280 94 OFFCURVE",
"275 78 OFFCURVE",
"238 78 CURVE SMOOTH",
"218 78 LINE",
"207 0 LINE",
"251 0 LINE SMOOTH",
"364 0 OFFCURVE",
"442 16 OFFCURVE",
"457 121 CURVE SMOOTH",
"474 244 LINE SMOOTH",
"482 303 OFFCURVE",
"432 334 OFFCURVE",
"384 338 CURVE",
"385 342 LINE",
"427 345 OFFCURVE",
"475 382 OFFCURVE",
"483 438 CURVE SMOOTH",
"497 533 LINE SMOOTH",
"507 606 OFFCURVE",
"439 631 OFFCURVE",
"310 631 CURVE SMOOTH",
"143 631 OFFCURVE",
"107 597 OFFCURVE",
"97 522 CURVE",
"8 -116 LINE"
);
},
{
closed = 1;
nodes = (
"133 271 LINE",
"173 520 LINE SMOOTH",
"179 555 OFFCURVE",
"203 591 OFFCURVE",
"246 591 CURVE",
"245 589 LINE",
"211 586 OFFCURVE",
"185 564 OFFCURVE",
"178 517 CURVE",
"146 271 LINE",
"105 14 LINE",
"98 14 LINE"
);
},
{
closed = 1;
nodes = (
"411 405 OFFCURVE",
"401 359 OFFCURVE",
"350 359 CURVE",
"350 361 LINE",
"397 361 OFFCURVE",
"402 403 OFFCURVE",
"413 479 CURVE SMOOTH",
"425 566 OFFCURVE",
"422 584 OFFCURVE",
"356 586 CURVE SMOOTH",
"324 587 LINE",
"324 589 LINE",
"356 589 LINE SMOOTH",
"426 589 OFFCURVE",
"434 570 OFFCURVE",
"421 479 CURVE SMOOTH"
);
},
{
closed = 1;
nodes = (
"394 307 OFFCURVE",
"390 261 OFFCURVE",
"380 187 CURVE SMOOTH",
"365 77 OFFCURVE",
"349 38 OFFCURVE",
"280 40 CURVE SMOOTH",
"248 41 LINE",
"248 43 LINE",
"280 44 LINE SMOOTH",
"346 46 OFFCURVE",
"357 81 OFFCURVE",
"372 187 CURVE SMOOTH",
"383 263 OFFCURVE",
"390 305 OFFCURVE",
"343 305 CURVE",
"343 307 LINE"
);
}
);
width = 500;
}
);
unicode = 1E9E;
},
{
glyphname = Schwa;
lastChange = "2021-11-26 08:21:41 +0000";
layers = (
{
layerId = "DE28931B-8CFB-452E-AAB2-BC9BAE33C973";
paths = (
{
closed = 1;
nodes = (
"123 603 OFFCURVE",
"63 567 OFFCURVE",
"42 417 CURVE SMOOTH",
"34 362 LINE",
"193 362 LINE",
"210 481 LINE SMOOTH",
"211 492 OFFCURVE",
"213 500 OFFCURVE",
"217 504 CURVE SMOOTH",
"221 509 OFFCURVE",
"225 511 OFFCURVE",
"230 511 CURVE SMOOTH",
"235 511 OFFCURVE",
"239 509 OFFCURVE",
"241 504 CURVE SMOOTH",
"243 500 OFFCURVE",
"243 492 OFFCURVE",
"242 481 CURVE SMOOTH",
"191 118 LINE SMOOTH",
"189 107 OFFCURVE",
"187 99 OFFCURVE",
"184 94 CURVE SMOOTH",
"180 90 OFFCURVE",
"176 88 OFFCURVE",
"171 88 CURVE SMOOTH",
"166 88 OFFCURVE",
"162 90 OFFCURVE",
"160 94 CURVE SMOOTH",
"157 99 OFFCURVE",
"157 107 OFFCURVE",
"159 118 CURVE SMOOTH",
"170 195 LINE",
"220 195 LINE",
"232 283 LINE",
"23 283 LINE",
"1 126 LINE SMOOTH",
"-13 27 OFFCURVE",
"48 -9 OFFCURVE",
"157 -9 CURVE SMOOTH",
"266 -9 OFFCURVE",
"344 27 OFFCURVE",
"358 126 CURVE SMOOTH",
"399 418 LINE SMOOTH",
"420 567 OFFCURVE",
"364 603 OFFCURVE",
"243 603 CURVE SMOOTH"
);
},
{
closed = 1;
nodes = (
"252 547 OFFCURVE",
"267 547 OFFCURVE",
"278 543 CURVE SMOOTH",
"312 532 OFFCURVE",
"323 503 OFFCURVE",
"315 435 CURVE SMOOTH",
"301 297 LINE",
"272 125 LINE SMOOTH",
"265 82 OFFCURVE",
"246 55 OFFCURVE",
"204 46 CURVE SMOOTH",
"194 43 OFFCURVE",
"179 43 OFFCURVE",
"164 43 CURVE SMOOTH",
"143 43 LINE SMOOTH",
"136 43 OFFCURVE",
"132 44 OFFCURVE",
"128 45 CURVE SMOOTH",
"86 56 OFFCURVE",
"72 81 OFFCURVE",
"78 118 CURVE SMOOTH",
"98 245 LINE",
"100 245 LINE",
"83 118 LINE SMOOTH",
"78 83 OFFCURVE",
"91 58 OFFCURVE",
"129 49 CURVE SMOOTH",
"140 46 OFFCURVE",
"150 45 OFFCURVE",
"165 45 CURVE SMOOTH",
"179 45 OFFCURVE",
"192 47 OFFCURVE",
"204 50 CURVE SMOOTH",
"245 59 OFFCURVE",
"263 85 OFFCURVE",
"268 125 CURVE SMOOTH",
"288 297 LINE",
"311 435 LINE SMOOTH",
"322 499 OFFCURVE",
"309 528 OFFCURVE",
"276 539 CURVE SMOOTH",
"264 543 OFFCURVE",
"251 545 OFFCURVE",
"235 545 CURVE SMOOTH",
"220 545 OFFCURVE",
"205 543 OFFCURVE",
"194 539 CURVE SMOOTH",
"153 527 OFFCURVE",
"136 499 OFFCURVE",
"126 435 CURVE SMOOTH",
"118 385 LINE",
"116 385 LINE",
"121 435 LINE SMOOTH",
"128 504 OFFCURVE",
"151 531 OFFCURVE",
"192 543 CURVE SMOOTH",
"205 547 OFFCURVE",
"219 547 OFFCURVE",
"235 547 CURVE SMOOTH"
);
}
);
width = 402;
}
);
unicode = 018F;
},
{
glyphname = T;
lastChange = "2021-11-26 08:21:41 +0000";
layers = (
{
anchors = (
{
name = bottom;
position = "{168, 0}";
},
{
name = center;
position = "{213, 353}";
},
{
name = top;
position = "{249, 591}";
}
);
layerId = "DE28931B-8CFB-452E-AAB2-BC9BAE33C973";
paths = (
{
closed = 1;
nodes = (
"244 0 LINE",
"311 480 LINE",
"396 480 LINE",
"412 591 LINE",
"83 591 LINE",
"67 480 LINE",
"152 480 LINE",
"85 0 LINE"
);
},
{
closed = 1;
nodes = (
"199 300 LINE",
"236 536 LINE",
"128 538 LINE",
"128 540 LINE",
"240 542 LINE",
"356 540 LINE",
"356 538 LINE",
"241 536 LINE",
"212 300 LINE",
"172 47 LINE",
"167 47 LINE"
);
}
);
userData = {
assembly = "SVTCA[0]	/* SetFreedomAndProjectionVectorToAxis */\012PUSHW[ ]	/* 1 value pushed */\0120 \012RCVT[ ]	/* ReadCVT */\012IF[ ]	/* If */\012PUSHW[ ]	/* 1 value pushed */\01212 \012MDAP[1]	/* MoveDirectAbsPt */\012ELSE[ ]	/* Else */\012PUSHW[ ]	/* 2 values pushed */\01212 7 \012MIAP[0]	/* MoveIndirectAbsPt */\012EIF[ ]	/* EndIf */\012IUP[0]	/* InterpolateUntPts */\012IUP[1]	/* InterpolateUntPts */";
};
width = 349;
}
);
note = T;
unicode = 0054;
},
{
glyphname = U;
lastChange = "2021-11-26 08:21:41 +0000";
layers = (
{
anchors = (
{
name = bottom;
position = "{192, 0}";
},
{
name = ogonek;
position = "{258, 0}";
},
{
name = top;
position = "{277, 591}";
},
{
name = topright;
position = "{320, 591}";
}
);
layerId = "DE28931B-8CFB-452E-AAB2-BC9BAE33C973";
paths = (
{
closed = 1;
nodes = (
"309.05 -12 OFFCURVE",
"370 15 OFFCURVE",
"391 164 CURVE SMOOTH",
"451 591 LINE",
"292 591 LINE",
"225 115 LINE SMOOTH",
"222 92 OFFCURVE",
"214.667 85 OFFCURVE",
"204 85 CURVE SMOOTH",
"198.667 85 OFFCURVE",
"194.833 87.167 OFFCURVE",
"192.5 91.5 CURVE SMOOTH",
"190.167 95.833 OFFCURVE",
"189 104 OFFCURVE",
"191 115 CURVE SMOOTH",
"258 591 LINE",
"99 591 LINE",
"39 163 LINE SMOOTH",
"18 15 OFFCURVE",
"70.357 -12 OFFCURVE",
"191 -12 CURVE SMOOTH"
);
},
{
closed = 1;
nodes = (
"124.333 45 OFFCURVE",
"105 70 OFFCURVE",
"110 114 CURVE SMOOTH",
"130 300 LINE",
"171 547 LINE",
"175 547 LINE",
"144 301 LINE",
"114 114 LINE SMOOTH",
"107 71 OFFCURVE",
"125.667 49 OFFCURVE",
"167 49 CURVE SMOOTH",
"172.333 49 OFFCURVE",
"177 49 OFFCURVE",
"182 48.5 CURVE SMOOTH",
"194 48 LINE",
"210 48 LINE SMOOTH",
"212.667 48 OFFCURVE",
"216 48 OFFCURVE",
"219.5 48.5 CURVE SMOOTH",
"234 49 LINE SMOOTH",
"275 50 OFFCURVE",
"300 71 OFFCURVE",
"305 114 CURVE SMOOTH",
"327 301 LINE",
"366 547 LINE",
"370 547 LINE",
"341 300 LINE",
"309 114 LINE SMOOTH",
"301 70 OFFCURVE",
"276.667 45 OFFCURVE",
"234 45 CURVE SMOOTH",
"210 45 LINE SMOOTH",
"207.333 45 OFFCURVE",
"205 45.333 OFFCURVE",
"203 46 CURVE",
"200.333 45.333 OFFCURVE",
"197.333 45 OFFCURVE",
"194 45 CURVE SMOOTH",
"167 45 LINE SMOOTH"
);
}
);
userData = {
assembly = "PUSHW[ ]	/* 4 values pushed */\0121 5 26 4 \012CALL[ ]	/* CallFunction */\012PUSHW[ ]	/* 1 value pushed */\0121 \012SRP0[ ]	/* SetRefPoint0 */\012PUSHW[ ]	/* 1 value pushed */\01257 \012MDRP[11100]	/* MoveDirectRelPt */\012IUP[0]	/* InterpolateUntPts */\012IUP[1]	/* InterpolateUntPts */";
};
width = 409;
}
);
note = U;
unicode = 0055;
},
{
glyphname = V;
lastChange = "2021-11-26 08:21:41 +0000";
layers = (
{
layerId = "DE28931B-8CFB-452E-AAB2-BC9BAE33C973";
paths = (
{
closed = 1;
nodes = (
"310 0 LINE",
"481 591 LINE",
"322 591 LINE",
"219 157 LINE",
"243 591 LINE",
"78 591 LINE",
"81 0 LINE"
);
},
{
closed = 1;
nodes = (
"148 312 LINE",
"154 547 LINE",
"158 547 LINE",
"161 313 LINE",
"160 51 LINE",
"205 50 LINE",
"251 51 LINE",
"321 314 LINE",
"385 547 LINE",
"389 547 LINE",
"334 314 LINE",
"254 47 LINE",
"204 49 LINE",
"155 47 LINE"
);
}
);
userData = {
assembly = "SVTCA[0]	/* SetFreedomAndProjectionVectorToAxis */\012PUSHW[ ]	/* 1 value pushed */\0120 \012RCVT[ ]	/* ReadCVT */\012IF[ ]	/* If */\012PUSHW[ ]	/* 1 value pushed */\0122 \012MDAP[1]	/* MoveDirectAbsPt */\012ELSE[ ]	/* Else */\012PUSHW[ ]	/* 2 values pushed */\0122 7 \012MIAP[0]	/* MoveIndirectAbsPt */\012EIF[ ]	/* EndIf */\012IUP[0]	/* InterpolateUntPts */\012IUP[1]	/* InterpolateUntPts */";
};
width = 413;
}
);
note = V;
unicode = 0056;
},
{
glyphname = W;
lastChange = "2021-11-26 08:21:41 +0000";
layers = (
{
anchors = (
{
name = bottom;
position = "{316, 0}";
},
{
name = top;
position = "{392, 591}";
}
);
layerId = "DE28931B-8CFB-452E-AAB2-BC9BAE33C973";
paths = (
{
closed = 1;
nodes = (
"272 0 LINE",
"346 258 LINE",
"349 0 LINE",
"535 0 LINE",
"704 591 LINE",
"539 591 LINE",
"443 200 LINE",
"460 591 LINE",
"327 591 LINE",
"234 200 LINE",
"248 591 LINE",
"83 591 LINE",
"86 0 LINE"
);
},
{
closed = 1;
nodes = (
"158 294 LINE",
"158 547 LINE",
"162 547 LINE",
"169 297 LINE",
"168 47 LINE",
"166 47 LINE"
);
},
{
closed = 1;
nodes = (
"255 125 LINE SMOOTH",
"262 148 OFFCURVE",
"270 175 OFFCURVE",
"279 204.5 CURVE SMOOTH",
"306 295 LINE SMOOTH",
"320 343 OFFCURVE",
"344.071 413.122 OFFCURVE",
"356.5 451 CURVE SMOOTH",
"367.785 485.393 OFFCURVE",
"381 531 OFFCURVE",
"381 525 CURVE SMOOTH",
"385 453 LINE SMOOTH",
"387 410 OFFCURVE",
"390.333 352.667 OFFCURVE",
"393 294 CURVE SMOOTH",
"394.333 263.333 OFFCURVE",
"395 233 OFFCURVE",
"395.5 204 CURVE SMOOTH",
"397 125 LINE SMOOTH",
"398 98 OFFCURVE",
"398 71.667 OFFCURVE",
"398 47 CURVE",
"396 47 LINE",
"383 293 LINE",
"379 511 LINE",
"373 489 OFFCURVE",
"367 466 OFFCURVE",
"360 442 CURVE SMOOTH",
"340 372.5 LINE SMOOTH",
"333 347 OFFCURVE",
"324.667 320.667 OFFCURVE",
"316 294 CURVE SMOOTH",
"297.333 234 OFFCURVE",
"277 172 OFFCURVE",
"261 125 CURVE SMOOTH",
"234 47 LINE",
"232 47 LINE"
);
},
{
closed = 1;
nodes = (
"531 297 LINE",
"608 547 LINE",
"612 547 LINE",
"542 294 LINE",
"464 47 LINE",
"462 47 LINE"
);
}
);
userData = {
assembly = "SVTCA[0]	/* SetFreedomAndProjectionVectorToAxis */\012PUSHW[ ]	/* 1 value pushed */\0120 \012RCVT[ ]	/* ReadCVT */\012IF[ ]	/* If */\012PUSHW[ ]	/* 1 value pushed */\0123 \012MDAP[1]	/* MoveDirectAbsPt */\012ELSE[ ]	/* Else */\012PUSHW[ ]	/* 2 values pushed */\0123 7 \012MIAP[0]	/* MoveIndirectAbsPt */\012EIF[ ]	/* EndIf */\012PUSHW[ ]	/* 1 value pushed */\0120 \012RCVT[ ]	/* ReadCVT */\012IF[ ]	/* If */\012PUSHW[ ]	/* 1 value pushed */\0126 \012MDAP[1]	/* MoveDirectAbsPt */\012ELSE[ ]	/* Else */\012PUSHW[ ]	/* 2 values pushed */\0126 7 \012MIAP[0]	/* MoveIndirectAbsPt */\012EIF[ ]	/* EndIf */\012IUP[0]	/* InterpolateUntPts */\012IUP[1]	/* InterpolateUntPts */";
};
width = 641;
}
);
note = W;
unicode = 0057;
},
{
glyphname = X;
lastChange = "2021-11-26 08:21:41 +0000";
layers = (
{
layerId = "DE28931B-8CFB-452E-AAB2-BC9BAE33C973";
paths = (
{
closed = 1;
nodes = (
"174 0 LINE",
"224 154 LINE",
"238 0 LINE",
"397 0 LINE",
"365 307 LINE",
"482 591 LINE",
"313 591 LINE",
"262 436 LINE",
"249 591 LINE",
"90 591 LINE",
"129 307 LINE",
"5 0 LINE"
);
},
{
closed = 1;
nodes = (
"209 307 LINE",
"209 311.108 OFFCURVE",
"193.265 397.727 OFFCURVE",
"189 429 CURVE SMOOTH",
"171 547 LINE",
"174 547 LINE",
"217 310 LINE",
"245 308 LINE",
"274 310 LINE",
"383 547 LINE",
"386 547 LINE",
"367.333 503 OFFCURVE",
"350.333 463.667 OFFCURVE",
"335 429 CURVE SMOOTH",
"322.724 401.992 OFFCURVE",
"282 308.263 OFFCURVE",
"282 307 CURVE SMOOTH",
"311 47 LINE",
"308 47 LINE",
"272 305 LINE",
"245 307 LINE",
"216 305 LINE",
"109 47 LINE",
"106 47 LINE"
);
}
);
userData = {
assembly = "SVTCA[0]	/* SetFreedomAndProjectionVectorToAxis */\012PUSHW[ ]	/* 1 value pushed */\0120 \012RCVT[ ]	/* ReadCVT */\012IF[ ]	/* If */\012PUSHW[ ]	/* 1 value pushed */\01228 \012MDAP[1]	/* MoveDirectAbsPt */\012ELSE[ ]	/* Else */\012PUSHW[ ]	/* 2 values pushed */\01228 7 \012MIAP[0]	/* MoveIndirectAbsPt */\012EIF[ ]	/* EndIf */\012PUSHW[ ]	/* 1 value pushed */\0120 \012RCVT[ ]	/* ReadCVT */\012IF[ ]	/* If */\012PUSHW[ ]	/* 1 value pushed */\01237 \012MDAP[1]	/* MoveDirectAbsPt */\012ELSE[ ]	/* Else */\012PUSHW[ ]	/* 2 values pushed */\01237 7 \012MIAP[0]	/* MoveIndirectAbsPt */\012EIF[ ]	/* EndIf */\012IUP[0]	/* InterpolateUntPts */\012IUP[1]	/* InterpolateUntPts */";
};
width = 424;
}
);
note = X;
unicode = 0058;
},
{
glyphname = Y;
lastChange = "2021-11-26 08:21:41 +0000";
layers = (
{
anchors = (
{
name = bottom;
position = "{192, 0}";
},
{
name = top;
position = "{281, 591}";
},
{
name = topleft;
position = "{68, 591}";
}
);
layerId = "DE28931B-8CFB-452E-AAB2-BC9BAE33C973";
paths = (
{
closed = 1;
nodes = (
"270 0 LINE",
"303 236 LINE",
"467 591 LINE",
"323 591 LINE",
"272 467 LINE",
"256 415 LINE",
"254 467 LINE",
"240 591 LINE",
"83 591 LINE",
"145 245 LINE",
"111 0 LINE"
);
},
{
closed = 1;
nodes = (
"219 238 LINE SMOOTH",
"219 242 OFFCURVE",
"198.075 359.766 OFFCURVE",
"192 395 CURVE SMOOTH",
"184.667 439.667 OFFCURVE",
"175.667 490.333 OFFCURVE",
"165 547 CURVE",
"168 547 LINE",
"227 252 LINE",
"370 547 LINE",
"373 547 LINE",
"303 395 LINE SMOOTH",
"285 356 OFFCURVE",
"231 242.078 OFFCURVE",
"231 238 CURVE",
"199 47 LINE",
"197 47 LINE"
);
}
);
userData = {
assembly = "SVTCA[0]	/* SetFreedomAndProjectionVectorToAxis */\012PUSHW[ ]	/* 1 value pushed */\0120 \012RCVT[ ]	/* ReadCVT */\012IF[ ]	/* If */\012PUSHW[ ]	/* 1 value pushed */\0122 \012MDAP[1]	/* MoveDirectAbsPt */\012ELSE[ ]	/* Else */\012PUSHW[ ]	/* 2 values pushed */\0122 7 \012MIAP[0]	/* MoveIndirectAbsPt */\012EIF[ ]	/* EndIf */\012IUP[0]	/* InterpolateUntPts */\012IUP[1]	/* InterpolateUntPts */";
};
width = 404;
}
);
leftKerningGroup = Y;
note = Y;
rightKerningGroup = Y;
unicode = 0059;
},
{
glyphname = Z;
lastChange = "2021-11-26 08:21:41 +0000";
layers = (
{
anchors = (
{
name = bottom;
position = "{140, 0}";
},
{
name = center;
position = "{161, 296}";
},
{
name = top;
position = "{237, 591}";
}
);
layerId = "DE28931B-8CFB-452E-AAB2-BC9BAE33C973";
paths = (
{
closed = 1;
nodes = (
"288 0 LINE",
"303 111 LINE",
"188 111 LINE",
"360 516 LINE",
"371 591 LINE",
"93 591 LINE",
"77 480 LINE",
"174 480 LINE",
"13 98 LINE",
"0 0 LINE"
);
},
{
closed = 1;
nodes = (
"176 307 LINE",
"276 535 LINE",
"132 536 LINE",
"132 538 LINE",
"281 540 LINE",
"188 304 LINE",
"78 55 LINE",
"243 54 LINE",
"243 52 LINE",
"73 50 LINE"
);
}
);
userData = {
assembly = "SVTCA[0]	/* SetFreedomAndProjectionVectorToAxis */\012PUSHW[ ]	/* 1 value pushed */\0120 \012RCVT[ ]	/* ReadCVT */\012IF[ ]	/* If */\012PUSHW[ ]	/* 1 value pushed */\01210 \012MDAP[1]	/* MoveDirectAbsPt */\012ELSE[ ]	/* Else */\012PUSHW[ ]	/* 2 values pushed */\01210 7 \012MIAP[0]	/* MoveIndirectAbsPt */\012EIF[ ]	/* EndIf */\012PUSHW[ ]	/* 2 values pushed */\01217 4 \012MIRP[10100]	/* MoveIndirectRelPt */\012PUSHW[ ]	/* 3 values pushed */\0126 10 17 \012SRP1[ ]	/* SetRefPoint1 */\012SRP2[ ]	/* SetRefPoint2 */\012IP[ ]	/* InterpolatePts */\012PUSHW[ ]	/* 3 values pushed */\0128 10 17 \012SRP1[ ]	/* SetRefPoint1 */\012SRP2[ ]	/* SetRefPoint2 */\012IP[ ]	/* InterpolatePts */\012PUSHW[ ]	/* 3 values pushed */\0129 10 17 \012SRP1[ ]	/* SetRefPoint1 */\012SRP2[ ]	/* SetRefPoint2 */\012IP[ ]	/* InterpolatePts */\012IUP[0]	/* InterpolateUntPts */\012IUP[1]	/* InterpolateUntPts */";
};
width = 308;
}
);
leftKerningGroup = Z;
note = Z;
rightKerningGroup = Z;
unicode = 005A;
},
{
glyphname = a;
lastChange = "2021-11-26 08:21:41 +0000";
layers = (
{
anchors = (
{
name = bottom;
position = "{170, 0}";
},
{
name = ogonek;
position = "{347, 0}";
},
{
name = top;
position = "{269, 495}";
}
);
layerId = "DE28931B-8CFB-452E-AAB2-BC9BAE33C973";
paths = (
{
closed = 1;
nodes = (
"191.483 -7 OFFCURVE",
"214.452 20.065 OFFCURVE",
"236 47 CURVE",
"229 0 LINE",
"350 0 LINE",
"420 494 LINE",
"264 494 LINE",
"260 460 LINE",
"250.667 478.667 OFFCURVE",
"233.333 500 OFFCURVE",
"180 500 CURVE SMOOTH",
"130.37 500 OFFCURVE",
"72 477 OFFCURVE",
"60 391 CURVE SMOOTH",
"26 154 LINE SMOOTH",
"7 19 OFFCURVE",
"50.029 -7 OFFCURVE",
"141 -7 CURVE SMOOTH"
);
},
{
closed = 1;
nodes = (
"116.354 33 OFFCURVE",
"87 61 OFFCURVE",
"92 103 CURVE SMOOTH",
"109 245 LINE",
"131 383 LINE SMOOTH",
"139 433 OFFCURVE",
"177.333 457 OFFCURVE",
"224 457 CURVE",
"224 455 LINE",
"188.491 455 OFFCURVE",
"143.628 428.415 OFFCURVE",
"141 389 CURVE",
"123 245 LINE",
"100 102 LINE SMOOTH",
"93 59 OFFCURVE",
"121.667 35 OFFCURVE",
"147 35 CURVE",
"147 33 LINE"
);
},
{
closed = 1;
nodes = (
"182.667 80 OFFCURVE",
"178.833 82.167 OFFCURVE",
"176.5 86.5 CURVE SMOOTH",
"174.167 90.833 OFFCURVE",
"173 99 OFFCURVE",
"175 110 CURVE SMOOTH",
"214 378 LINE SMOOTH",
"217 401 OFFCURVE",
"224.333 408 OFFCURVE",
"235 408 CURVE SMOOTH",
"239 408 OFFCURVE",
"243 407 OFFCURVE",
"247 406 CURVE SMOOTH",
"252 405 LINE",
"209 110 LINE SMOOTH",
"206 87 OFFCURVE",
"198.667 80 OFFCURVE",
"188 80 CURVE SMOOTH"
);
},
{
closed = 1;
nodes = (
"296 240 LINE",
"328 429 LINE",
"332 429 LINE",
"309 240 LINE",
"277 47 LINE",
"273 47 LINE"
);
}
);
userData = {
assembly = "SVTCA[0]	/* SetFreedomAndProjectionVectorToAxis */\012PUSHW[ ]	/* 1 value pushed */\0120 \012RCVT[ ]	/* ReadCVT */\012IF[ ]	/* If */\012PUSHW[ ]	/* 1 value pushed */\01217 \012MDAP[1]	/* MoveDirectAbsPt */\012ELSE[ ]	/* Else */\012PUSHW[ ]	/* 2 values pushed */\01217 11 \012MIAP[0]	/* MoveIndirectAbsPt */\012EIF[ ]	/* EndIf */\012PUSHW[ ]	/* 1 value pushed */\0120 \012RCVT[ ]	/* ReadCVT */\012IF[ ]	/* If */\012PUSHW[ ]	/* 1 value pushed */\01221 \012MDAP[1]	/* MoveDirectAbsPt */\012ELSE[ ]	/* Else */\012PUSHW[ ]	/* 2 values pushed */\01221 11 \012MIAP[0]	/* MoveIndirectAbsPt */\012EIF[ ]	/* EndIf */\012PUSHW[ ]	/* 1 value pushed */\0120 \012RCVT[ ]	/* ReadCVT */\012IF[ ]	/* If */\012PUSHW[ ]	/* 1 value pushed */\0126 \012MDAP[1]	/* MoveDirectAbsPt */\012ELSE[ ]	/* Else */\012PUSHW[ ]	/* 2 values pushed */\0126 7 \012MIAP[0]	/* MoveIndirectAbsPt */\012EIF[ ]	/* EndIf */\012PUSHW[ ]	/* 1 value pushed */\0120 \012RCVT[ ]	/* ReadCVT */\012IF[ ]	/* If */\012PUSHW[ ]	/* 1 value pushed */\01223 \012MDAP[1]	/* MoveDirectAbsPt */\012ELSE[ ]	/* Else */\012PUSHW[ ]	/* 2 values pushed */\01223 7 \012MIAP[0]	/* MoveIndirectAbsPt */\012EIF[ ]	/* EndIf */\012PUSHW[ ]	/* 1 value pushed */\0126 \012SRP0[ ]	/* SetRefPoint0 */\012PUSHW[ ]	/* 2 values pushed */\01230 1 \012MIRP[10100]	/* MoveIndirectRelPt */\012NPUSHW[ ]	/* 15 values pushed */\0127 30 23 30 39 30 55 30 71 30 87 30 103 30 7 \012DELTAP1[ ]	/* DeltaExceptionP1 */\012NPUSHW[ ]	/* 5 values pushed */\012118 30 134 30 2 \012DELTAP1[ ]	/* DeltaExceptionP1 */\012PUSHW[ ]	/* 3 values pushed */\0122 6 30 \012SRP1[ ]	/* SetRefPoint1 */\012SRP2[ ]	/* SetRefPoint2 */\012IP[ ]	/* InterpolatePts */\012PUSHW[ ]	/* 1 value pushed */\01221 \012SRP0[ ]	/* SetRefPoint0 */\012PUSHW[ ]	/* 2 values pushed */\01238 1 \012MIRP[10100]	/* MoveIndirectRelPt */\012NPUSHW[ ]	/* 5 values pushed */\012121 38 137 38 2 \012DELTAP1[ ]	/* DeltaExceptionP1 */\012NPUSHW[ ]	/* 15 values pushed */\0128 38 24 38 40 38 56 38 72 38 88 38 104 38 7 \012DELTAP1[ ]	/* DeltaExceptionP1 */\012PUSHW[ ]	/* 3 values pushed */\0125 21 38 \012SRP1[ ]	/* SetRefPoint1 */\012SRP2[ ]	/* SetRefPoint2 */\012IP[ ]	/* InterpolatePts */\012PUSHW[ ]	/* 3 values pushed */\01225 6 30 \012SRP1[ ]	/* SetRefPoint1 */\012SRP2[ ]	/* SetRefPoint2 */\012IP[ ]	/* InterpolatePts */\012PUSHW[ ]	/* 3 values pushed */\01256 6 30 \012SRP1[ ]	/* SetRefPoint1 */\012SRP2[ ]	/* SetRefPoint2 */\012IP[ ]	/* InterpolatePts */\012IUP[0]	/* InterpolateUntPts */\012IUP[1]	/* InterpolateUntPts */";
};
width = 384;
}
);
leftKerningGroup = a;
note = a;
rightKerningGroup = a;
unicode = 0061;
},
{
glyphname = ae;
lastChange = "2021-11-26 08:21:41 +0000";
layers = (
{
anchors = (
{
name = bottom;
position = "{251, 0}";
},
{
name = top;
position = "{353, 494}";
}
);
layerId = "DE28931B-8CFB-452E-AAB2-BC9BAE33C973";
paths = (
{
closed = 1;
nodes = (
"486.628 -12 OFFCURVE",
"544 18 OFFCURVE",
"565 167 CURVE SMOOTH",
"568 188 LINE",
"412 188 LINE",
"399 98 LINE SMOOTH",
"396 75 OFFCURVE",
"388.667 68 OFFCURVE",
"378 68 CURVE SMOOTH",
"367.333 68 OFFCURVE",
"362 75 OFFCURVE",
"365 98 CURVE SMOOTH",
"383 224 LINE",
"418.333 224.667 OFFCURVE",
"450.667 230.333 OFFCURVE",
"480 241 CURVE SMOOTH",
"533.931 260.869 OFFCURVE",
"583.982 300.37 OFFCURVE",
"594 373 CURVE SMOOTH",
"607.342 471.732 OFFCURVE",
"549.232 503 OFFCURVE",
"439 503 CURVE SMOOTH",
"406.333 503 OFFCURVE",
"377.667 500 OFFCURVE",
"353 494 CURVE",
"264 494 LINE",
"260 460 LINE",
"250.667 478.667 OFFCURVE",
"233.333 500 OFFCURVE",
"180 500 CURVE SMOOTH",
"130.37 500 OFFCURVE",
"72 477 OFFCURVE",
"60 391 CURVE SMOOTH",
"26 154 LINE SMOOTH",
"7 19 OFFCURVE",
"50.029 -7 OFFCURVE",
"141 -7 CURVE SMOOTH",
"189 -7 OFFCURVE",
"215.667 19.667 OFFCURVE",
"229 37 CURVE",
"230.333 35.667 OFFCURVE",
"231 34 OFFCURVE",
"231.5 33.5 CURVE SMOOTH",
"233 30 LINE",
"229 0 LINE",
"273 0 LINE",
"298.333 -10.667 OFFCURVE",
"330.667 -12 OFFCURVE",
"368 -12 CURVE SMOOTH"
);
},
{
closed = 1;
nodes = (
"116.354 33 OFFCURVE",
"87 61 OFFCURVE",
"92 103 CURVE SMOOTH",
"109 245 LINE",
"131 383 LINE SMOOTH",
"139 433 OFFCURVE",
"177.333 457 OFFCURVE",
"224 457 CURVE",
"224 455 LINE",
"188.491 455 OFFCURVE",
"143.628 428.415 OFFCURVE",
"141 389 CURVE",
"123 245 LINE",
"100 102 LINE SMOOTH",
"93 59 OFFCURVE",
"121.667 35 OFFCURVE",
"147 35 CURVE",
"147 33 LINE"
);
},
{
closed = 1;
nodes = (
"182.667 80 OFFCURVE",
"178.833 82.167 OFFCURVE",
"176.5 86.5 CURVE SMOOTH",
"174.167 90.833 OFFCURVE",
"173 99 OFFCURVE",
"175 110 CURVE SMOOTH",
"214 378 LINE SMOOTH",
"217 401 OFFCURVE",
"224.333 408 OFFCURVE",
"235 408 CURVE SMOOTH",
"239 408 OFFCURVE",
"243 407 OFFCURVE",
"247 406 CURVE SMOOTH",
"252 405 LINE",
"209 110 LINE SMOOTH",
"206 87 OFFCURVE",
"198.667 80 OFFCURVE",
"188 80 CURVE SMOOTH"
);
},
{
closed = 1;
nodes = (
"392 35 LINE",
"438.667 35 OFFCURVE",
"469 72 OFFCURVE",
"475 113 CURVE SMOOTH",
"481 157 LINE",
"489 157 LINE",
"483 113 LINE SMOOTH",
"477 69 OFFCURVE",
"440 33 OFFCURVE",
"392 33 CURVE"
);
},
{
closed = 1;
nodes = (
"305.534 33 OFFCURVE",
"276 61 OFFCURVE",
"281 103 CURVE SMOOTH",
"299 245 LINE",
"321 383 LINE SMOOTH",
"329 432 OFFCURVE",
"367.333 457 OFFCURVE",
"414 457 CURVE",
"414 455 LINE",
"375.943 455 OFFCURVE",
"335 429 OFFCURVE",
"330 389 CURVE SMOOTH",
"313 245 LINE",
"290 102 LINE SMOOTH",
"283 59 OFFCURVE",
"310.667 35 OFFCURVE",
"336 35 CURVE",
"336 33 LINE"
);
},
{
closed = 1;
nodes = (
"407 393 LINE SMOOTH",
"410 416 OFFCURVE",
"417.333 423 OFFCURVE",
"428 423 CURVE SMOOTH",
"433.333 423 OFFCURVE",
"437.167 420.833 OFFCURVE",
"439.5 416.5 CURVE SMOOTH",
"441.833 412.167 OFFCURVE",
"442.333 404.333 OFFCURVE",
"441 393 CURVE SMOOTH",
"434.333 349 OFFCURVE",
"423.667 325 OFFCURVE",
"413 313 CURVE SMOOTH",
"407 305.667 OFFCURVE",
"400.667 301.333 OFFCURVE",
"394 300 CURVE"
);
},
{
closed = 1;
nodes = (
"418 268 LINE",
"462.677 268 OFFCURVE",
"499.001 336.005 OFFCURVE",
"506 364 CURVE SMOOTH",
"520.667 424 OFFCURVE",
"507.667 456 OFFCURVE",
"461 456 CURVE",
"461 458 LINE",
"510.333 458 OFFCURVE",
"528 426.333 OFFCURVE",
"514 363 CURVE SMOOTH",
"503.56 318.628 OFFCURVE",
"459.791 265 OFFCURVE",
"417 265 CURVE"
);
}
);
userData = {
assembly = "PUSHW[ ]	/* 4 values pushed */\01247 5 14 4 \012CALL[ ]	/* CallFunction */\012PUSHW[ ]	/* 3 values pushed */\0126 14 47 \012SRP1[ ]	/* SetRefPoint1 */\012SRP2[ ]	/* SetRefPoint2 */\012IP[ ]	/* InterpolatePts */\012PUSHW[ ]	/* 1 value pushed */\0126 \012MDAP[1]	/* MoveDirectAbsPt */\012PUSHW[ ]	/* 1 value pushed */\01214 \012SRP0[ ]	/* SetRefPoint0 */\012PUSHW[ ]	/* 1 value pushed */\01210 \012MDRP[10000]	/* MoveDirectRelPt */\012PUSHW[ ]	/* 3 values pushed */\01231 14 47 \012SRP1[ ]	/* SetRefPoint1 */\012SRP2[ ]	/* SetRefPoint2 */\012IP[ ]	/* InterpolatePts */\012PUSHW[ ]	/* 1 value pushed */\0126 \012SRP0[ ]	/* SetRefPoint0 */\012PUSHW[ ]	/* 1 value pushed */\01248 \012MDRP[10000]	/* MoveDirectRelPt */\012PUSHW[ ]	/* 1 value pushed */\01248 \012MDAP[1]	/* MoveDirectAbsPt */\012PUSHW[ ]	/* 1 value pushed */\0126 \012SRP0[ ]	/* SetRefPoint0 */\012PUSHW[ ]	/* 2 values pushed */\01267 5 \012MIRP[10100]	/* MoveIndirectRelPt */\012PUSHW[ ]	/* 1 value pushed */\01259 \012MDRP[10000]	/* MoveDirectRelPt */\012PUSHW[ ]	/* 1 value pushed */\01259 \012MDAP[1]	/* MoveDirectAbsPt */\012PUSHW[ ]	/* 3 values pushed */\012116 14 47 \012SRP1[ ]	/* SetRefPoint1 */\012SRP2[ ]	/* SetRefPoint2 */\012IP[ ]	/* InterpolatePts */\012SVTCA[0]	/* SetFreedomAndProjectionVectorToAxis */\012PUSHW[ ]	/* 1 value pushed */\0120 \012RCVT[ ]	/* ReadCVT */\012IF[ ]	/* If */\012PUSHW[ ]	/* 1 value pushed */\01228 \012MDAP[1]	/* MoveDirectAbsPt */\012ELSE[ ]	/* Else */\012PUSHW[ ]	/* 2 values pushed */\01228 11 \012MIAP[0]	/* MoveIndirectAbsPt */\012EIF[ ]	/* EndIf */\012PUSHW[ ]	/* 1 value pushed */\0120 \012RCVT[ ]	/* ReadCVT */\012IF[ ]	/* If */\012PUSHW[ ]	/* 1 value pushed */\01232 \012MDAP[1]	/* MoveDirectAbsPt */\012ELSE[ ]	/* Else */\012PUSHW[ ]	/* 2 values pushed */\01232 11 \012MIAP[0]	/* MoveIndirectAbsPt */\012EIF[ ]	/* EndIf */\012PUSHW[ ]	/* 1 value pushed */\0120 \012RCVT[ ]	/* ReadCVT */\012IF[ ]	/* If */\012PUSHW[ ]	/* 1 value pushed */\01235 \012MDAP[1]	/* MoveDirectAbsPt */\012ELSE[ ]	/* Else */\012PUSHW[ ]	/* 2 values pushed */\01235 11 \012MIAP[0]	/* MoveIndirectAbsPt */\012EIF[ ]	/* EndIf */\012PUSHW[ ]	/* 1 value pushed */\0120 \012RCVT[ ]	/* ReadCVT */\012IF[ ]	/* If */\012PUSHW[ ]	/* 1 value pushed */\0129 \012MDAP[1]	/* MoveDirectAbsPt */\012ELSE[ ]	/* Else */\012PUSHW[ ]	/* 2 values pushed */\0129 7 \012MIAP[0]	/* MoveIndirectAbsPt */\012EIF[ ]	/* EndIf */\012PUSHW[ ]	/* 1 value pushed */\0120 \012RCVT[ ]	/* ReadCVT */\012IF[ ]	/* If */\012PUSHW[ ]	/* 1 value pushed */\01217 \012MDAP[1]	/* MoveDirectAbsPt */\012ELSE[ ]	/* Else */\012PUSHW[ ]	/* 2 values pushed */\01217 7 \012MIAP[0]	/* MoveIndirectAbsPt */\012EIF[ ]	/* EndIf */\012PUSHW[ ]	/* 1 value pushed */\0120 \012RCVT[ ]	/* ReadCVT */\012IF[ ]	/* If */\012PUSHW[ ]	/* 1 value pushed */\0126 \012MDAP[1]	/* MoveDirectAbsPt */\012ELSE[ ]	/* Else */\012PUSHW[ ]	/* 2 values pushed */\0126 7 \012MIAP[0]	/* MoveIndirectAbsPt */\012EIF[ ]	/* EndIf */\012PUSHW[ ]	/* 1 value pushed */\01217 \012SRP0[ ]	/* SetRefPoint0 */\012PUSHW[ ]	/* 2 values pushed */\01256 1 \012MIRP[10100]	/* MoveIndirectRelPt */\012NPUSHW[ ]	/* 15 values pushed */\0127 56 23 56 39 56 55 56 71 56 87 56 103 56 7 \012DELTAP1[ ]	/* DeltaExceptionP1 */\012NPUSHW[ ]	/* 5 values pushed */\012118 56 134 56 2 \012DELTAP1[ ]	/* DeltaExceptionP1 */\012PUSHW[ ]	/* 3 values pushed */\01214 17 56 \012SRP1[ ]	/* SetRefPoint1 */\012SRP2[ ]	/* SetRefPoint2 */\012IP[ ]	/* InterpolatePts */\012PUSHW[ ]	/* 1 value pushed */\01232 \012SRP0[ ]	/* SetRefPoint0 */\012PUSHW[ ]	/* 2 values pushed */\01264 1 \012MIRP[10100]	/* MoveIndirectRelPt */\012NPUSHW[ ]	/* 5 values pushed */\012121 64 137 64 2 \012DELTAP1[ ]	/* DeltaExceptionP1 */\012NPUSHW[ ]	/* 15 values pushed */\0128 64 24 64 40 64 56 64 72 64 88 64 104 64 7 \012DELTAP1[ ]	/* DeltaExceptionP1 */\012PUSHW[ ]	/* 3 values pushed */\01282 17 56 \012SRP1[ ]	/* SetRefPoint1 */\012SRP2[ ]	/* SetRefPoint2 */\012IP[ ]	/* InterpolatePts */\012PUSHW[ ]	/* 3 values pushed */\01293 6 35 \012SRP1[ ]	/* SetRefPoint1 */\012SRP2[ ]	/* SetRefPoint2 */\012IP[ ]	/* InterpolatePts */\012PUSHW[ ]	/* 3 values pushed */\012116 17 56 \012SRP1[ ]	/* SetRefPoint1 */\012SRP2[ ]	/* SetRefPoint2 */\012IP[ ]	/* InterpolatePts */\012PUSHW[ ]	/* 3 values pushed */\012127 6 35 \012SRP1[ ]	/* SetRefPoint1 */\012SRP2[ ]	/* SetRefPoint2 */\012IP[ ]	/* InterpolatePts */\012PUSHW[ ]	/* 3 values pushed */\012135 32 64 \012SRP1[ ]	/* SetRefPoint1 */\012SRP2[ ]	/* SetRefPoint2 */\012IP[ ]	/* InterpolatePts */\012PUSHW[ ]	/* 3 values pushed */\012149 17 56 \012SRP1[ ]	/* SetRefPoint1 */\012SRP2[ ]	/* SetRefPoint2 */\012IP[ ]	/* InterpolatePts */\012IUP[0]	/* InterpolateUntPts */\012IUP[1]	/* InterpolateUntPts */";
};
width = 571;
}
);
leftKerningGroup = a;
note = ae;
rightKerningGroup = e;
unicode = 00E6;
},
{
glyphname = b;
lastChange = "2021-11-26 08:21:41 +0000";
layers = (
{
layerId = "DE28931B-8CFB-452E-AAB2-BC9BAE33C973";
paths = (
{
closed = 1;
nodes = (
"302.981 -7 OFFCURVE",
"357.778 9.915 OFFCURVE",
"378 154 CURVE SMOOTH",
"411 391 LINE SMOOTH",
"423.093 480.489 OFFCURVE",
"377.953 503 OFFCURVE",
"316 503 CURVE SMOOTH",
"270.295 503 OFFCURVE",
"250.75 483.042 OFFCURVE",
"231 460 CURVE",
"255 630 LINE",
"100 630 LINE",
"27 111 LINE SMOOTH",
"11.414 12.29 OFFCURVE",
"80.133 -7 OFFCURVE",
"176 -7 CURVE SMOOTH"
);
},
{
closed = 1;
nodes = (
"183.333 80 OFFCURVE",
"177 87.333 OFFCURVE",
"181 110 CURVE SMOOTH",
"219 378 LINE SMOOTH",
"221.667 400.667 OFFCURVE",
"230.333 408 OFFCURVE",
"241 408 CURVE SMOOTH",
"246.333 408 OFFCURVE",
"250 405.833 OFFCURVE",
"252 401.5 CURVE SMOOTH",
"254 397.167 OFFCURVE",
"254.333 389.333 OFFCURVE",
"253 378 CURVE SMOOTH",
"215 110 LINE SMOOTH",
"211 87.333 OFFCURVE",
"204.667 80 OFFCURVE",
"194 80 CURVE SMOOTH"
);
},
{
closed = 1;
nodes = (
"130 333 LINE",
"172 591 LINE",
"176 591 LINE",
"143 333 LINE",
"102 85 LINE",
"98 85 LINE"
);
},
{
closed = 1;
nodes = (
"184 40 LINE",
"233.712 20.667 OFFCURVE",
"283.325 58.481 OFFCURVE",
"291 125 CURVE SMOOTH",
"304 245 LINE",
"327 383 LINE SMOOTH",
"335.962 427.812 OFFCURVE",
"308.434 461.145 OFFCURVE",
"257 444 CURVE",
"258 446 LINE",
"315.333 464.667 OFFCURVE",
"341.667 432.333 OFFCURVE",
"335 383 CURVE SMOOTH",
"319 245 LINE",
"298 122 LINE SMOOTH",
"285.487 51.927 OFFCURVE",
"235.801 17.082 OFFCURVE",
"185 38 CURVE"
);
}
);
userData = {
assembly = "SVTCA[0]	/* SetFreedomAndProjectionVectorToAxis */\012PUSHW[ ]	/* 1 value pushed */\0120 \012RCVT[ ]	/* ReadCVT */\012IF[ ]	/* If */\012PUSHW[ ]	/* 1 value pushed */\01230 \012MDAP[1]	/* MoveDirectAbsPt */\012ELSE[ ]	/* Else */\012PUSHW[ ]	/* 2 values pushed */\01230 7 \012MIAP[0]	/* MoveIndirectAbsPt */\012EIF[ ]	/* EndIf */\012PUSHW[ ]	/* 2 values pushed */\01225 1 \012MIRP[10100]	/* MoveIndirectRelPt */\012PUSHW[ ]	/* 3 values pushed */\01213 30 25 \012SRP1[ ]	/* SetRefPoint1 */\012SRP2[ ]	/* SetRefPoint2 */\012IP[ ]	/* InterpolatePts */\012PUSHW[ ]	/* 1 value pushed */\01254 \012MDRP[10000]	/* MoveDirectRelPt */\012IUP[0]	/* InterpolateUntPts */\012IUP[1]	/* InterpolateUntPts */";
};
width = 390;
}
);
note = b;
rightKerningGroup = a;
unicode = 0062;
},
{
glyphname = c;
lastChange = "2021-11-26 08:21:41 +0000";
layers = (
{
anchors = (
{
name = bottom;
position = "{191, 0}";
},
{
name = top;
position = "{255, 495}";
}
);
layerId = "DE28931B-8CFB-452E-AAB2-BC9BAE33C973";
paths = (
{
closed = 1;
nodes = (
"303.814 -12 OFFCURVE",
"364 18 OFFCURVE",
"383 167 CURVE SMOOTH",
"389 213 LINE",
"233 213 LINE",
"217 98 LINE SMOOTH",
"214 75 OFFCURVE",
"206.667 68 OFFCURVE",
"196 68 CURVE SMOOTH",
"190.667 68 OFFCURVE",
"186.833 70.167 OFFCURVE",
"184.5 74.5 CURVE SMOOTH",
"182.167 78.833 OFFCURVE",
"181 87 OFFCURVE",
"183 98 CURVE SMOOTH",
"224 393 LINE SMOOTH",
"227 416 OFFCURVE",
"235.333 423 OFFCURVE",
"246 423 CURVE SMOOTH",
"251.333 423 OFFCURVE",
"255.167 420.833 OFFCURVE",
"257.5 416.5 CURVE SMOOTH",
"259.833 412.167 OFFCURVE",
"259 404 OFFCURVE",
"258 393 CURVE SMOOTH",
"245 294 LINE",
"401 294 LINE",
"412 373 LINE SMOOTH",
"426 472 OFFCURVE",
"367.232 503 OFFCURVE",
"257 503 CURVE SMOOTH",
"146.333 503 OFFCURVE",
"80 472 OFFCURVE",
"66 373 CURVE SMOOTH",
"37 166 LINE SMOOTH",
"16 18 OFFCURVE",
"67.95 -12 OFFCURVE",
"185 -12 CURVE SMOOTH"
);
},
{
closed = 1;
nodes = (
"210 35 LINE",
"256.667 35 OFFCURVE",
"286 72 OFFCURVE",
"292 113 CURVE SMOOTH",
"302 185 LINE",
"310 185 LINE",
"300 113 LINE SMOOTH",
"294 69 OFFCURVE",
"258 33 OFFCURVE",
"210 33 CURVE"
);
},
{
closed = 1;
nodes = (
"123.354 33 OFFCURVE",
"94 61 OFFCURVE",
"99 103 CURVE SMOOTH",
"116 245 LINE",
"138 383 LINE SMOOTH",
"146 432 OFFCURVE",
"183.333 457 OFFCURVE",
"230 457 CURVE",
"230 455 LINE",
"194.491 455 OFFCURVE",
"149.628 428.415 OFFCURVE",
"147 389 CURVE",
"130 245 LINE",
"107 102 LINE SMOOTH",
"100 59 OFFCURVE",
"128.667 35 OFFCURVE",
"154 35 CURVE",
"154 33 LINE"
);
},
{
closed = 1;
nodes = (
"330 382 LINE SMOOTH",
"336 423 OFFCURVE",
"323.667 456 OFFCURVE",
"277 456 CURVE",
"278 458 LINE",
"326 458 OFFCURVE",
"344 426 OFFCURVE",
"338 382 CURVE SMOOTH",
"331 334 LINE",
"323 334 LINE"
);
}
);
userData = {
assembly = "PUSHW[ ]	/* 4 values pushed */\01221 5 26 4 \012CALL[ ]	/* CallFunction */\012PUSHW[ ]	/* 3 values pushed */\01265 26 21 \012SRP1[ ]	/* SetRefPoint1 */\012SRP2[ ]	/* SetRefPoint2 */\012IP[ ]	/* InterpolatePts */\012PUSHW[ ]	/* 1 value pushed */\01221 \012SRP0[ ]	/* SetRefPoint0 */\012PUSHW[ ]	/* 1 value pushed */\01281 \012MDRP[11100]	/* MoveDirectRelPt */\012IUP[0]	/* InterpolateUntPts */\012IUP[1]	/* InterpolateUntPts */";
};
width = 390;
}
);
note = c;
unicode = 0063;
},
{
glyphname = d;
lastChange = "2021-11-26 08:21:41 +0000";
layers = (
{
anchors = (
{
name = bottom;
position = "{181, 0}";
},
{
name = center;
position = "{335, 554}";
},
{
name = top;
position = "{358, 630}";
},
{
name = topright;
position = "{464, 495}";
}
);
layerId = "DE28931B-8CFB-452E-AAB2-BC9BAE33C973";
paths = (
{
closed = 1;
nodes = (
"283.168 -7 OFFCURVE",
"356 12 OFFCURVE",
"370 111 CURVE SMOOTH",
"443 630 LINE",
"287 630 LINE",
"263 460 LINE",
"252.624 484.21 OFFCURVE",
"233.438 503 OFFCURVE",
"190 503 CURVE SMOOTH",
"129.305 503 OFFCURVE",
"76 481 OFFCURVE",
"63 391 CURVE SMOOTH",
"30 154 LINE SMOOTH",
"10 10 OFFCURVE",
"59.328 -7 OFFCURVE",
"188 -7 CURVE SMOOTH"
);
},
{
closed = 1;
nodes = (
"134.102 18.086 OFFCURVE",
"94 50 OFFCURVE",
"102 122 CURVE SMOOTH",
"115 245 LINE",
"139 383 LINE SMOOTH",
"148 432 OFFCURVE",
"183.333 464.667 OFFCURVE",
"234 446 CURVE",
"233 444 LINE",
"185.076 461.656 OFFCURVE",
"152 427 OFFCURVE",
"147 383 CURVE SMOOTH",
"130 245 LINE",
"111 125 LINE SMOOTH",
"100 57 OFFCURVE",
"138.201 20.916 OFFCURVE",
"190 40 CURVE",
"191 38 LINE"
);
},
{
closed = 1;
nodes = (
"181.333 80 OFFCURVE",
"176 87 OFFCURVE",
"179 110 CURVE SMOOTH",
"217 378 LINE SMOOTH",
"220 401 OFFCURVE",
"228.333 408 OFFCURVE",
"239 408 CURVE SMOOTH",
"244.333 408 OFFCURVE",
"248 405.833 OFFCURVE",
"250 401.5 CURVE SMOOTH",
"252 397.167 OFFCURVE",
"253 389 OFFCURVE",
"251 378 CURVE SMOOTH",
"213 110 LINE SMOOTH",
"210 87 OFFCURVE",
"202.667 80 OFFCURVE",
"192 80 CURVE SMOOTH"
);
},
{
closed = 1;
nodes = (
"314 333 LINE",
"355 591 LINE",
"359 591 LINE",
"327 333 LINE",
"287 85 LINE",
"283 85 LINE"
);
}
);
userData = {
assembly = "SVTCA[0]	/* SetFreedomAndProjectionVectorToAxis */\012PUSHW[ ]	/* 1 value pushed */\0120 \012RCVT[ ]	/* ReadCVT */\012IF[ ]	/* If */\012PUSHW[ ]	/* 1 value pushed */\01230 \012MDAP[1]	/* MoveDirectAbsPt */\012ELSE[ ]	/* Else */\012PUSHW[ ]	/* 2 values pushed */\01230 7 \012MIAP[0]	/* MoveIndirectAbsPt */\012EIF[ ]	/* EndIf */\012PUSHW[ ]	/* 4 values pushed */\01241 1 61 4 \012CALL[ ]	/* CallFunction */\012PUSHW[ ]	/* 1 value pushed */\01230 \012SRP0[ ]	/* SetRefPoint0 */\012PUSHW[ ]	/* 2 values pushed */\0123 1 \012MIRP[10100]	/* MoveIndirectRelPt */\012PUSHW[ ]	/* 3 values pushed */\01217 30 3 \012SRP1[ ]	/* SetRefPoint1 */\012SRP2[ ]	/* SetRefPoint2 */\012IP[ ]	/* InterpolatePts */\012PUSHW[ ]	/* 3 values pushed */\01246 61 41 \012SRP1[ ]	/* SetRefPoint1 */\012SRP2[ ]	/* SetRefPoint2 */\012IP[ ]	/* InterpolatePts */\012PUSHW[ ]	/* 1 value pushed */\01254 \012MDRP[10000]	/* MoveDirectRelPt */\012IUP[0]	/* InterpolateUntPts */\012IUP[1]	/* InterpolateUntPts */";
};
width = 388;
}
);
note = d;
unicode = 0064;
},
{
glyphname = eth;
lastChange = "2021-11-26 08:21:41 +0000";
layers = (
{
layerId = "DE28931B-8CFB-452E-AAB2-BC9BAE33C973";
paths = (
{
closed = 1;
nodes = (
"296.814 -12 OFFCURVE",
"353.675 18.168 OFFCURVE",
"376 167 CURVE SMOOTH",
"403 358 LINE SMOOTH",
"416.333 470 OFFCURVE",
"417.667 541.833 OFFCURVE",
"403 586.5 CURVE SMOOTH",
"388.333 631.167 OFFCURVE",
"359.333 650.333 OFFCURVE",
"314 657 CURVE",
"348 707 LINE",
"282 707 LINE",
"250 662 LINE",
"245 662 LINE SMOOTH",
"203.667 662 OFFCURVE",
"174.667 660.5 OFFCURVE",
"158 657.5 CURVE SMOOTH",
"141.333 654.5 OFFCURVE",
"133.333 652.667 OFFCURVE",
"134 652 CURVE",
"134 651.333 OFFCURVE",
"133.333 646 OFFCURVE",
"132 636 CURVE SMOOTH",
"127 602 LINE SMOOTH",
"124.333 587.333 OFFCURVE",
"122 571 OFFCURVE",
"120 553 CURVE",
"138 556 LINE SMOOTH",
"148.667 558.667 OFFCURVE",
"163.667 559.667 OFFCURVE",
"181 561 CURVE",
"139 500 LINE",
"205 500 LINE",
"241 551 LINE",
"258.333 535 OFFCURVE",
"262 505.667 OFFCURVE",
"262 479 CURVE",
"247 479 LINE SMOOTH",
"136.333 479 OFFCURVE",
"68.333 447.667 OFFCURVE",
"55 349 CURVE SMOOTH",
"30 166 LINE SMOOTH",
"7.876 18.506 OFFCURVE",
"60.95 -12 OFFCURVE",
"178 -12 CURVE SMOOTH"
);
},
{
closed = 1;
nodes = (
"119 23 OFFCURVE",
"88 47.333 OFFCURVE",
"96 122 CURVE SMOOTH",
"110 245 LINE",
"128 363 LINE SMOOTH",
"136 412.333 OFFCURVE",
"165.333 446 OFFCURVE",
"220 434 CURVE",
"220 432 LINE",
"167.77 441.948 OFFCURVE",
"141.963 407.723 OFFCURVE",
"136 363 CURVE SMOOTH",
"125 245 LINE",
"105 125 LINE SMOOTH",
"93 54.333 OFFCURVE",
"120 25 OFFCURVE",
"180 25 CURVE",
"179 23 LINE"
);
},
{
closed = 1;
nodes = (
"183.667 68 OFFCURVE",
"179.833 70.167 OFFCURVE",
"177.5 74.5 CURVE SMOOTH",
"175.167 78.833 OFFCURVE",
"174.667 86.667 OFFCURVE",
"176 98 CURVE SMOOTH",
"214 369 LINE SMOOTH",
"216.667 391.667 OFFCURVE",
"224.333 399 OFFCURVE",
"235 399 CURVE SMOOTH",
"240.333 399 OFFCURVE",
"244.167 396.833 OFFCURVE",
"246.5 392.5 CURVE SMOOTH",
"248.833 388.167 OFFCURVE",
"249.333 380.333 OFFCURVE",
"248 369 CURVE SMOOTH",
"210 98 LINE SMOOTH",
"207.333 75.333 OFFCURVE",
"199.667 68 OFFCURVE",
"189 68 CURVE SMOOTH"
);
},
{
closed = 1;
nodes = (
"180 25 LINE",
"249.333 25 OFFCURVE",
"277.333 54.333 OFFCURVE",
"284 105 CURVE SMOOTH",
"308 300 LINE",
"337 491 LINE SMOOTH",
"345.42 547.131 OFFCURVE",
"324.782 612 OFFCURVE",
"263 612 CURVE",
"263 614 LINE",
"330.447 614 OFFCURVE",
"348.096 551.915 OFFCURVE",
"342 494 CURVE SMOOTH",
"320 300 LINE",
"288 105 LINE SMOOTH",
"280 51.667 OFFCURVE",
"251 23 OFFCURVE",
"179 23 CURVE"
);
}
);
userData = {
assembly = "PUSHW[ ]	/* 4 values pushed */\0120 5 33 4 \012CALL[ ]	/* CallFunction */\012PUSHW[ ]	/* 1 value pushed */\0120 \012SRP0[ ]	/* SetRefPoint0 */\012PUSHW[ ]	/* 1 value pushed */\01255 \012MDRP[10000]	/* MoveDirectRelPt */\012PUSHW[ ]	/* 1 value pushed */\01255 \012MDAP[1]	/* MoveDirectAbsPt */\012PUSHW[ ]	/* 3 values pushed */\01267 33 0 \012SRP1[ ]	/* SetRefPoint1 */\012SRP2[ ]	/* SetRefPoint2 */\012IP[ ]	/* InterpolatePts */\012PUSHW[ ]	/* 3 values pushed */\01289 33 0 \012SRP1[ ]	/* SetRefPoint1 */\012SRP2[ ]	/* SetRefPoint2 */\012IP[ ]	/* InterpolatePts */\012SVTCA[0]	/* SetFreedomAndProjectionVectorToAxis */\012PUSHW[ ]	/* 4 values pushed */\01215 2 17 4 \012CALL[ ]	/* CallFunction */\012PUSHW[ ]	/* 1 value pushed */\01217 \012SRP0[ ]	/* SetRefPoint0 */\012PUSHW[ ]	/* 1 value pushed */\01213 \012MDRP[10000]	/* MoveDirectRelPt */\012PUSHW[ ]	/* 1 value pushed */\01213 \012MDAP[1]	/* MoveDirectAbsPt */\012PUSHW[ ]	/* 2 values pushed */\0120 3 \012MIRP[10100]	/* MoveIndirectRelPt */\012PUSHW[ ]	/* 1 value pushed */\01213 \012SRP0[ ]	/* SetRefPoint0 */\012PUSHW[ ]	/* 2 values pushed */\01242 4 \012MIRP[10100]	/* MoveIndirectRelPt */\012IUP[0]	/* InterpolateUntPts */\012IUP[1]	/* InterpolateUntPts */";
};
width = 400;
}
);
note = eth;
rightKerningGroup = a;
unicode = 00F0;
},
{
glyphname = dcroat;
lastChange = "2021-11-26 08:21:41 +0000";
layers = (
{
anchors = (
{
name = bottom;
position = "{181, 0}";
},
{
name = top;
position = "{358, 630}";
},
{
name = topright;
position = "{464, 495}";
}
);
layerId = "DE28931B-8CFB-452E-AAB2-BC9BAE33C973";
paths = (
{
closed = 1;
nodes = (
"283 -7 OFFCURVE",
"356 12 OFFCURVE",
"370 111 CURVE SMOOTH",
"443 630 LINE",
"287 630 LINE",
"263 460 LINE",
"253 484 OFFCURVE",
"233 503 OFFCURVE",
"190 503 CURVE SMOOTH",
"129 503 OFFCURVE",
"76 481 OFFCURVE",
"63 391 CURVE SMOOTH",
"30 154 LINE SMOOTH",
"10 10 OFFCURVE",
"59 -7 OFFCURVE",
"188 -7 CURVE SMOOTH"
);
},
{
closed = 1;
nodes = (
"134 18 OFFCURVE",
"94 50 OFFCURVE",
"102 122 CURVE SMOOTH",
"115 245 LINE",
"139 383 LINE SMOOTH",
"148 432 OFFCURVE",
"183 465 OFFCURVE",
"234 446 CURVE",
"233 444 LINE",
"185 462 OFFCURVE",
"152 427 OFFCURVE",
"147 383 CURVE SMOOTH",
"130 245 LINE",
"111 125 LINE SMOOTH",
"100 57 OFFCURVE",
"138 21 OFFCURVE",
"190 40 CURVE",
"191 38 LINE"
);
},
{
closed = 1;
nodes = (
"181 80 OFFCURVE",
"176 87 OFFCURVE",
"179 110 CURVE SMOOTH",
"217 378 LINE SMOOTH",
"220 401 OFFCURVE",
"228 408 OFFCURVE",
"239 408 CURVE SMOOTH",
"244 408 OFFCURVE",
"248 406 OFFCURVE",
"250 402 CURVE SMOOTH",
"252 397 OFFCURVE",
"253 389 OFFCURVE",
"251 378 CURVE SMOOTH",
"213 110 LINE SMOOTH",
"210 87 OFFCURVE",
"203 80 OFFCURVE",
"192 80 CURVE SMOOTH"
);
},
{
closed = 1;
nodes = (
"314 333 LINE",
"355 591 LINE",
"359 591 LINE",
"327 333 LINE",
"287 85 LINE",
"283 85 LINE"
);
},
{
closed = 1;
nodes = (
"316 522 LINE",
"324 583 LINE",
"192 583 LINE",
"184 522 LINE"
);
},
{
closed = 1;
nodes = (
"469 522 LINE",
"477 583 LINE",
"385 583 LINE",
"377 522 LINE"
);
}
);
userData = {
assembly = "SVTCA[0]	/* SetFreedomAndProjectionVectorToAxis */\012PUSHW[ ]	/* 1 value pushed */\0120 \012RCVT[ ]	/* ReadCVT */\012IF[ ]	/* If */\012PUSHW[ ]	/* 1 value pushed */\01243 \012MDAP[1]	/* MoveDirectAbsPt */\012ELSE[ ]	/* Else */\012PUSHW[ ]	/* 2 values pushed */\01243 7 \012MIAP[0]	/* MoveIndirectAbsPt */\012EIF[ ]	/* EndIf */\012PUSHW[ ]	/* 4 values pushed */\01235 2 36 4 \012CALL[ ]	/* CallFunction */\012PUSHW[ ]	/* 4 values pushed */\01254 1 69 4 \012CALL[ ]	/* CallFunction */\012PUSHW[ ]	/* 3 values pushed */\0121 36 35 \012SRP1[ ]	/* SetRefPoint1 */\012SRP2[ ]	/* SetRefPoint2 */\012IP[ ]	/* InterpolatePts */\012PUSHW[ ]	/* 1 value pushed */\01243 \012SRP0[ ]	/* SetRefPoint0 */\012PUSHW[ ]	/* 2 values pushed */\0123 1 \012MIRP[10100]	/* MoveIndirectRelPt */\012PUSHW[ ]	/* 3 values pushed */\01217 43 3 \012SRP1[ ]	/* SetRefPoint1 */\012SRP2[ ]	/* SetRefPoint2 */\012IP[ ]	/* InterpolatePts */\012PUSHW[ ]	/* 1 value pushed */\01235 \012SRP0[ ]	/* SetRefPoint0 */\012PUSHW[ ]	/* 1 value pushed */\01230 \012MDRP[10000]	/* MoveDirectRelPt */\012PUSHW[ ]	/* 3 values pushed */\01259 69 54 \012SRP1[ ]	/* SetRefPoint1 */\012SRP2[ ]	/* SetRefPoint2 */\012IP[ ]	/* InterpolatePts */\012PUSHW[ ]	/* 1 value pushed */\01236 \012SRP0[ ]	/* SetRefPoint0 */\012PUSHW[ ]	/* 1 value pushed */\01260 \012MDRP[10000]	/* MoveDirectRelPt */\012PUSHW[ ]	/* 1 value pushed */\0123 \012SRP0[ ]	/* SetRefPoint0 */\012PUSHW[ ]	/* 1 value pushed */\01262 \012MDRP[10000]	/* MoveDirectRelPt */\012IUP[0]	/* InterpolateUntPts */\012IUP[1]	/* InterpolateUntPts */";
};
width = 388;
}
);
unicode = 0111;
},
{
glyphname = e;
lastChange = "2021-11-26 08:21:41 +0000";
layers = (
{
anchors = (
{
name = bottom;
position = "{194, 0}";
},
{
name = ogonek;
position = "{251, 0}";
},
{
name = top;
position = "{257, 495}";
}
);
layerId = "DE28931B-8CFB-452E-AAB2-BC9BAE33C973";
paths = (
{
closed = 1;
nodes = (
"305.628 -12 OFFCURVE",
"363 18 OFFCURVE",
"384 167 CURVE SMOOTH",
"387 188 LINE",
"231 188 LINE",
"218 98 LINE SMOOTH",
"215 75 OFFCURVE",
"207.667 68 OFFCURVE",
"197 68 CURVE SMOOTH",
"186.333 68 OFFCURVE",
"181 75 OFFCURVE",
"184 98 CURVE SMOOTH",
"202 224 LINE",
"237.333 224.667 OFFCURVE",
"269.667 230.333 OFFCURVE",
"299 241 CURVE SMOOTH",
"352.931 260.869 OFFCURVE",
"402.982 300.37 OFFCURVE",
"413 373 CURVE SMOOTH",
"426.342 471.732 OFFCURVE",
"368.232 503 OFFCURVE",
"258 503 CURVE SMOOTH",
"147.333 503 OFFCURVE",
"81 472 OFFCURVE",
"67 373 CURVE SMOOTH",
"37 166 LINE SMOOTH",
"16 18 OFFCURVE",
"68.326 -12 OFFCURVE",
"187 -12 CURVE SMOOTH"
);
},
{
closed = 1;
nodes = (
"211 35 LINE",
"257.667 35 OFFCURVE",
"288 72 OFFCURVE",
"294 113 CURVE SMOOTH",
"300 157 LINE",
"308 157 LINE",
"302 113 LINE SMOOTH",
"296 69 OFFCURVE",
"259 33 OFFCURVE",
"211 33 CURVE"
);
},
{
closed = 1;
nodes = (
"124.534 33 OFFCURVE",
"95 61 OFFCURVE",
"100 103 CURVE SMOOTH",
"118 245 LINE",
"140 383 LINE SMOOTH",
"148 432 OFFCURVE",
"186.333 457 OFFCURVE",
"233 457 CURVE",
"233 455 LINE",
"194.943 455 OFFCURVE",
"154 429 OFFCURVE",
"149 389 CURVE SMOOTH",
"132 245 LINE",
"109 102 LINE SMOOTH",
"102 59 OFFCURVE",
"129.667 35 OFFCURVE",
"155 35 CURVE",
"155 33 LINE"
);
},
{
closed = 1;
nodes = (
"226 393 LINE SMOOTH",
"229 416 OFFCURVE",
"236.333 423 OFFCURVE",
"247 423 CURVE SMOOTH",
"252.333 423 OFFCURVE",
"256.167 420.833 OFFCURVE",
"258.5 416.5 CURVE SMOOTH",
"260.833 412.167 OFFCURVE",
"261.333 404.333 OFFCURVE",
"260 393 CURVE SMOOTH",
"253.333 349 OFFCURVE",
"242.667 325 OFFCURVE",
"232 313 CURVE SMOOTH",
"226 305.667 OFFCURVE",
"219.667 301.333 OFFCURVE",
"213 300 CURVE"
);
},
{
closed = 1;
nodes = (
"237 268 LINE",
"281.677 268 OFFCURVE",
"318.001 336.005 OFFCURVE",
"325 364 CURVE SMOOTH",
"339.667 424 OFFCURVE",
"326.667 456 OFFCURVE",
"280 456 CURVE",
"280 458 LINE",
"329.333 458 OFFCURVE",
"347 426.333 OFFCURVE",
"333 363 CURVE SMOOTH",
"322.56 318.628 OFFCURVE",
"278.791 265 OFFCURVE",
"236 265 CURVE"
);
}
);
userData = {
assembly = "PUSHW[ ]	/* 4 values pushed */\01255 5 60 4 \012CALL[ ]	/* CallFunction */\012PUSHW[ ]	/* 3 values pushed */\01211 60 55 \012SRP1[ ]	/* SetRefPoint1 */\012SRP2[ ]	/* SetRefPoint2 */\012IP[ ]	/* InterpolatePts */\012PUSHW[ ]	/* 1 value pushed */\01255 \012SRP0[ ]	/* SetRefPoint0 */\012PUSHW[ ]	/* 1 value pushed */\01277 \012MDRP[10000]	/* MoveDirectRelPt */\012PUSHW[ ]	/* 1 value pushed */\01277 \012MDAP[1]	/* MoveDirectAbsPt */\012IUP[0]	/* InterpolateUntPts */\012IUP[1]	/* InterpolateUntPts */";
};
width = 390;
}
);
note = e;
rightKerningGroup = e;
unicode = 0065;
},
{
glyphname = f;
lastChange = "2021-11-26 08:21:41 +0000";
layers = (
{
layerId = "DE28931B-8CFB-452E-AAB2-BC9BAE33C973";
paths = (
{
closed = 1;
nodes = (
"67.098 -133.22 OFFCURVE",
"176.847 -93.995 OFFCURVE",
"199 66 CURVE SMOOTH",
"246 389 LINE",
"326 389 LINE",
"338 476 LINE",
"258 476 LINE",
"263 513 LINE SMOOTH",
"265.667 533 OFFCURVE",
"274.333 557 OFFCURVE",
"297 557 CURVE SMOOTH",
"310.333 557 OFFCURVE",
"322.333 556.333 OFFCURVE",
"333 555 CURVE SMOOTH",
"349 554 LINE",
"359 624 LINE",
"348.371 624 OFFCURVE",
"274.621 630 OFFCURVE",
"248 630 CURVE SMOOTH",
"178.944 630 OFFCURVE",
"121.587 614.106 OFFCURVE",
"107 512 CURVE SMOOTH",
"102 476 LINE",
"70 476 LINE",
"58 389 LINE",
"91 389 LINE",
"36 9 LINE",
"34.667 -11 OFFCURVE",
"9.333 -32 OFFCURVE",
"-12 -32 CURVE SMOOTH",
"-45 -32 LINE",
"-54 -109 LINE"
);
},
{
closed = 1;
nodes = (
"143 267 LINE",
"168 430 LINE",
"101 433 LINE",
"102 435 LINE",
"168 437 LINE",
"183 526 LINE SMOOTH",
"188.333 560.667 OFFCURVE",
"213.333 597 OFFCURVE",
"256 597 CURVE",
"256 596 LINE",
"221.333 593.333 OFFCURVE",
"194.667 569.667 OFFCURVE",
"188 523 CURVE SMOOTH",
"177 437 LINE",
"291 435 LINE",
"290 433 LINE",
"177 430 LINE",
"156 267 LINE",
"114 0 LINE",
"110 0 LINE"
);
}
);
userData = {
assembly = "SVTCA[0]	/* SetFreedomAndProjectionVectorToAxis */\012PUSHW[ ]	/* 1 value pushed */\0120 \012RCVT[ ]	/* ReadCVT */\012IF[ ]	/* If */\012PUSHW[ ]	/* 1 value pushed */\0123 \012MDAP[1]	/* MoveDirectAbsPt */\012ELSE[ ]	/* Else */\012PUSHW[ ]	/* 2 values pushed */\0123 7 \012MIAP[0]	/* MoveIndirectAbsPt */\012EIF[ ]	/* EndIf */\012PUSHW[ ]	/* 4 values pushed */\01229 3 17 4 \012CALL[ ]	/* CallFunction */\012PUSHW[ ]	/* 3 values pushed */\01214 17 29 \012SRP1[ ]	/* SetRefPoint1 */\012SRP2[ ]	/* SetRefPoint2 */\012IP[ ]	/* InterpolatePts */\012IUP[0]	/* InterpolateUntPts */\012IUP[1]	/* InterpolateUntPts */";
};
width = 290;
}
);
note = f;
unicode = 0066;
},
{
glyphname = g;
lastChange = "2021-11-26 08:21:41 +0000";
layers = (
{
anchors = (
{
name = bottom;
position = "{159, -110}";
},
{
name = top;
position = "{258, 495}";
}
);
layerId = "DE28931B-8CFB-452E-AAB2-BC9BAE33C973";
paths = (
{
closed = 1;
nodes = (
"319.298 -114 OFFCURVE",
"344 -25 OFFCURVE",
"363 106 CURVE SMOOTH",
"418 495 LINE",
"278 495 LINE",
"258 460 LINE",
"248.667 478.667 OFFCURVE",
"231.333 500 OFFCURVE",
"178 500 CURVE SMOOTH",
"128.37 500 OFFCURVE",
"71 477 OFFCURVE",
"58 391 CURVE SMOOTH",
"31 210 LINE SMOOTH",
"13 92 OFFCURVE",
"27.966 45 OFFCURVE",
"110 45 CURVE SMOOTH",
"176.292 45 OFFCURVE",
"179.381 68.476 OFFCURVE",
"207 103 CURVE",
"195 24 LINE SMOOTH",
"188 -19 OFFCURVE",
"169.667 -28 OFFCURVE",
"143 -28 CURVE SMOOTH",
"121.667 -28 OFFCURVE",
"114 -20.667 OFFCURVE",
"110 -14 CURVE SMOOTH",
"107.333 -10 OFFCURVE",
"106.667 -5.333 OFFCURVE",
"108 0 CURVE",
"3 0 LINE",
"0.333 -84 OFFCURVE",
"39.667 -114 OFFCURVE",
"145 -114 CURVE SMOOTH"
);
},
{
closed = 1;
nodes = (
"122 59.333 OFFCURVE",
"87 81 OFFCURVE",
"94 140 CURVE SMOOTH",
"110 268 LINE",
"130 377 LINE SMOOTH",
"143 446 OFFCURVE",
"187.147 461.528 OFFCURVE",
"237 441 CURVE",
"237 439 LINE",
"187.498 459.383 OFFCURVE",
"145 439 OFFCURVE",
"137 374 CURVE SMOOTH",
"124 268 LINE",
"103 140 LINE SMOOTH",
"94 85 OFFCURVE",
"126.664 64.332 OFFCURVE",
"174 88 CURVE",
"174 86 LINE"
);
},
{
closed = 1;
nodes = (
"186 -60 LINE",
"236.667 -60 OFFCURVE",
"264 -23 OFFCURVE",
"270 25 CURVE SMOOTH",
"293 204 LINE",
"335 471 LINE",
"339 471 LINE",
"306 204 LINE",
"277 21 LINE SMOOTH",
"271 -18 OFFCURVE",
"240.637 -65.967 OFFCURVE",
"186 -61 CURVE"
);
},
{
closed = 1;
nodes = (
"188.667 136 OFFCURVE",
"184.833 138.167 OFFCURVE",
"182.5 142.5 CURVE SMOOTH",
"180.167 146.833 OFFCURVE",
"179 155 OFFCURVE",
"181 166 CURVE SMOOTH",
"212 378 LINE SMOOTH",
"215 401 OFFCURVE",
"221.333 408 OFFCURVE",
"232 408 CURVE SMOOTH",
"236 408 OFFCURVE",
"240 407.333 OFFCURVE",
"244 406 CURVE SMOOTH",
"246 405.333 OFFCURVE",
"248 405 OFFCURVE",
"250 405 CURVE",
"215 166 LINE SMOOTH",
"212 143 OFFCURVE",
"204.667 136 OFFCURVE",
"194 136 CURVE SMOOTH"
);
}
);
userData = {
assembly = "SVTCA[0]	/* SetFreedomAndProjectionVectorToAxis */\012PUSHW[ ]	/* 1 value pushed */\0120 \012RCVT[ ]	/* ReadCVT */\012IF[ ]	/* If */\012PUSHW[ ]	/* 1 value pushed */\01254 \012MDAP[1]	/* MoveDirectAbsPt */\012ELSE[ ]	/* Else */\012PUSHW[ ]	/* 2 values pushed */\01254 11 \012MIAP[0]	/* MoveIndirectAbsPt */\012EIF[ ]	/* EndIf */\012PUSHW[ ]	/* 1 value pushed */\0120 \012RCVT[ ]	/* ReadCVT */\012IF[ ]	/* If */\012PUSHW[ ]	/* 1 value pushed */\01258 \012MDAP[1]	/* MoveDirectAbsPt */\012ELSE[ ]	/* Else */\012PUSHW[ ]	/* 2 values pushed */\01258 11 \012MIAP[0]	/* MoveIndirectAbsPt */\012EIF[ ]	/* EndIf */\012PUSHW[ ]	/* 1 value pushed */\0120 \012RCVT[ ]	/* ReadCVT */\012IF[ ]	/* If */\012PUSHW[ ]	/* 1 value pushed */\01268 \012MDAP[1]	/* MoveDirectAbsPt */\012ELSE[ ]	/* Else */\012PUSHW[ ]	/* 2 values pushed */\01268 7 \012MIAP[0]	/* MoveIndirectAbsPt */\012EIF[ ]	/* EndIf */\012PUSHW[ ]	/* 3 values pushed */\0120 68 54 \012SRP1[ ]	/* SetRefPoint1 */\012SRP2[ ]	/* SetRefPoint2 */\012IP[ ]	/* InterpolatePts */\012PUSHW[ ]	/* 1 value pushed */\01258 \012SRP0[ ]	/* SetRefPoint0 */\012PUSHW[ ]	/* 2 values pushed */\01286 1 \012MIRP[10100]	/* MoveIndirectRelPt */\012NPUSHW[ ]	/* 5 values pushed */\012121 86 137 86 2 \012DELTAP1[ ]	/* DeltaExceptionP1 */\012NPUSHW[ ]	/* 15 values pushed */\0128 86 24 86 40 86 56 86 72 86 88 86 104 86 7 \012DELTAP1[ ]	/* DeltaExceptionP1 */\012PUSHW[ ]	/* 3 values pushed */\01213 58 86 \012SRP1[ ]	/* SetRefPoint1 */\012SRP2[ ]	/* SetRefPoint2 */\012IP[ ]	/* InterpolatePts */\012PUSHW[ ]	/* 3 values pushed */\01226 58 86 \012SRP1[ ]	/* SetRefPoint1 */\012SRP2[ ]	/* SetRefPoint2 */\012IP[ ]	/* InterpolatePts */\012PUSHW[ ]	/* 3 values pushed */\01238 68 54 \012SRP1[ ]	/* SetRefPoint1 */\012SRP2[ ]	/* SetRefPoint2 */\012IP[ ]	/* InterpolatePts */\012IUP[0]	/* InterpolateUntPts */\012IUP[1]	/* InterpolateUntPts */";
};
width = 390;
}
);
note = g;
unicode = 0067;
},
{
glyphname = h;
lastChange = "2021-11-26 08:21:41 +0000";
layers = (
{
anchors = (
{
name = bottom;
position = "{160, 0}";
},
{
name = center;
position = "{165, 542}";
},
{
name = top;
position = "{176, 613}";
}
);
layerId = "DE28931B-8CFB-452E-AAB2-BC9BAE33C973";
paths = (
{
closed = 1;
nodes = (
"169 0 LINE",
"220 373 LINE SMOOTH",
"221 380 OFFCURVE",
"229.333 391 OFFCURVE",
"240 391 CURVE SMOOTH",
"250.667 391 OFFCURVE",
"257 389 OFFCURVE",
"254 370 CURVE SMOOTH",
"203 0 LINE",
"359 0 LINE",
"415 408 LINE SMOOTH",
"423 467 OFFCURVE",
"406 502 OFFCURVE",
"346 502 CURVE SMOOTH",
"279.469 502 OFFCURVE",
"231.817 450.542 OFFCURVE",
"214 406 CURVE",
"245 630 LINE",
"101 630 LINE",
"14 0 LINE"
);
},
{
closed = 1;
nodes = (
"128 333 LINE",
"170 591 LINE",
"174 591 LINE",
"141 333 LINE",
"95 47 LINE",
"91 47 LINE"
);
},
{
closed = 1;
nodes = (
"308 245 LINE",
"334 399 LINE SMOOTH",
"338 420 OFFCURVE",
"330.397 447 OFFCURVE",
"303 447 CURVE SMOOTH",
"287.667 447 OFFCURVE",
"272.333 442 OFFCURVE",
"257 432 CURVE",
"258 434 LINE",
"271.333 443.333 OFFCURVE",
"288.333 449 OFFCURVE",
"303 449 CURVE SMOOTH",
"331 449 OFFCURVE",
"344 430 OFFCURVE",
"340 399 CURVE SMOOTH",
"321 245 LINE",
"287 47 LINE",
"283 47 LINE"
);
}
);
userData = {
assembly = "SVTCA[0]	/* SetFreedomAndProjectionVectorToAxis */\012PUSHW[ ]	/* 1 value pushed */\0120 \012RCVT[ ]	/* ReadCVT */\012IF[ ]	/* If */\012PUSHW[ ]	/* 1 value pushed */\01243 \012MDAP[1]	/* MoveDirectAbsPt */\012ELSE[ ]	/* Else */\012PUSHW[ ]	/* 2 values pushed */\01243 11 \012MIAP[0]	/* MoveIndirectAbsPt */\012EIF[ ]	/* EndIf */\012PUSHW[ ]	/* 1 value pushed */\0120 \012RCVT[ ]	/* ReadCVT */\012IF[ ]	/* If */\012PUSHW[ ]	/* 1 value pushed */\01225 \012MDAP[1]	/* MoveDirectAbsPt */\012ELSE[ ]	/* Else */\012PUSHW[ ]	/* 2 values pushed */\01225 7 \012MIAP[0]	/* MoveIndirectAbsPt */\012EIF[ ]	/* EndIf */\012PUSHW[ ]	/* 1 value pushed */\0120 \012RCVT[ ]	/* ReadCVT */\012IF[ ]	/* If */\012PUSHW[ ]	/* 1 value pushed */\01234 \012MDAP[1]	/* MoveDirectAbsPt */\012ELSE[ ]	/* Else */\012PUSHW[ ]	/* 2 values pushed */\01234 7 \012MIAP[0]	/* MoveIndirectAbsPt */\012EIF[ ]	/* EndIf */\012PUSHW[ ]	/* 3 values pushed */\0122 25 43 \012SRP1[ ]	/* SetRefPoint1 */\012SRP2[ ]	/* SetRefPoint2 */\012IP[ ]	/* InterpolatePts */\012PUSHW[ ]	/* 3 values pushed */\0126 25 43 \012SRP1[ ]	/* SetRefPoint1 */\012SRP2[ ]	/* SetRefPoint2 */\012IP[ ]	/* InterpolatePts */\012PUSHW[ ]	/* 3 values pushed */\01216 25 43 \012SRP1[ ]	/* SetRefPoint1 */\012SRP2[ ]	/* SetRefPoint2 */\012IP[ ]	/* InterpolatePts */\012PUSHW[ ]	/* 3 values pushed */\01238 25 43 \012SRP1[ ]	/* SetRefPoint1 */\012SRP2[ ]	/* SetRefPoint2 */\012IP[ ]	/* InterpolatePts */\012IUP[0]	/* InterpolateUntPts */\012IUP[1]	/* InterpolateUntPts */";
};
width = 390;
}
);
note = h;
rightKerningGroup = a;
unicode = 0068;
},
{
glyphname = hbar;
lastChange = "2021-11-26 08:21:41 +0000";
layers = (
{
anchors = (
{
name = bottom;
position = "{160, 0}";
},
{
name = center;
position = "{165, 542}";
},
{
name = top;
position = "{176, 613}";
}
);
layerId = "DE28931B-8CFB-452E-AAB2-BC9BAE33C973";
paths = (
{
closed = 1;
nodes = (
"169 0 LINE",
"220 373 LINE SMOOTH",
"221 380 OFFCURVE",
"229 391 OFFCURVE",
"240 391 CURVE SMOOTH",
"251 391 OFFCURVE",
"257 389 OFFCURVE",
"254 370 CURVE SMOOTH",
"203 0 LINE",
"359 0 LINE",
"415 408 LINE SMOOTH",
"423 467 OFFCURVE",
"406 502 OFFCURVE",
"346 502 CURVE SMOOTH",
"279 502 OFFCURVE",
"232 451 OFFCURVE",
"214 406 CURVE",
"245 630 LINE",
"101 630 LINE",
"14 0 LINE"
);
},
{
closed = 1;
nodes = (
"128 333 LINE",
"170 591 LINE",
"174 591 LINE",
"141 333 LINE",
"95 47 LINE",
"91 47 LINE"
);
},
{
closed = 1;
nodes = (
"308 245 LINE",
"334 399 LINE SMOOTH",
"338 420 OFFCURVE",
"330 447 OFFCURVE",
"303 447 CURVE SMOOTH",
"288 447 OFFCURVE",
"272 442 OFFCURVE",
"257 432 CURVE",
"258 434 LINE",
"271 443 OFFCURVE",
"288 449 OFFCURVE",
"303 449 CURVE SMOOTH",
"331 449 OFFCURVE",
"344 430 OFFCURVE",
"340 399 CURVE SMOOTH",
"321 245 LINE",
"287 47 LINE",
"283 47 LINE"
);
},
{
closed = 1;
nodes = (
"100 503 LINE",
"110 580 LINE",
"49 580 LINE",
"39 503 LINE"
);
},
{
closed = 1;
nodes = (
"274 503 LINE",
"284 580 LINE",
"223 580 LINE",
"213 503 LINE"
);
}
);
userData = {
assembly = "SVTCA[0]	/* SetFreedomAndProjectionVectorToAxis */\012PUSHW[ ]	/* 1 value pushed */\0120 \012RCVT[ ]	/* ReadCVT */\012IF[ ]	/* If */\012PUSHW[ ]	/* 1 value pushed */\0120 \012MDAP[1]	/* MoveDirectAbsPt */\012ELSE[ ]	/* Else */\012PUSHW[ ]	/* 2 values pushed */\0120 13 \012MIAP[0]	/* MoveIndirectAbsPt */\012EIF[ ]	/* EndIf */\012PUSHW[ ]	/* 1 value pushed */\0120 \012RCVT[ ]	/* ReadCVT */\012IF[ ]	/* If */\012PUSHW[ ]	/* 1 value pushed */\0124 \012MDAP[1]	/* MoveDirectAbsPt */\012ELSE[ ]	/* Else */\012PUSHW[ ]	/* 2 values pushed */\0124 13 \012MIAP[0]	/* MoveIndirectAbsPt */\012EIF[ ]	/* EndIf */\012PUSHW[ ]	/* 1 value pushed */\0120 \012RCVT[ ]	/* ReadCVT */\012IF[ ]	/* If */\012PUSHW[ ]	/* 1 value pushed */\01234 \012MDAP[1]	/* MoveDirectAbsPt */\012ELSE[ ]	/* Else */\012PUSHW[ ]	/* 2 values pushed */\01234 13 \012MIAP[0]	/* MoveIndirectAbsPt */\012EIF[ ]	/* EndIf */\012PUSHW[ ]	/* 1 value pushed */\0120 \012RCVT[ ]	/* ReadCVT */\012IF[ ]	/* If */\012PUSHW[ ]	/* 1 value pushed */\01213 \012MDAP[1]	/* MoveDirectAbsPt */\012ELSE[ ]	/* Else */\012PUSHW[ ]	/* 2 values pushed */\01213 11 \012MIAP[0]	/* MoveIndirectAbsPt */\012EIF[ ]	/* EndIf */\012PUSHW[ ]	/* 1 value pushed */\0120 \012RCVT[ ]	/* ReadCVT */\012IF[ ]	/* If */\012PUSHW[ ]	/* 1 value pushed */\01217 \012MDAP[1]	/* MoveDirectAbsPt */\012ELSE[ ]	/* Else */\012PUSHW[ ]	/* 2 values pushed */\01217 7 \012MIAP[0]	/* MoveIndirectAbsPt */\012EIF[ ]	/* EndIf */\012PUSHW[ ]	/* 1 value pushed */\0120 \012RCVT[ ]	/* ReadCVT */\012IF[ ]	/* If */\012PUSHW[ ]	/* 1 value pushed */\01226 \012MDAP[1]	/* MoveDirectAbsPt */\012ELSE[ ]	/* Else */\012PUSHW[ ]	/* 2 values pushed */\01226 7 \012MIAP[0]	/* MoveIndirectAbsPt */\012EIF[ ]	/* EndIf */\012PUSHW[ ]	/* 1 value pushed */\0124 \012SRP0[ ]	/* SetRefPoint0 */\012PUSHW[ ]	/* 2 values pushed */\0126 2 \012MIRP[10100]	/* MoveIndirectRelPt */\012PUSHW[ ]	/* 3 values pushed */\0128 17 0 \012SRP1[ ]	/* SetRefPoint1 */\012SRP2[ ]	/* SetRefPoint2 */\012IP[ ]	/* InterpolatePts */\012PUSHW[ ]	/* 1 value pushed */\01228 \012MDRP[10000]	/* MoveDirectRelPt */\012PUSHW[ ]	/* 1 value pushed */\01229 \012MDRP[10000]	/* MoveDirectRelPt */\012PUSHW[ ]	/* 3 values pushed */\01232 17 0 \012SRP1[ ]	/* SetRefPoint1 */\012SRP2[ ]	/* SetRefPoint2 */\012IP[ ]	/* InterpolatePts */\012PUSHW[ ]	/* 3 values pushed */\01236 17 0 \012SRP1[ ]	/* SetRefPoint1 */\012SRP2[ ]	/* SetRefPoint2 */\012IP[ ]	/* InterpolatePts */\012PUSHW[ ]	/* 3 values pushed */\01246 17 0 \012SRP1[ ]	/* SetRefPoint1 */\012SRP2[ ]	/* SetRefPoint2 */\012IP[ ]	/* InterpolatePts */\012IUP[0]	/* InterpolateUntPts */\012IUP[1]	/* InterpolateUntPts */";
};
width = 390;
}
);
unicode = 0127;
},
{
glyphname = i;
lastChange = "2021-11-26 08:21:41 +0000";
layers = (
{
layerId = "DE28931B-8CFB-452E-AAB2-BC9BAE33C973";
paths = (
{
closed = 1;
nodes = (
"171 0 LINE",
"240 495 LINE",
"84 495 LINE",
"15 0 LINE"
);
},
{
closed = 1;
nodes = (
"119 240 LINE",
"151 429 LINE",
"155 429 LINE",
"132 240 LINE",
"100 47 LINE",
"96 47 LINE"
);
},
{
closed = 1;
nodes = (
"211.797 548 OFFCURVE",
"251.697 581.23 OFFCURVE",
"257 621 CURVE SMOOTH",
"263.667 662.333 OFFCURVE",
"231.667 695 OFFCURVE",
"189 695 CURVE SMOOTH",
"146.333 695 OFFCURVE",
"109.667 662.333 OFFCURVE",
"103 621 CURVE SMOOTH",
"97.727 581.455 OFFCURVE",
"126.14 548 OFFCURVE",
"169 548 CURVE SMOOTH"
);
},
{
closed = 1;
nodes = (
"149.667 584 OFFCURVE",
"139 596.333 OFFCURVE",
"143 621 CURVE SMOOTH",
"146.333 645.667 OFFCURVE",
"160.333 658 OFFCURVE",
"185 658 CURVE SMOOTH",
"209.667 658 OFFCURVE",
"220.333 645.667 OFFCURVE",
"217 621 CURVE SMOOTH",
"213 596.333 OFFCURVE",
"199 584 OFFCURVE",
"175 584 CURVE SMOOTH"
);
},
{
closed = 1;
nodes = (
"193.667 586 OFFCURVE",
"208.333 602.333 OFFCURVE",
"211 621 CURVE SMOOTH",
"213.667 641 OFFCURVE",
"203.667 655 OFFCURVE",
"185 655 CURVE SMOOTH",
"166.333 655 OFFCURVE",
"150.667 641 OFFCURVE",
"148 621 CURVE SMOOTH",
"145.333 602.333 OFFCURVE",
"156.333 586 OFFCURVE",
"175 586 CURVE SMOOTH"
);
}
);
userData = {
assembly = "SVTCA[0]	/* SetFreedomAndProjectionVectorToAxis */\012PUSHW[ ]	/* 1 value pushed */\0120 \012RCVT[ ]	/* ReadCVT */\012IF[ ]	/* If */\012PUSHW[ ]	/* 1 value pushed */\0121 \012MDAP[1]	/* MoveDirectAbsPt */\012ELSE[ ]	/* Else */\012PUSHW[ ]	/* 2 values pushed */\0121 11 \012MIAP[0]	/* MoveIndirectAbsPt */\012EIF[ ]	/* EndIf */\012PUSHW[ ]	/* 1 value pushed */\0120 \012RCVT[ ]	/* ReadCVT */\012IF[ ]	/* If */\012PUSHW[ ]	/* 1 value pushed */\0120 \012MDAP[1]	/* MoveDirectAbsPt */\012ELSE[ ]	/* Else */\012PUSHW[ ]	/* 2 values pushed */\0120 7 \012MIAP[0]	/* MoveIndirectAbsPt */\012EIF[ ]	/* EndIf */\012PUSHW[ ]	/* 3 values pushed */\01222 0 1 \012SRP1[ ]	/* SetRefPoint1 */\012SRP2[ ]	/* SetRefPoint2 */\012IP[ ]	/* InterpolatePts */\012PUSHW[ ]	/* 3 values pushed */\01225 0 1 \012SRP1[ ]	/* SetRefPoint1 */\012SRP2[ ]	/* SetRefPoint2 */\012IP[ ]	/* InterpolatePts */\012IUP[0]	/* InterpolateUntPts */\012IUP[1]	/* InterpolateUntPts */";
};
width = 206;
}
);
note = i;
rightKerningGroup = a;
unicode = 0069;
},
{
glyphname = idotless;
lastChange = "2021-11-26 08:21:41 +0000";
layers = (
{
anchors = (
{
name = bottom;
position = "{66, 0}";
},
{
name = ogonek;
position = "{162, 0}";
},
{
name = top;
position = "{158, 495}";
}
);
layerId = "DE28931B-8CFB-452E-AAB2-BC9BAE33C973";
paths = (
{
closed = 1;
nodes = (
"167 0 LINE",
"236 495 LINE",
"80 495 LINE",
"11 0 LINE"
);
},
{
closed = 1;
nodes = (
"115 240 LINE",
"147 429 LINE",
"151 429 LINE",
"128 240 LINE",
"96 47 LINE",
"92 47 LINE"
);
}
);
userData = {
assembly = "SVTCA[0]	/* SetFreedomAndProjectionVectorToAxis */\012PUSHW[ ]	/* 1 value pushed */\0120 \012RCVT[ ]	/* ReadCVT */\012IF[ ]	/* If */\012PUSHW[ ]	/* 1 value pushed */\0121 \012MDAP[1]	/* MoveDirectAbsPt */\012ELSE[ ]	/* Else */\012PUSHW[ ]	/* 2 values pushed */\0121 11 \012MIAP[0]	/* MoveIndirectAbsPt */\012EIF[ ]	/* EndIf */\012PUSHW[ ]	/* 1 value pushed */\0120 \012RCVT[ ]	/* ReadCVT */\012IF[ ]	/* If */\012PUSHW[ ]	/* 1 value pushed */\0120 \012MDAP[1]	/* MoveDirectAbsPt */\012ELSE[ ]	/* Else */\012PUSHW[ ]	/* 2 values pushed */\0120 7 \012MIAP[0]	/* MoveIndirectAbsPt */\012EIF[ ]	/* EndIf */\012PUSHW[ ]	/* 3 values pushed */\0126 0 1 \012SRP1[ ]	/* SetRefPoint1 */\012SRP2[ ]	/* SetRefPoint2 */\012IP[ ]	/* InterpolatePts */\012PUSHW[ ]	/* 3 values pushed */\0129 0 1 \012SRP1[ ]	/* SetRefPoint1 */\012SRP2[ ]	/* SetRefPoint2 */\012IP[ ]	/* InterpolatePts */\012IUP[0]	/* InterpolateUntPts */\012IUP[1]	/* InterpolateUntPts */";
};
width = 202;
}
);
leftKerningGroup = i;
leftMetricsKey = n;
unicode = 0131;
},
{
glyphname = jdotless;
lastChange = "2021-11-26 08:21:41 +0000";
layers = (
{
anchors = (
{
name = bottom;
position = "{73, -110}";
},
{
name = top;
position = "{189, 495}";
}
);
layerId = "DE28931B-8CFB-452E-AAB2-BC9BAE33C973";
paths = (
{
closed = 1;
nodes = (
"75 -133 OFFCURVE",
"185 -95 OFFCURVE",
"208 66 CURVE SMOOTH",
"268 495 LINE",
"112 495 LINE",
"44 9 LINE SMOOTH",
"41 -11 OFFCURVE",
"17 -32 OFFCURVE",
"-6 -32 CURVE SMOOTH",
"-41 -32 LINE",
"-52 -109 LINE"
);
},
{
closed = 1;
nodes = (
"37 -60 LINE",
"88 -60 OFFCURVE",
"115 -23 OFFCURVE",
"121 25 CURVE SMOOTH",
"143 204 LINE",
"185 471 LINE",
"189 471 LINE",
"156 204 LINE",
"128 21 LINE SMOOTH",
"122 -18 OFFCURVE",
"92 -66 OFFCURVE",
"37 -61 CURVE"
);
}
);
width = 246;
}
);
unicode = 0237;
},
{
glyphname = k;
lastChange = "2021-11-26 08:46:58 +0000";
layers = (
{
anchors = (
{
name = bottom;
position = "{199, 0}";
},
{
name = top;
position = "{264, 630}";
}
);
layerId = "DE28931B-8CFB-452E-AAB2-BC9BAE33C973";
paths = (
{
closed = 1;
nodes = (
"169 0 LINE",
"208 282 LINE",
"229.254 215.877 OFFCURVE",
"230 70.283 OFFCURVE",
"230 0 CURVE",
"399 0 LINE",
"399 62.389 OFFCURVE",
"390.558 212.321 OFFCURVE",
"354 283 CURVE",
"372.667 311.667 OFFCURVE",
"390 339.333 OFFCURVE",
"406 366 CURVE SMOOTH",
"432.667 411.333 OFFCURVE",
"461.667 464.333 OFFCURVE",
"471 495 CURVE",
"317 495 LINE",
"317 456.983 OFFCURVE",
"231.431 308.227 OFFCURVE",
"209 289 CURVE",
"257 630 LINE",
"101 630 LINE",
"13 0 LINE"
);
},
{
closed = 1;
nodes = (
"128 333 LINE",
"170 591 LINE",
"174 591 LINE",
"141 333 LINE",
"96 47 LINE",
"92 47 LINE"
);
},
{
closed = 1;
nodes = (
"296 121 LINE SMOOTH",
"289 166 OFFCURVE",
"279.667 225 OFFCURVE",
"269 285 CURVE",
"375 474 LINE",
"380 474 LINE",
"283 285 LINE",
"283 281.015 OFFCURVE",
"294 191 OFFCURVE",
"297 164 CURVE SMOOTH",
"311 47 LINE",
"307 47 LINE"
);
}
);
userData = {
assembly = "SVTCA[0]	/* SetFreedomAndProjectionVectorToAxis */\012PUSHW[ ]	/* 1 value pushed */\0120 \012RCVT[ ]	/* ReadCVT */\012IF[ ]	/* If */\012PUSHW[ ]	/* 1 value pushed */\01227 \012MDAP[1]	/* MoveDirectAbsPt */\012ELSE[ ]	/* Else */\012PUSHW[ ]	/* 2 values pushed */\01227 11 \012MIAP[0]	/* MoveIndirectAbsPt */\012EIF[ ]	/* EndIf */\012PUSHW[ ]	/* 1 value pushed */\0120 \012RCVT[ ]	/* ReadCVT */\012IF[ ]	/* If */\012PUSHW[ ]	/* 1 value pushed */\01238 \012MDAP[1]	/* MoveDirectAbsPt */\012ELSE[ ]	/* Else */\012PUSHW[ ]	/* 2 values pushed */\01238 7 \012MIAP[0]	/* MoveIndirectAbsPt */\012EIF[ ]	/* EndIf */\012PUSHW[ ]	/* 1 value pushed */\0120 \012RCVT[ ]	/* ReadCVT */\012IF[ ]	/* If */\012PUSHW[ ]	/* 1 value pushed */\01245 \012MDAP[1]	/* MoveDirectAbsPt */\012ELSE[ ]	/* Else */\012PUSHW[ ]	/* 2 values pushed */\01245 7 \012MIAP[0]	/* MoveIndirectAbsPt */\012EIF[ ]	/* EndIf */\012PUSHW[ ]	/* 3 values pushed */\0122 38 27 \012SRP1[ ]	/* SetRefPoint1 */\012SRP2[ ]	/* SetRefPoint2 */\012IP[ ]	/* InterpolatePts */\012PUSHW[ ]	/* 3 values pushed */\01213 38 27 \012SRP1[ ]	/* SetRefPoint1 */\012SRP2[ ]	/* SetRefPoint2 */\012IP[ ]	/* InterpolatePts */\012PUSHW[ ]	/* 3 values pushed */\01222 38 27 \012SRP1[ ]	/* SetRefPoint1 */\012SRP2[ ]	/* SetRefPoint2 */\012IP[ ]	/* InterpolatePts */\012PUSHW[ ]	/* 3 values pushed */\01244 38 27 \012SRP1[ ]	/* SetRefPoint1 */\012SRP2[ ]	/* SetRefPoint2 */\012IP[ ]	/* InterpolatePts */\012IUP[0]	/* InterpolateUntPts */\012IUP[1]	/* InterpolateUntPts */";
};
width = 419;
}
);
note = k;
rightKerningGroup = a;
unicode = 006B;
},
{
glyphname = kgreenlandic;
lastChange = "2021-11-26 08:21:41 +0000";
layers = (
{
layerId = "DE28931B-8CFB-452E-AAB2-BC9BAE33C973";
paths = (
{
closed = 1;
nodes = (
"172 0 LINE",
"191 140 LINE",
"205 159 LINE",
"227 0 LINE",
"407 0 LINE",
"368 332 LINE",
"374.667 342 OFFCURVE",
"382.667 351 OFFCURVE",
"392 359 CURVE SMOOTH",
"408 373.667 OFFCURVE",
"432 388 OFFCURVE",
"464 392 CURVE",
"478 493 LINE",
"380.396 509.267 OFFCURVE",
"285.195 449.527 OFFCURVE",
"222 360 CURVE",
"249 548 LINE",
"92 548 LINE",
"15 0 LINE"
);
},
{
closed = 1;
nodes = (
"119 253 LINE",
"160 511 LINE",
"164 511 LINE",
"132 253 LINE",
"98 47 LINE",
"94 47 LINE"
);
},
{
closed = 1;
nodes = (
"254 276 LINE",
"261.471 335.768 OFFCURVE",
"348.972 414.797 OFFCURVE",
"392 439 CURVE",
"392 436 LINE",
"339.467 404.48 OFFCURVE",
"276.39 333.134 OFFCURVE",
"268 280 CURVE",
"322 47 LINE",
"318 47 LINE"
);
}
);
userData = {
assembly = "SVTCA[0]	/* SetFreedomAndProjectionVectorToAxis */\012PUSHW[ ]	/* 1 value pushed */\0120 \012RCVT[ ]	/* ReadCVT */\012IF[ ]	/* If */\012PUSHW[ ]	/* 1 value pushed */\01212 \012MDAP[1]	/* MoveDirectAbsPt */\012ELSE[ ]	/* Else */\012PUSHW[ ]	/* 2 values pushed */\01212 7 \012MIAP[0]	/* MoveIndirectAbsPt */\012EIF[ ]	/* EndIf */\012PUSHW[ ]	/* 1 value pushed */\0120 \012RCVT[ ]	/* ReadCVT */\012IF[ ]	/* If */\012PUSHW[ ]	/* 1 value pushed */\01216 \012MDAP[1]	/* MoveDirectAbsPt */\012ELSE[ ]	/* Else */\012PUSHW[ ]	/* 2 values pushed */\01216 7 \012MIAP[0]	/* MoveIndirectAbsPt */\012EIF[ ]	/* EndIf */\012IUP[0]	/* InterpolateUntPts */\012IUP[1]	/* InterpolateUntPts */";
};
width = 446;
}
);
note = kgreenlandic;
unicode = 0138;
},
{
glyphname = l;
lastChange = "2021-11-26 08:21:41 +0000";
layers = (
{
anchors = (
{
name = bottom;
position = "{91, 0}";
},
{
name = center;
position = "{112, 315}";
},
{
name = top;
position = "{182, 630}";
},
{
name = topright;
position = "{286, 495}";
}
);
layerId = "DE28931B-8CFB-452E-AAB2-BC9BAE33C973";
paths = (
{
closed = 1;
nodes = (
"171 0 LINE",
"259 630 LINE",
"103 630 LINE",
"15 0 LINE"
);
},
{
closed = 1;
nodes = (
"131 333 LINE",
"173 591 LINE",
"177 591 LINE",
"144 333 LINE",
"99 47 LINE",
"95 47 LINE"
);
}
);
userData = {
assembly = "SVTCA[0]	/* SetFreedomAndProjectionVectorToAxis */\012PUSHW[ ]	/* 1 value pushed */\0120 \012RCVT[ ]	/* ReadCVT */\012IF[ ]	/* If */\012PUSHW[ ]	/* 1 value pushed */\0120 \012MDAP[1]	/* MoveDirectAbsPt */\012ELSE[ ]	/* Else */\012PUSHW[ ]	/* 2 values pushed */\0120 7 \012MIAP[0]	/* MoveIndirectAbsPt */\012EIF[ ]	/* EndIf */\012IUP[0]	/* InterpolateUntPts */\012IUP[1]	/* InterpolateUntPts */";
};
width = 206;
}
);
note = l;
rightKerningGroup = a;
unicode = 006C;
},
{
glyphname = lslash;
lastChange = "2021-11-26 08:21:41 +0000";
layers = (
{
layerId = "DE28931B-8CFB-452E-AAB2-BC9BAE33C973";
paths = (
{
closed = 1;
nodes = (
"215 0 LINE",
"246 227 LINE",
"308 253 LINE",
"317 316 LINE",
"255 290 LINE",
"303 630 LINE",
"147 630 LINE",
"90 221 LINE",
"30 196 LINE",
"21 132 LINE",
"81 157 LINE",
"59 0 LINE"
);
},
{
closed = 1;
nodes = (
"176 333 LINE",
"218 591 LINE",
"222 591 LINE",
"189 333 LINE",
"144 47 LINE",
"140 47 LINE"
);
}
);
userData = {
assembly = "SVTCA[0]	/* SetFreedomAndProjectionVectorToAxis */\012PUSHW[ ]	/* 1 value pushed */\0120 \012RCVT[ ]	/* ReadCVT */\012IF[ ]	/* If */\012PUSHW[ ]	/* 1 value pushed */\0120 \012MDAP[1]	/* MoveDirectAbsPt */\012ELSE[ ]	/* Else */\012PUSHW[ ]	/* 2 values pushed */\0120 7 \012MIAP[0]	/* MoveIndirectAbsPt */\012EIF[ ]	/* EndIf */\012IUP[0]	/* InterpolateUntPts */\012IUP[1]	/* InterpolateUntPts */";
};
width = 298;
}
);
note = lslash;
rightKerningGroup = a;
unicode = 0142;
},
{
glyphname = m;
lastChange = "2021-11-26 08:21:41 +0000";
layers = (
{
layerId = "DE28931B-8CFB-452E-AAB2-BC9BAE33C973";
paths = (
{
closed = 1;
nodes = (
"166 0 LINE",
"218 373 LINE",
"218 379.667 OFFCURVE",
"227.333 391 OFFCURVE",
"238 391 CURVE SMOOTH",
"248.667 391 OFFCURVE",
"253.667 388.667 OFFCURVE",
"251 370 CURVE SMOOTH",
"200 0 LINE",
"356 0 LINE",
"408 373 LINE",
"408 379.667 OFFCURVE",
"417.333 391 OFFCURVE",
"428 391 CURVE SMOOTH",
"438.667 391 OFFCURVE",
"443.667 388.667 OFFCURVE",
"441 370 CURVE SMOOTH",
"390 0 LINE",
"546 0 LINE",
"603 408 LINE SMOOTH",
"611 466.667 OFFCURVE",
"594 502 OFFCURVE",
"534 502 CURVE SMOOTH",
"476.667 502 OFFCURVE",
"436.667 465.667 OFFCURVE",
"414 431 CURVE",
"415.333 475 OFFCURVE",
"394.667 502 OFFCURVE",
"344 502 CURVE SMOOTH",
"277.469 502 OFFCURVE",
"229.817 450.542 OFFCURVE",
"212 406 CURVE",
"213 495 LINE",
"80 495 LINE",
"11 0 LINE"
);
},
{
closed = 1;
nodes = (
"117 240 LINE",
"149 429 LINE",
"153 429 LINE",
"130 240 LINE",
"97 47 LINE",
"93 47 LINE"
);
},
{
closed = 1;
nodes = (
"303 245 LINE",
"328 399 LINE SMOOTH",
"331.066 420.465 OFFCURVE",
"326.6 447 OFFCURVE",
"298 447 CURVE SMOOTH",
"283.333 447 OFFCURVE",
"265.333 441.333 OFFCURVE",
"252 432 CURVE",
"253 434 LINE",
"265 443.333 OFFCURVE",
"283.333 449 OFFCURVE",
"298 449 CURVE SMOOTH",
"326 449 OFFCURVE",
"338 429.667 OFFCURVE",
"334 399 CURVE SMOOTH",
"316 245 LINE",
"282 47 LINE",
"278 47 LINE"
);
},
{
closed = 1;
nodes = (
"499 245 LINE",
"524 399 LINE SMOOTH",
"527.066 420.465 OFFCURVE",
"522.6 447 OFFCURVE",
"494 447 CURVE SMOOTH",
"479.333 447 OFFCURVE",
"461.333 441.333 OFFCURVE",
"448 432 CURVE",
"449 434 LINE",
"461 443.333 OFFCURVE",
"479.333 449 OFFCURVE",
"494 449 CURVE SMOOTH",
"522 449 OFFCURVE",
"534 429.667 OFFCURVE",
"530 399 CURVE SMOOTH",
"512 245 LINE",
"478 47 LINE",
"474 47 LINE"
);
}
);
userData = {
assembly = "SVTCA[0]	/* SetFreedomAndProjectionVectorToAxis */\012PUSHW[ ]	/* 1 value pushed */\0120 \012RCVT[ ]	/* ReadCVT */\012IF[ ]	/* If */\012PUSHW[ ]	/* 1 value pushed */\01257 \012MDAP[1]	/* MoveDirectAbsPt */\012ELSE[ ]	/* Else */\012PUSHW[ ]	/* 2 values pushed */\01257 11 \012MIAP[0]	/* MoveIndirectAbsPt */\012EIF[ ]	/* EndIf */\012PUSHW[ ]	/* 1 value pushed */\0120 \012RCVT[ ]	/* ReadCVT */\012IF[ ]	/* If */\012PUSHW[ ]	/* 1 value pushed */\01264 \012MDAP[1]	/* MoveDirectAbsPt */\012ELSE[ ]	/* Else */\012PUSHW[ ]	/* 2 values pushed */\01264 11 \012MIAP[0]	/* MoveIndirectAbsPt */\012EIF[ ]	/* EndIf */\012PUSHW[ ]	/* 1 value pushed */\0120 \012RCVT[ ]	/* ReadCVT */\012IF[ ]	/* If */\012PUSHW[ ]	/* 1 value pushed */\01270 \012MDAP[1]	/* MoveDirectAbsPt */\012ELSE[ ]	/* Else */\012PUSHW[ ]	/* 2 values pushed */\01270 11 \012MIAP[0]	/* MoveIndirectAbsPt */\012EIF[ ]	/* EndIf */\012PUSHW[ ]	/* 1 value pushed */\0120 \012RCVT[ ]	/* ReadCVT */\012IF[ ]	/* If */\012PUSHW[ ]	/* 1 value pushed */\01246 \012MDAP[1]	/* MoveDirectAbsPt */\012ELSE[ ]	/* Else */\012PUSHW[ ]	/* 2 values pushed */\01246 7 \012MIAP[0]	/* MoveIndirectAbsPt */\012EIF[ ]	/* EndIf */\012PUSHW[ ]	/* 1 value pushed */\0120 \012RCVT[ ]	/* ReadCVT */\012IF[ ]	/* If */\012PUSHW[ ]	/* 1 value pushed */\01255 \012MDAP[1]	/* MoveDirectAbsPt */\012ELSE[ ]	/* Else */\012PUSHW[ ]	/* 2 values pushed */\01255 7 \012MIAP[0]	/* MoveIndirectAbsPt */\012EIF[ ]	/* EndIf */\012PUSHW[ ]	/* 1 value pushed */\0120 \012RCVT[ ]	/* ReadCVT */\012IF[ ]	/* If */\012PUSHW[ ]	/* 1 value pushed */\01274 \012MDAP[1]	/* MoveDirectAbsPt */\012ELSE[ ]	/* Else */\012PUSHW[ ]	/* 2 values pushed */\01274 7 \012MIAP[0]	/* MoveIndirectAbsPt */\012EIF[ ]	/* EndIf */\012PUSHW[ ]	/* 3 values pushed */\0120 46 64 \012SRP1[ ]	/* SetRefPoint1 */\012SRP2[ ]	/* SetRefPoint2 */\012IP[ ]	/* InterpolatePts */\012PUSHW[ ]	/* 3 values pushed */\01211 46 64 \012SRP1[ ]	/* SetRefPoint1 */\012SRP2[ ]	/* SetRefPoint2 */\012IP[ ]	/* InterpolatePts */\012PUSHW[ ]	/* 3 values pushed */\01220 46 64 \012SRP1[ ]	/* SetRefPoint1 */\012SRP2[ ]	/* SetRefPoint2 */\012IP[ ]	/* InterpolatePts */\012PUSHW[ ]	/* 3 values pushed */\01231 46 64 \012SRP1[ ]	/* SetRefPoint1 */\012SRP2[ ]	/* SetRefPoint2 */\012IP[ ]	/* InterpolatePts */\012PUSHW[ ]	/* 3 values pushed */\01242 46 64 \012SRP1[ ]	/* SetRefPoint1 */\012SRP2[ ]	/* SetRefPoint2 */\012IP[ ]	/* InterpolatePts */\012PUSHW[ ]	/* 3 values pushed */\01245 46 64 \012SRP1[ ]	/* SetRefPoint1 */\012SRP2[ ]	/* SetRefPoint2 */\012IP[ ]	/* InterpolatePts */\012PUSHW[ ]	/* 3 values pushed */\01259 46 64 \012SRP1[ ]	/* SetRefPoint1 */\012SRP2[ ]	/* SetRefPoint2 */\012IP[ ]	/* InterpolatePts */\012PUSHW[ ]	/* 3 values pushed */\01267 46 64 \012SRP1[ ]	/* SetRefPoint1 */\012SRP2[ ]	/* SetRefPoint2 */\012IP[ ]	/* InterpolatePts */\012IUP[0]	/* InterpolateUntPts */\012IUP[1]	/* InterpolateUntPts */";
};
width = 580;
}
);
note = m;
rightKerningGroup = a;
unicode = 006D;
},
{
glyphname = n;
lastChange = "2021-11-26 08:21:41 +0000";
layers = (
{
anchors = (
{
name = bottom;
position = "{179, 0}";
},
{
name = top;
position = "{249, 495}";
}
);
layerId = "DE28931B-8CFB-452E-AAB2-BC9BAE33C973";
paths = (
{
closed = 1;
nodes = (
"166 0 LINE",
"218 373 LINE",
"218 379.667 OFFCURVE",
"227.333 391 OFFCURVE",
"238 391 CURVE SMOOTH",
"248.667 391 OFFCURVE",
"254 389 OFFCURVE",
"251 370 CURVE SMOOTH",
"200 0 LINE",
"356 0 LINE",
"413 408 LINE SMOOTH",
"421 467 OFFCURVE",
"404 502 OFFCURVE",
"344 502 CURVE SMOOTH",
"277.469 502 OFFCURVE",
"229.817 450.542 OFFCURVE",
"212 406 CURVE",
"213 495 LINE",
"80 495 LINE",
"11 0 LINE"
);
},
{
closed = 1;
nodes = (
"117 240 LINE",
"149 429 LINE",
"153 429 LINE",
"130 240 LINE",
"97 47 LINE",
"93 47 LINE"
);
},
{
closed = 1;
nodes = (
"307 245 LINE",
"332 399 LINE SMOOTH",
"335 420 OFFCURVE",
"330.6 447 OFFCURVE",
"302 447 CURVE SMOOTH",
"287.333 447 OFFCURVE",
"269.333 441.333 OFFCURVE",
"256 432 CURVE",
"257 434 LINE",
"269 443.333 OFFCURVE",
"287.333 449 OFFCURVE",
"302 449 CURVE SMOOTH",
"330 449 OFFCURVE",
"342 430 OFFCURVE",
"338 399 CURVE SMOOTH",
"320 245 LINE",
"286 47 LINE",
"282 47 LINE"
);
}
);
userData = {
assembly = "SVTCA[0]	/* SetFreedomAndProjectionVectorToAxis */\012PUSHW[ ]	/* 1 value pushed */\0120 \012RCVT[ ]	/* ReadCVT */\012IF[ ]	/* If */\012PUSHW[ ]	/* 1 value pushed */\01237 \012MDAP[1]	/* MoveDirectAbsPt */\012ELSE[ ]	/* Else */\012PUSHW[ ]	/* 2 values pushed */\01237 11 \012MIAP[0]	/* MoveIndirectAbsPt */\012EIF[ ]	/* EndIf */\012PUSHW[ ]	/* 1 value pushed */\0120 \012RCVT[ ]	/* ReadCVT */\012IF[ ]	/* If */\012PUSHW[ ]	/* 1 value pushed */\01244 \012MDAP[1]	/* MoveDirectAbsPt */\012ELSE[ ]	/* Else */\012PUSHW[ ]	/* 2 values pushed */\01244 11 \012MIAP[0]	/* MoveIndirectAbsPt */\012EIF[ ]	/* EndIf */\012PUSHW[ ]	/* 1 value pushed */\0120 \012RCVT[ ]	/* ReadCVT */\012IF[ ]	/* If */\012PUSHW[ ]	/* 1 value pushed */\01226 \012MDAP[1]	/* MoveDirectAbsPt */\012ELSE[ ]	/* Else */\012PUSHW[ ]	/* 2 values pushed */\01226 7 \012MIAP[0]	/* MoveIndirectAbsPt */\012EIF[ ]	/* EndIf */\012PUSHW[ ]	/* 1 value pushed */\0120 \012RCVT[ ]	/* ReadCVT */\012IF[ ]	/* If */\012PUSHW[ ]	/* 1 value pushed */\01235 \012MDAP[1]	/* MoveDirectAbsPt */\012ELSE[ ]	/* Else */\012PUSHW[ ]	/* 2 values pushed */\01235 7 \012MIAP[0]	/* MoveIndirectAbsPt */\012EIF[ ]	/* EndIf */\012PUSHW[ ]	/* 3 values pushed */\0120 26 44 \012SRP1[ ]	/* SetRefPoint1 */\012SRP2[ ]	/* SetRefPoint2 */\012IP[ ]	/* InterpolatePts */\012PUSHW[ ]	/* 3 values pushed */\01211 26 44 \012SRP1[ ]	/* SetRefPoint1 */\012SRP2[ ]	/* SetRefPoint2 */\012IP[ ]	/* InterpolatePts */\012PUSHW[ ]	/* 3 values pushed */\01222 26 44 \012SRP1[ ]	/* SetRefPoint1 */\012SRP2[ ]	/* SetRefPoint2 */\012IP[ ]	/* InterpolatePts */\012PUSHW[ ]	/* 3 values pushed */\01225 26 44 \012SRP1[ ]	/* SetRefPoint1 */\012SRP2[ ]	/* SetRefPoint2 */\012IP[ ]	/* InterpolatePts */\012PUSHW[ ]	/* 3 values pushed */\01239 26 44 \012SRP1[ ]	/* SetRefPoint1 */\012SRP2[ ]	/* SetRefPoint2 */\012IP[ ]	/* InterpolatePts */\012IUP[0]	/* InterpolateUntPts */\012IUP[1]	/* InterpolateUntPts */";
};
width = 390;
}
);
note = n;
rightKerningGroup = a;
unicode = 006E;
},
{
glyphname = eng;
lastChange = "2021-11-26 08:21:41 +0000";
layers = (
{
layerId = "DE28931B-8CFB-452E-AAB2-BC9BAE33C973";
paths = (
{
closed = 1;
nodes = (
"254.585 -133.302 OFFCURVE",
"365.688 -95.142 OFFCURVE",
"388 66 CURVE SMOOTH",
"431 371 LINE SMOOTH",
"443 457.667 OFFCURVE",
"427 502 OFFCURVE",
"339 502 CURVE SMOOTH",
"296.333 502 OFFCURVE",
"256.667 471.333 OFFCURVE",
"238 430 CURVE",
"235 495 LINE",
"102 495 LINE",
"33 0 LINE",
"189 0 LINE",
"244 390 LINE",
"248 392.667 OFFCURVE",
"255.667 393 OFFCURVE",
"261 393 CURVE SMOOTH",
"273 393 OFFCURVE",
"277.333 383.667 OFFCURVE",
"274 365 CURVE SMOOTH",
"224 6 LINE SMOOTH",
"221.333 -15.333 OFFCURVE",
"195.333 -32 OFFCURVE",
"174 -32 CURVE SMOOTH",
"138 -32 LINE",
"127 -109 LINE"
);
},
{
closed = 1;
nodes = (
"139 240 LINE",
"170 429 LINE",
"174 429 LINE",
"152 240 LINE",
"119 47 LINE",
"115 47 LINE"
);
},
{
closed = 1;
nodes = (
"216 -60 LINE",
"266.667 -60 OFFCURVE",
"294.667 -23 OFFCURVE",
"300 25 CURVE SMOOTH",
"328 245 LINE",
"354 399 LINE SMOOTH",
"356.98 419.857 OFFCURVE",
"350.397 447 OFFCURVE",
"323 447 CURVE SMOOTH",
"307.667 447 OFFCURVE",
"292.333 442 OFFCURVE",
"277 432 CURVE",
"278 434 LINE",
"290 443.333 OFFCURVE",
"308.333 449 OFFCURVE",
"323 449 CURVE SMOOTH",
"351 449 OFFCURVE",
"362.667 429.667 OFFCURVE",
"360 399 CURVE SMOOTH",
"341 245 LINE",
"307 21 LINE SMOOTH",
"300.928 -18.465 OFFCURVE",
"270.637 -65.967 OFFCURVE",
"216 -61 CURVE"
);
}
);
userData = {
assembly = "SVTCA[0]	/* SetFreedomAndProjectionVectorToAxis */\012PUSHW[ ]	/* 1 value pushed */\0120 \012RCVT[ ]	/* ReadCVT */\012IF[ ]	/* If */\012PUSHW[ ]	/* 1 value pushed */\01252 \012MDAP[1]	/* MoveDirectAbsPt */\012ELSE[ ]	/* Else */\012PUSHW[ ]	/* 2 values pushed */\01252 11 \012MIAP[0]	/* MoveIndirectAbsPt */\012EIF[ ]	/* EndIf */\012PUSHW[ ]	/* 1 value pushed */\0120 \012RCVT[ ]	/* ReadCVT */\012IF[ ]	/* If */\012PUSHW[ ]	/* 1 value pushed */\01257 \012MDAP[1]	/* MoveDirectAbsPt */\012ELSE[ ]	/* Else */\012PUSHW[ ]	/* 2 values pushed */\01257 11 \012MIAP[0]	/* MoveIndirectAbsPt */\012EIF[ ]	/* EndIf */\012PUSHW[ ]	/* 1 value pushed */\0120 \012RCVT[ ]	/* ReadCVT */\012IF[ ]	/* If */\012PUSHW[ ]	/* 1 value pushed */\01243 \012MDAP[1]	/* MoveDirectAbsPt */\012ELSE[ ]	/* Else */\012PUSHW[ ]	/* 2 values pushed */\01243 7 \012MIAP[0]	/* MoveIndirectAbsPt */\012EIF[ ]	/* EndIf */\012PUSHW[ ]	/* 1 value pushed */\0120 \012RCVT[ ]	/* ReadCVT */\012IF[ ]	/* If */\012PUSHW[ ]	/* 1 value pushed */\01250 \012MDAP[1]	/* MoveDirectAbsPt */\012ELSE[ ]	/* Else */\012PUSHW[ ]	/* 2 values pushed */\01250 7 \012MIAP[0]	/* MoveIndirectAbsPt */\012EIF[ ]	/* EndIf */\012PUSHW[ ]	/* 1 value pushed */\01257 \012SRP0[ ]	/* SetRefPoint0 */\012PUSHW[ ]	/* 2 values pushed */\01246 1 \012MIRP[10100]	/* MoveIndirectRelPt */\012NPUSHW[ ]	/* 5 values pushed */\012121 46 137 46 2 \012DELTAP1[ ]	/* DeltaExceptionP1 */\012NPUSHW[ ]	/* 15 values pushed */\0128 46 24 46 40 46 56 46 72 46 88 46 104 46 7 \012DELTAP1[ ]	/* DeltaExceptionP1 */\012PUSHW[ ]	/* 3 values pushed */\0128 57 46 \012SRP1[ ]	/* SetRefPoint1 */\012SRP2[ ]	/* SetRefPoint2 */\012IP[ ]	/* InterpolatePts */\012PUSHW[ ]	/* 3 values pushed */\01229 50 57 \012SRP1[ ]	/* SetRefPoint1 */\012SRP2[ ]	/* SetRefPoint2 */\012IP[ ]	/* InterpolatePts */\012PUSHW[ ]	/* 3 values pushed */\01232 57 46 \012SRP1[ ]	/* SetRefPoint1 */\012SRP2[ ]	/* SetRefPoint2 */\012IP[ ]	/* InterpolatePts */\012PUSHW[ ]	/* 3 values pushed */\01254 57 46 \012SRP1[ ]	/* SetRefPoint1 */\012SRP2[ ]	/* SetRefPoint2 */\012IP[ ]	/* InterpolatePts */\012IUP[0]	/* InterpolateUntPts */\012IUP[1]	/* InterpolateUntPts */";
};
width = 396;
}
);
unicode = 014B;
},
{
glyphname = o;
lastChange = "2021-11-26 08:21:41 +0000";
layers = (
{
anchors = (
{
name = bottom;
position = "{185, 0}";
},
{
name = center;
position = "{195, 248}";
},
{
name = ogonek;
position = "{258, 0}";
},
{
name = top;
position = "{258, 495}";
},
{
name = topright;
position = "{311, 495}";
}
);
layerId = "DE28931B-8CFB-452E-AAB2-BC9BAE33C973";
paths = (
{
closed = 1;
nodes = (
"303.814 -12 OFFCURVE",
"362 18 OFFCURVE",
"383 167 CURVE SMOOTH",
"412 373 LINE SMOOTH",
"426 472 OFFCURVE",
"367.232 503 OFFCURVE",
"257 503 CURVE SMOOTH",
"146.333 503 OFFCURVE",
"80 472 OFFCURVE",
"66 373 CURVE SMOOTH",
"37 166 LINE SMOOTH",
"16 18 OFFCURVE",
"67.95 -12 OFFCURVE",
"185 -12 CURVE SMOOTH"
);
},
{
closed = 1;
nodes = (
"125.333 30.667 OFFCURVE",
"99 59 OFFCURVE",
"106 122 CURVE SMOOTH",
"120 245 LINE",
"143 383 LINE SMOOTH",
"150 424 OFFCURVE",
"169.333 457 OFFCURVE",
"220 457 CURVE",
"220 455 LINE",
"173.936 455 OFFCURVE",
"155 420 OFFCURVE",
"151 383 CURVE SMOOTH",
"135 245 LINE",
"115 125 LINE SMOOTH",
"105 65 OFFCURVE",
"125.333 32.667 OFFCURVE",
"164 30 CURVE",
"164 28 LINE"
);
},
{
closed = 1;
nodes = (
"190.667 68 OFFCURVE",
"186.833 70.167 OFFCURVE",
"184.5 74.5 CURVE SMOOTH",
"182.167 78.833 OFFCURVE",
"181 87 OFFCURVE",
"183 98 CURVE SMOOTH",
"224 393 LINE SMOOTH",
"227 416 OFFCURVE",
"235.333 423 OFFCURVE",
"246 423 CURVE SMOOTH",
"251.333 423 OFFCURVE",
"255.167 420.833 OFFCURVE",
"257.5 416.5 CURVE SMOOTH",
"259.833 412.167 OFFCURVE",
"260 404 OFFCURVE",
"258 393 CURVE SMOOTH",
"217 98 LINE SMOOTH",
"214 75 OFFCURVE",
"206.667 68 OFFCURVE",
"196 68 CURVE SMOOTH"
);
},
{
closed = 1;
nodes = (
"215 30 LINE",
"256.333 32.667 OFFCURVE",
"285 65 OFFCURVE",
"292 125 CURVE SMOOTH",
"306 245 LINE",
"328 383 LINE SMOOTH",
"334 423 OFFCURVE",
"326.864 455 OFFCURVE",
"279 455 CURVE",
"279 457 LINE",
"329.667 457 OFFCURVE",
"340 424 OFFCURVE",
"336 383 CURVE SMOOTH",
"321 245 LINE",
"299 122 LINE SMOOTH",
"288 59 OFFCURVE",
"256.333 30.667 OFFCURVE",
"215 28 CURVE"
);
}
);
width = 390;
}
);
note = o;
rightKerningGroup = a;
unicode = 006F;
},
{
glyphname = oslash;
lastChange = "2021-11-26 08:21:41 +0000";
layers = (
{
anchors = (
{
name = top;
position = "{257, 495}";
}
);
layerId = "DE28931B-8CFB-452E-AAB2-BC9BAE33C973";
paths = (
{
closed = 1;
nodes = (
"61 -44 LINE",
"89 0 LINE",
"114.333 -10.667 OFFCURVE",
"145.667 -12 OFFCURVE",
"183 -12 CURVE SMOOTH",
"301.814 -12 OFFCURVE",
"360 18 OFFCURVE",
"381 167 CURVE SMOOTH",
"410 373 LINE SMOOTH",
"416 414 OFFCURVE",
"408 444 OFFCURVE",
"390 464 CURVE",
"453 560 LINE",
"386 560 LINE",
"343 493 LINE",
"319 499.667 OFFCURVE",
"289.667 503 OFFCURVE",
"255 503 CURVE SMOOTH",
"144.333 503 OFFCURVE",
"78 472 OFFCURVE",
"64 373 CURVE SMOOTH",
"35 166 LINE SMOOTH",
"26 105 OFFCURVE",
"30.667 61 OFFCURVE",
"46 35 CURVE",
"-4 -44 LINE"
);
},
{
closed = 1;
nodes = (
"188.667 68 OFFCURVE",
"184.833 70.167 OFFCURVE",
"182.5 74.5 CURVE SMOOTH",
"180.167 78.833 OFFCURVE",
"179 87 OFFCURVE",
"181 98 CURVE SMOOTH",
"190 163 LINE",
"234 230 LINE",
"215 98 LINE SMOOTH",
"212 75 OFFCURVE",
"204.667 68 OFFCURVE",
"194 68 CURVE SMOOTH"
);
},
{
closed = 1;
nodes = (
"123.333 30.667 OFFCURVE",
"97 59 OFFCURVE",
"104 122 CURVE SMOOTH",
"118 245 LINE",
"141 383 LINE SMOOTH",
"148 424 OFFCURVE",
"167.333 457 OFFCURVE",
"218 457 CURVE",
"218 455 LINE",
"171.936 455 OFFCURVE",
"153 420 OFFCURVE",
"149 383 CURVE SMOOTH",
"133 245 LINE",
"113 125 LINE SMOOTH",
"103 65 OFFCURVE",
"123.333 32.667 OFFCURVE",
"162 30 CURVE",
"162 28 LINE"
);
},
{
closed = 1;
nodes = (
"217 30 LINE",
"258.333 32.667 OFFCURVE",
"287 65 OFFCURVE",
"294 125 CURVE SMOOTH",
"308 245 LINE",
"330 383 LINE SMOOTH",
"336 423 OFFCURVE",
"328.864 455 OFFCURVE",
"281 455 CURVE",
"281 457 LINE",
"331.667 457 OFFCURVE",
"342 424 OFFCURVE",
"338 383 CURVE SMOOTH",
"323 245 LINE",
"301 122 LINE SMOOTH",
"290 59 OFFCURVE",
"258.333 30.667 OFFCURVE",
"217 28 CURVE"
);
},
{
closed = 1;
nodes = (
"222 393 LINE SMOOTH",
"225 416 OFFCURVE",
"233.333 423 OFFCURVE",
"244 423 CURVE SMOOTH",
"249.333 423 OFFCURVE",
"253.167 420.833 OFFCURVE",
"255.5 416.5 CURVE SMOOTH",
"257.833 412.167 OFFCURVE",
"258 404 OFFCURVE",
"256 393 CURVE SMOOTH",
"248 335 LINE",
"205 268 LINE"
);
}
);
userData = {
assembly = "PUSHW[ ]	/* 4 values pushed */\01210 5 30 4 \012CALL[ ]	/* CallFunction */\012PUSHW[ ]	/* 1 value pushed */\01210 \012SRP0[ ]	/* SetRefPoint0 */\012PUSHW[ ]	/* 1 value pushed */\01215 \012MDRP[10000]	/* MoveDirectRelPt */\012PUSHW[ ]	/* 1 value pushed */\01215 \012MDAP[1]	/* MoveDirectAbsPt */\012PUSHW[ ]	/* 1 value pushed */\01210 \012SRP0[ ]	/* SetRefPoint0 */\012PUSHW[ ]	/* 1 value pushed */\01285 \012MDRP[11100]	/* MoveDirectRelPt */\012IUP[0]	/* InterpolateUntPts */\012IUP[1]	/* InterpolateUntPts */";
};
width = 376;
}
);
note = oslash;
rightKerningGroup = a;
unicode = 00F8;
},
{
glyphname = oe;
lastChange = "2021-11-26 08:21:41 +0000";
layers = (
{
layerId = "DE28931B-8CFB-452E-AAB2-BC9BAE33C973";
paths = (
{
closed = 1;
nodes = (
"222.333 -12 OFFCURVE",
"255.333 -10.667 OFFCURVE",
"282 0 CURVE",
"307.333 -10.667 OFFCURVE",
"339.667 -12 OFFCURVE",
"377 -12 CURVE SMOOTH",
"495.628 -12 OFFCURVE",
"551.611 17.739 OFFCURVE",
"574 167 CURVE SMOOTH",
"577 188 LINE",
"421 188 LINE",
"408 98 LINE SMOOTH",
"404 75.333 OFFCURVE",
"397.667 68 OFFCURVE",
"387 68 CURVE SMOOTH",
"376.333 68 OFFCURVE",
"370 75.333 OFFCURVE",
"374 98 CURVE SMOOTH",
"392 224 LINE",
"427.333 224.667 OFFCURVE",
"459.667 230.333 OFFCURVE",
"489 241 CURVE SMOOTH",
"542.931 260.869 OFFCURVE",
"592.982 300.37 OFFCURVE",
"603 373 CURVE SMOOTH",
"616.342 471.732 OFFCURVE",
"558.232 503 OFFCURVE",
"448 503 CURVE SMOOTH",
"410 503 OFFCURVE",
"377.667 499 OFFCURVE",
"351 491 CURVE",
"325.667 499 OFFCURVE",
"294.333 503 OFFCURVE",
"257 503 CURVE SMOOTH",
"146.333 503 OFFCURVE",
"79.333 471.667 OFFCURVE",
"66 373 CURVE SMOOTH",
"37 166 LINE SMOOTH",
"14.876 18.506 OFFCURVE",
"67.95 -12 OFFCURVE",
"185 -12 CURVE SMOOTH"
);
},
{
closed = 1;
nodes = (
"125.333 30.667 OFFCURVE",
"99.333 59.333 OFFCURVE",
"106 122 CURVE SMOOTH",
"120 245 LINE",
"143 383 LINE SMOOTH",
"149.667 424.333 OFFCURVE",
"169.333 457 OFFCURVE",
"220 457 CURVE",
"220 455 LINE",
"173.936 455 OFFCURVE",
"153.876 420.387 OFFCURVE",
"151 383 CURVE SMOOTH",
"135 245 LINE",
"115 125 LINE SMOOTH",
"104.333 65 OFFCURVE",
"125.333 32.667 OFFCURVE",
"164 30 CURVE",
"164 28 LINE"
);
},
{
closed = 1;
nodes = (
"190.667 68 OFFCURVE",
"186.833 70.167 OFFCURVE",
"184.5 74.5 CURVE SMOOTH",
"182.167 78.833 OFFCURVE",
"181.667 86.667 OFFCURVE",
"183 98 CURVE SMOOTH",
"224 393 LINE SMOOTH",
"228 415.667 OFFCURVE",
"235.333 423 OFFCURVE",
"246 423 CURVE SMOOTH",
"251.333 423 OFFCURVE",
"255.167 420.833 OFFCURVE",
"257.5 416.5 CURVE SMOOTH",
"259.833 412.167 OFFCURVE",
"260 404.333 OFFCURVE",
"258 393 CURVE SMOOTH",
"217 98 LINE SMOOTH",
"214.333 75.333 OFFCURVE",
"206.667 68 OFFCURVE",
"196 68 CURVE SMOOTH"
);
},
{
closed = 1;
nodes = (
"401 35 LINE",
"447.667 35 OFFCURVE",
"477.333 71.667 OFFCURVE",
"484 113 CURVE SMOOTH",
"490 157 LINE",
"498 157 LINE",
"492 113 LINE SMOOTH",
"485.333 69 OFFCURVE",
"449 33 OFFCURVE",
"401 33 CURVE"
);
},
{
closed = 1;
nodes = (
"313.534 33 OFFCURVE",
"284.111 61.447 OFFCURVE",
"289 103 CURVE SMOOTH",
"307 245 LINE",
"329 383 LINE SMOOTH",
"337 432.333 OFFCURVE",
"375.333 457 OFFCURVE",
"422 457 CURVE",
"422 455 LINE",
"383.943 455 OFFCURVE",
"343.261 428.457 OFFCURVE",
"338 389 CURVE SMOOTH",
"321 245 LINE",
"298 102 LINE SMOOTH",
"290 59.333 OFFCURVE",
"318.667 35 OFFCURVE",
"344 35 CURVE",
"344 33 LINE"
);
},
{
closed = 1;
nodes = (
"416 393 LINE SMOOTH",
"418.667 415.667 OFFCURVE",
"426.333 423 OFFCURVE",
"437 423 CURVE SMOOTH",
"442.333 423 OFFCURVE",
"446.167 420.833 OFFCURVE",
"448.5 416.5 CURVE SMOOTH",
"450.833 412.167 OFFCURVE",
"451.333 404.333 OFFCURVE",
"450 393 CURVE SMOOTH",
"443.333 349 OFFCURVE",
"432.667 325 OFFCURVE",
"422 313 CURVE SMOOTH",
"416 305.667 OFFCURVE",
"409.667 301.333 OFFCURVE",
"403 300 CURVE"
);
},
{
closed = 1;
nodes = (
"427 268 LINE",
"471.677 268 OFFCURVE",
"508.001 336.005 OFFCURVE",
"515 364 CURVE SMOOTH",
"529.667 424 OFFCURVE",
"516.667 456 OFFCURVE",
"470 456 CURVE",
"470 458 LINE",
"519.333 458 OFFCURVE",
"537 426.333 OFFCURVE",
"523 363 CURVE SMOOTH",
"512.56 318.628 OFFCURVE",
"468.791 265 OFFCURVE",
"426 265 CURVE"
);
}
);
userData = {
assembly = "PUSHW[ ]	/* 4 values pushed */\012113 5 53 4 \012CALL[ ]	/* CallFunction */\012PUSHW[ ]	/* 1 value pushed */\012113 \012SRP0[ ]	/* SetRefPoint0 */\012PUSHW[ ]	/* 1 value pushed */\01244 \012MDRP[10000]	/* MoveDirectRelPt */\012PUSHW[ ]	/* 1 value pushed */\01244 \012MDAP[1]	/* MoveDirectAbsPt */\012NPUSHW[ ]	/* 9 values pushed */\0129 53 25 53 41 53 57 53 4 \012DELTAP1[ ]	/* DeltaExceptionP1 */\012PUSHW[ ]	/* 1 value pushed */\012113 \012SRP0[ ]	/* SetRefPoint0 */\012PUSHW[ ]	/* 1 value pushed */\01280 \012MDRP[10000]	/* MoveDirectRelPt */\012PUSHW[ ]	/* 1 value pushed */\01280 \012MDAP[1]	/* MoveDirectAbsPt */\012PUSHW[ ]	/* 3 values pushed */\012130 53 113 \012SRP1[ ]	/* SetRefPoint1 */\012SRP2[ ]	/* SetRefPoint2 */\012IP[ ]	/* InterpolatePts */\012SVTCA[0]	/* SetFreedomAndProjectionVectorToAxis */\012PUSHW[ ]	/* 1 value pushed */\0120 \012RCVT[ ]	/* ReadCVT */\012IF[ ]	/* If */\012PUSHW[ ]	/* 1 value pushed */\0129 \012MDAP[1]	/* MoveDirectAbsPt */\012ELSE[ ]	/* Else */\012PUSHW[ ]	/* 2 values pushed */\0129 7 \012MIAP[0]	/* MoveIndirectAbsPt */\012EIF[ ]	/* EndIf */\012IUP[0]	/* InterpolateUntPts */\012IUP[1]	/* InterpolateUntPts */";
};
width = 580;
}
);
note = oe;
rightKerningGroup = e;
unicode = 0153;
},
{
glyphname = p;
lastChange = "2021-11-26 08:21:41 +0000";
layers = (
{
layerId = "DE28931B-8CFB-452E-AAB2-BC9BAE33C973";
paths = (
{
closed = 1;
nodes = (
"158 -116 LINE",
"179 36 LINE",
"189.667 13.333 OFFCURVE",
"207.667 -6 OFFCURVE",
"253 -6 CURVE SMOOTH",
"324.745 -6 OFFCURVE",
"368.694 37.529 OFFCURVE",
"385 154 CURVE SMOOTH",
"419 391 LINE SMOOTH",
"431.093 480.489 OFFCURVE",
"383.896 503 OFFCURVE",
"323 503 CURVE SMOOTH",
"277.295 503 OFFCURVE",
"257.75 483.042 OFFCURVE",
"238 460 CURVE",
"243 495 LINE",
"87 495 LINE",
"2 -116 LINE"
);
},
{
closed = 1;
nodes = (
"112 180 LINE",
"156 466 LINE",
"160 466 LINE",
"125 180 LINE",
"85 -78 LINE",
"81 -78 LINE"
);
},
{
closed = 1;
nodes = (
"196.667 80 OFFCURVE",
"192.833 82.167 OFFCURVE",
"190.5 86.5 CURVE SMOOTH",
"188.167 90.833 OFFCURVE",
"187.667 98.667 OFFCURVE",
"189 110 CURVE SMOOTH",
"231 405 LINE",
"236 406 LINE SMOOTH",
"240 407.333 OFFCURVE",
"244 408 OFFCURVE",
"248 408 CURVE SMOOTH",
"253.333 408 OFFCURVE",
"257.167 405.833 OFFCURVE",
"259.5 401.5 CURVE SMOOTH",
"261.833 397.167 OFFCURVE",
"262.333 389.333 OFFCURVE",
"261 378 CURVE SMOOTH",
"223 110 LINE SMOOTH",
"220.333 87.333 OFFCURVE",
"212.667 80 OFFCURVE",
"202 80 CURVE SMOOTH"
);
},
{
closed = 1;
nodes = (
"202 49 LINE",
"248.667 30.333 OFFCURVE",
"288.333 54.333 OFFCURVE",
"295 125 CURVE SMOOTH",
"309 245 LINE",
"332 383 LINE SMOOTH",
"337.91 427.324 OFFCURVE",
"315.109 458.703 OFFCURVE",
"262 441 CURVE",
"262 443 LINE",
"319.333 461.667 OFFCURVE",
"346.667 432.333 OFFCURVE",
"340 383 CURVE SMOOTH",
"324 245 LINE",
"303 122 LINE SMOOTH",
"289.667 46 OFFCURVE",
"247.667 28.333 OFFCURVE",
"201 47 CURVE"
);
}
);
userData = {
assembly = "PUSHW[ ]	/* 4 values pushed */\01215 5 33 4 \012CALL[ ]	/* CallFunction */\012PUSHW[ ]	/* 3 values pushed */\0124 33 15 \012SRP1[ ]	/* SetRefPoint1 */\012SRP2[ ]	/* SetRefPoint2 */\012IP[ ]	/* InterpolatePts */\012PUSHW[ ]	/* 1 value pushed */\01233 \012SRP0[ ]	/* SetRefPoint0 */\012PUSHW[ ]	/* 1 value pushed */\01235 \012MDRP[10000]	/* MoveDirectRelPt */\012PUSHW[ ]	/* 1 value pushed */\01235 \012MDAP[1]	/* MoveDirectAbsPt */\012PUSHW[ ]	/* 3 values pushed */\01245 33 15 \012SRP1[ ]	/* SetRefPoint1 */\012SRP2[ ]	/* SetRefPoint2 */\012IP[ ]	/* InterpolatePts */\012PUSHW[ ]	/* 1 value pushed */\01215 \012SRP0[ ]	/* SetRefPoint0 */\012PUSHW[ ]	/* 1 value pushed */\01266 \012MDRP[11100]	/* MoveDirectRelPt */\012SVTCA[0]	/* SetFreedomAndProjectionVectorToAxis */\012PUSHW[ ]	/* 1 value pushed */\0120 \012RCVT[ ]	/* ReadCVT */\012IF[ ]	/* If */\012PUSHW[ ]	/* 1 value pushed */\0122 \012MDAP[1]	/* MoveDirectAbsPt */\012ELSE[ ]	/* Else */\012PUSHW[ ]	/* 2 values pushed */\0122 11 \012MIAP[0]	/* MoveIndirectAbsPt */\012EIF[ ]	/* EndIf */\012PUSHW[ ]	/* 1 value pushed */\0120 \012RCVT[ ]	/* ReadCVT */\012IF[ ]	/* If */\012PUSHW[ ]	/* 1 value pushed */\01220 \012MDAP[1]	/* MoveDirectAbsPt */\012ELSE[ ]	/* Else */\012PUSHW[ ]	/* 2 values pushed */\01220 7 \012MIAP[0]	/* MoveIndirectAbsPt */\012EIF[ ]	/* EndIf */\012PUSHW[ ]	/* 1 value pushed */\0122 \012SRP0[ ]	/* SetRefPoint0 */\012PUSHW[ ]	/* 2 values pushed */\01231 1 \012MIRP[10100]	/* MoveIndirectRelPt */\012NPUSHW[ ]	/* 5 values pushed */\012121 31 137 31 2 \012DELTAP1[ ]	/* DeltaExceptionP1 */\012NPUSHW[ ]	/* 15 values pushed */\0128 31 24 31 40 31 56 31 72 31 88 31 104 31 7 \012DELTAP1[ ]	/* DeltaExceptionP1 */\012PUSHW[ ]	/* 3 values pushed */\0124 2 31 \012SRP1[ ]	/* SetRefPoint1 */\012SRP2[ ]	/* SetRefPoint2 */\012IP[ ]	/* InterpolatePts */\012PUSHW[ ]	/* 1 value pushed */\01220 \012SRP0[ ]	/* SetRefPoint0 */\012PUSHW[ ]	/* 2 values pushed */\01224 1 \012MIRP[10100]	/* MoveIndirectRelPt */\012NPUSHW[ ]	/* 15 values pushed */\0127 24 23 24 39 24 55 24 71 24 87 24 103 24 7 \012DELTAP1[ ]	/* DeltaExceptionP1 */\012NPUSHW[ ]	/* 5 values pushed */\012118 24 134 24 2 \012DELTAP1[ ]	/* DeltaExceptionP1 */\012PUSHW[ ]	/* 3 values pushed */\01223 20 24 \012SRP1[ ]	/* SetRefPoint1 */\012SRP2[ ]	/* SetRefPoint2 */\012IP[ ]	/* InterpolatePts */\012PUSHW[ ]	/* 3 values pushed */\01243 2 31 \012SRP1[ ]	/* SetRefPoint1 */\012SRP2[ ]	/* SetRefPoint2 */\012IP[ ]	/* InterpolatePts */\012PUSHW[ ]	/* 3 values pushed */\01245 2 31 \012SRP1[ ]	/* SetRefPoint1 */\012SRP2[ ]	/* SetRefPoint2 */\012IP[ ]	/* InterpolatePts */\012PUSHW[ ]	/* 3 values pushed */\01256 20 24 \012SRP1[ ]	/* SetRefPoint1 */\012SRP2[ ]	/* SetRefPoint2 */\012IP[ ]	/* InterpolatePts */\012IUP[0]	/* InterpolateUntPts */\012IUP[1]	/* InterpolateUntPts */";
};
width = 390;
}
);
note = p;
rightKerningGroup = a;
unicode = 0070;
},
{
glyphname = thorn;
lastChange = "2021-11-26 08:21:41 +0000";
layers = (
{
layerId = "DE28931B-8CFB-452E-AAB2-BC9BAE33C973";
paths = (
{
closed = 1;
nodes = (
"171 -116 LINE",
"192 36 LINE",
"202.667 13.333 OFFCURVE",
"220.667 -6 OFFCURVE",
"266 -6 CURVE SMOOTH",
"337.745 -6 OFFCURVE",
"381.694 37.529 OFFCURVE",
"398 154 CURVE SMOOTH",
"432 391 LINE SMOOTH",
"444.093 480.489 OFFCURVE",
"396.896 503 OFFCURVE",
"336 503 CURVE SMOOTH",
"290.295 503 OFFCURVE",
"270.75 483.042 OFFCURVE",
"251 460 CURVE",
"275 630 LINE",
"119 630 LINE",
"15 -116 LINE"
);
},
{
closed = 1;
nodes = (
"138 279 LINE",
"186 591 LINE",
"190 591 LINE",
"151 279 LINE",
"98 -67 LINE",
"94 -67 LINE"
);
},
{
closed = 1;
nodes = (
"209.667 80 OFFCURVE",
"205.833 82.167 OFFCURVE",
"203.5 86.5 CURVE SMOOTH",
"201.167 90.833 OFFCURVE",
"200.667 98.667 OFFCURVE",
"202 110 CURVE SMOOTH",
"244 405 LINE",
"249 406 LINE SMOOTH",
"253 407.333 OFFCURVE",
"257 408 OFFCURVE",
"261 408 CURVE SMOOTH",
"266.333 408 OFFCURVE",
"270.167 405.833 OFFCURVE",
"272.5 401.5 CURVE SMOOTH",
"274.833 397.167 OFFCURVE",
"275.333 389.333 OFFCURVE",
"274 378 CURVE SMOOTH",
"236 110 LINE SMOOTH",
"233.333 87.333 OFFCURVE",
"225.667 80 OFFCURVE",
"215 80 CURVE SMOOTH"
);
},
{
closed = 1;
nodes = (
"268 59 LINE",
"293.333 59 OFFCURVE",
"307.333 78.333 OFFCURVE",
"314 129 CURVE SMOOTH",
"348 369 LINE SMOOTH",
"353.333 415.667 OFFCURVE",
"344.667 443 OFFCURVE",
"302 443 CURVE",
"302 445 LINE",
"348.667 445 OFFCURVE",
"364.667 418.333 OFFCURVE",
"358 369 CURVE SMOOTH",
"324 129 LINE SMOOTH",
"316 75.667 OFFCURVE",
"294.667 57 OFFCURVE",
"268 57 CURVE"
);
}
);
userData = {
assembly = "PUSHW[ ]	/* 4 values pushed */\01215 5 33 4 \012CALL[ ]	/* CallFunction */\012PUSHW[ ]	/* 1 value pushed */\01233 \012SRP0[ ]	/* SetRefPoint0 */\012PUSHW[ ]	/* 1 value pushed */\0124 \012MDRP[10000]	/* MoveDirectRelPt */\012PUSHW[ ]	/* 1 value pushed */\0124 \012MDAP[1]	/* MoveDirectAbsPt */\012PUSHW[ ]	/* 1 value pushed */\01233 \012SRP0[ ]	/* SetRefPoint0 */\012PUSHW[ ]	/* 1 value pushed */\01235 \012MDRP[10000]	/* MoveDirectRelPt */\012PUSHW[ ]	/* 1 value pushed */\01235 \012MDAP[1]	/* MoveDirectAbsPt */\012PUSHW[ ]	/* 3 values pushed */\01253 33 15 \012SRP1[ ]	/* SetRefPoint1 */\012SRP2[ ]	/* SetRefPoint2 */\012IP[ ]	/* InterpolatePts */\012PUSHW[ ]	/* 1 value pushed */\01215 \012SRP0[ ]	/* SetRefPoint0 */\012PUSHW[ ]	/* 1 value pushed */\01262 \012MDRP[11100]	/* MoveDirectRelPt */\012SVTCA[0]	/* SetFreedomAndProjectionVectorToAxis */\012PUSHW[ ]	/* 1 value pushed */\0120 \012RCVT[ ]	/* ReadCVT */\012IF[ ]	/* If */\012PUSHW[ ]	/* 1 value pushed */\01220 \012MDAP[1]	/* MoveDirectAbsPt */\012ELSE[ ]	/* Else */\012PUSHW[ ]	/* 2 values pushed */\01220 7 \012MIAP[0]	/* MoveIndirectAbsPt */\012EIF[ ]	/* EndIf */\012PUSHW[ ]	/* 2 values pushed */\01224 1 \012MIRP[10100]	/* MoveIndirectRelPt */\012NPUSHW[ ]	/* 15 values pushed */\0127 24 23 24 39 24 55 24 71 24 87 24 103 24 7 \012DELTAP1[ ]	/* DeltaExceptionP1 */\012NPUSHW[ ]	/* 5 values pushed */\012118 24 134 24 2 \012DELTAP1[ ]	/* DeltaExceptionP1 */\012PUSHW[ ]	/* 3 values pushed */\01223 20 24 \012SRP1[ ]	/* SetRefPoint1 */\012SRP2[ ]	/* SetRefPoint2 */\012IP[ ]	/* InterpolatePts */\012PUSHW[ ]	/* 3 values pushed */\01253 20 24 \012SRP1[ ]	/* SetRefPoint1 */\012SRP2[ ]	/* SetRefPoint2 */\012IP[ ]	/* InterpolatePts */\012IUP[0]	/* InterpolateUntPts */\012IUP[1]	/* InterpolateUntPts */";
};
width = 386;
}
);
note = thorn;
rightKerningGroup = a;
unicode = 00FE;
},
{
glyphname = q;
lastChange = "2021-11-26 08:21:41 +0000";
layers = (
{
layerId = "DE28931B-8CFB-452E-AAB2-BC9BAE33C973";
paths = (
{
closed = 1;
nodes = (
"344 -116 LINE",
"429 495 LINE",
"273 495 LINE",
"268 460 LINE",
"258.667 478.667 OFFCURVE",
"242.333 500 OFFCURVE",
"189 500 CURVE SMOOTH",
"139.37 500 OFFCURVE",
"80.578 476.674 OFFCURVE",
"69 391 CURVE SMOOTH",
"35 154 LINE SMOOTH",
"17.035 25.998 OFFCURVE",
"54.416 -7 OFFCURVE",
"120 -7 CURVE SMOOTH",
"170.667 -7 OFFCURVE",
"195.333 15.667 OFFCURVE",
"210 41 CURVE",
"188 -116 LINE"
);
},
{
closed = 1;
nodes = (
"131.965 26.724 OFFCURVE",
"99.282 49.967 OFFCURVE",
"107 122 CURVE SMOOTH",
"120 245 LINE",
"144 383 LINE SMOOTH",
"152 432.333 OFFCURVE",
"187.333 461.667 OFFCURVE",
"238 443 CURVE",
"238 441 LINE",
"189.351 458.027 OFFCURVE",
"154.898 426.465 OFFCURVE",
"152 383 CURVE",
"135 245 LINE",
"115 125 LINE SMOOTH",
"104.333 54.333 OFFCURVE",
"136 30.333 OFFCURVE",
"188 49 CURVE",
"187 47 LINE"
);
},
{
closed = 1;
nodes = (
"192.667 80 OFFCURVE",
"188.833 82.167 OFFCURVE",
"186.5 86.5 CURVE SMOOTH",
"184.167 90.833 OFFCURVE",
"183.667 98.667 OFFCURVE",
"185 110 CURVE SMOOTH",
"223 378 LINE SMOOTH",
"225.667 400.667 OFFCURVE",
"233.333 408 OFFCURVE",
"244 408 CURVE SMOOTH",
"248 408 OFFCURVE",
"252 407.333 OFFCURVE",
"256 406 CURVE SMOOTH",
"261 405 LINE",
"219 110 LINE SMOOTH",
"216.333 87.333 OFFCURVE",
"208.667 80 OFFCURVE",
"198 80 CURVE SMOOTH"
);
},
{
closed = 1;
nodes = (
"301 180 LINE",
"346 466 LINE",
"350 466 LINE",
"314 180 LINE",
"273 -78 LINE",
"269 -78 LINE"
);
}
);
userData = {
assembly = "SVTCA[0]	/* SetFreedomAndProjectionVectorToAxis */\012PUSHW[ ]	/* 1 value pushed */\0120 \012RCVT[ ]	/* ReadCVT */\012IF[ ]	/* If */\012PUSHW[ ]	/* 1 value pushed */\01211 \012MDAP[1]	/* MoveDirectAbsPt */\012ELSE[ ]	/* Else */\012PUSHW[ ]	/* 2 values pushed */\01211 11 \012MIAP[0]	/* MoveIndirectAbsPt */\012EIF[ ]	/* EndIf */\012PUSHW[ ]	/* 1 value pushed */\0120 \012RCVT[ ]	/* ReadCVT */\012IF[ ]	/* If */\012PUSHW[ ]	/* 1 value pushed */\01215 \012MDAP[1]	/* MoveDirectAbsPt */\012ELSE[ ]	/* Else */\012PUSHW[ ]	/* 2 values pushed */\01215 11 \012MIAP[0]	/* MoveIndirectAbsPt */\012EIF[ ]	/* EndIf */\012PUSHW[ ]	/* 1 value pushed */\0120 \012RCVT[ ]	/* ReadCVT */\012IF[ ]	/* If */\012PUSHW[ ]	/* 1 value pushed */\0120 \012MDAP[1]	/* MoveDirectAbsPt */\012ELSE[ ]	/* Else */\012PUSHW[ ]	/* 2 values pushed */\0120 7 \012MIAP[0]	/* MoveIndirectAbsPt */\012EIF[ ]	/* EndIf */\012PUSHW[ ]	/* 2 values pushed */\01222 1 \012MIRP[10100]	/* MoveIndirectRelPt */\012NPUSHW[ ]	/* 15 values pushed */\0127 22 23 22 39 22 55 22 71 22 87 22 103 22 7 \012DELTAP1[ ]	/* DeltaExceptionP1 */\012NPUSHW[ ]	/* 5 values pushed */\012118 22 134 22 2 \012DELTAP1[ ]	/* DeltaExceptionP1 */\012PUSHW[ ]	/* 3 values pushed */\01219 0 22 \012SRP1[ ]	/* SetRefPoint1 */\012SRP2[ ]	/* SetRefPoint2 */\012IP[ ]	/* InterpolatePts */\012PUSHW[ ]	/* 1 value pushed */\01215 \012SRP0[ ]	/* SetRefPoint0 */\012PUSHW[ ]	/* 2 values pushed */\01230 1 \012MIRP[10100]	/* MoveIndirectRelPt */\012NPUSHW[ ]	/* 5 values pushed */\012121 30 137 30 2 \012DELTAP1[ ]	/* DeltaExceptionP1 */\012NPUSHW[ ]	/* 15 values pushed */\0128 30 24 30 40 30 56 30 72 30 88 30 104 30 7 \012DELTAP1[ ]	/* DeltaExceptionP1 */\012PUSHW[ ]	/* 3 values pushed */\01239 15 30 \012SRP1[ ]	/* SetRefPoint1 */\012SRP2[ ]	/* SetRefPoint2 */\012IP[ ]	/* InterpolatePts */\012PUSHW[ ]	/* 3 values pushed */\01254 0 22 \012SRP1[ ]	/* SetRefPoint1 */\012SRP2[ ]	/* SetRefPoint2 */\012IP[ ]	/* InterpolatePts */\012IUP[0]	/* InterpolateUntPts */\012IUP[1]	/* InterpolateUntPts */";
};
width = 389;
}
);
note = q;
rightKerningGroup = a;
unicode = 0071;
},
{
glyphname = r;
lastChange = "2021-11-26 08:21:41 +0000";
layers = (
{
anchors = (
{
name = bottom;
position = "{87, 0}";
},
{
name = top;
position = "{221, 495}";
}
);
layerId = "DE28931B-8CFB-452E-AAB2-BC9BAE33C973";
paths = (
{
closed = 1;
nodes = (
"167 0 LINE",
"178 72 LINE SMOOTH",
"195 185 OFFCURVE",
"224 257 OFFCURVE",
"256 301 CURVE SMOOTH",
"288 345 OFFCURVE",
"322 360 OFFCURVE",
"350 360 CURVE",
"370 502 LINE",
"319.603 512.61 OFFCURVE",
"244.154 443.598 OFFCURVE",
"223 396 CURVE",
"237 495 LINE",
"82 495 LINE",
"12 0 LINE"
);
},
{
closed = 1;
nodes = (
"119 240 LINE",
"151 429 LINE",
"155 429 LINE",
"132 240 LINE",
"100 47 LINE",
"96 47 LINE"
);
},
{
closed = 1;
nodes = (
"228 364 LINE",
"238.667 381.333 OFFCURVE",
"273.333 404 OFFCURVE",
"308 404 CURVE",
"307 396 LINE",
"273.667 396 OFFCURVE",
"238.667 377 OFFCURVE",
"228 361 CURVE"
);
}
);
userData = {
assembly = "SVTCA[0]	/* SetFreedomAndProjectionVectorToAxis */\012PUSHW[ ]	/* 1 value pushed */\0120 \012RCVT[ ]	/* ReadCVT */\012IF[ ]	/* If */\012PUSHW[ ]	/* 1 value pushed */\01220 \012MDAP[1]	/* MoveDirectAbsPt */\012ELSE[ ]	/* Else */\012PUSHW[ ]	/* 2 values pushed */\01220 7 \012MIAP[0]	/* MoveIndirectAbsPt */\012EIF[ ]	/* EndIf */\012IUP[0]	/* InterpolateUntPts */\012IUP[1]	/* InterpolateUntPts */";
};
width = 325;
}
);
note = r;
rightKerningGroup = r;
unicode = 0072;
},
{
glyphname = s;
lastChange = "2021-11-26 08:21:41 +0000";
layers = (
{
anchors = (
{
name = bottom;
position = "{195, 0}";
},
{
name = top;
position = "{268, 495}";
}
);
layerId = "DE28931B-8CFB-452E-AAB2-BC9BAE33C973";
paths = (
{
closed = 1;
nodes = (
"317.99 -14 OFFCURVE",
"373.586 27.339 OFFCURVE",
"388 134 CURVE SMOOTH",
"402.006 227.374 OFFCURVE",
"367.952 264.605 OFFCURVE",
"313 284 CURVE SMOOTH",
"275.186 298.544 OFFCURVE",
"228 303 OFFCURVE",
"234 350 CURVE SMOOTH",
"240 397 LINE SMOOTH",
"242 412 OFFCURVE",
"246.333 423 OFFCURVE",
"261 423 CURVE SMOOTH",
"268.333 423 OFFCURVE",
"272.5 419.833 OFFCURVE",
"273.5 413.5 CURVE SMOOTH",
"274.5 407.167 OFFCURVE",
"274 397 OFFCURVE",
"272 384 CURVE SMOOTH",
"264 321 LINE",
"415 321 LINE",
"419 353 LINE SMOOTH",
"432 460 OFFCURVE",
"399.327 505 OFFCURVE",
"271 505 CURVE SMOOTH",
"144.785 505 OFFCURVE",
"89.026 463.988 OFFCURVE",
"75 363 CURVE SMOOTH",
"63.176 270.772 OFFCURVE",
"95.701 235.362 OFFCURVE",
"150 215 CURVE",
"191.111 195.654 OFFCURVE",
"229 192 OFFCURVE",
"222 141 CURVE SMOOTH",
"216 95 LINE SMOOTH",
"214 80 OFFCURVE",
"208.333 68 OFFCURVE",
"195 68 CURVE SMOOTH",
"187.667 68 OFFCURVE",
"183.5 71.5 OFFCURVE",
"182.5 78.5 CURVE SMOOTH",
"181.5 85.5 OFFCURVE",
"182 96 OFFCURVE",
"184 109 CURVE SMOOTH",
"193 178 LINE",
"36 178 LINE",
"32 144 LINE SMOOTH",
"19 33 OFFCURVE",
"53.922 -14 OFFCURVE",
"186 -14 CURVE SMOOTH"
);
},
{
closed = 1;
nodes = (
"182.333 29 OFFCURVE",
"161 29.667 OFFCURVE",
"153 31 CURVE SMOOTH",
"106.333 37.667 OFFCURVE",
"96.667 75 OFFCURVE",
"110 143 CURVE",
"113 143 LINE",
"103.667 79 OFFCURVE",
"111.333 42 OFFCURVE",
"154 34 CURVE",
"162 31.333 OFFCURVE",
"182.333 30 OFFCURVE",
"193 30 CURVE SMOOTH",
"205 30 OFFCURVE",
"223.667 32.333 OFFCURVE",
"233 35 CURVE",
"273 41.667 OFFCURVE",
"290 82 OFFCURVE",
"298 142 CURVE SMOOTH",
"306 195.333 OFFCURVE",
"296 221 OFFCURVE",
"252 241 CURVE SMOOTH",
"230 251 LINE",
"204 261 LINE SMOOTH",
"159 278 OFFCURVE",
"145.333 314 OFFCURVE",
"152 366 CURVE SMOOTH",
"160 427.333 OFFCURVE",
"183.333 454 OFFCURVE",
"230 462 CURVE SMOOTH",
"240.667 463.333 OFFCURVE",
"253.333 464 OFFCURVE",
"264 464 CURVE SMOOTH",
"274.667 464 OFFCURVE",
"284.333 463.333 OFFCURVE",
"291 462 CURVE SMOOTH",
"340.333 455.333 OFFCURVE",
"353.333 430 OFFCURVE",
"340 366 CURVE",
"338 366 LINE",
"346 426 OFFCURVE",
"333.667 453.333 OFFCURVE",
"291 460 CURVE",
"287 461.333 OFFCURVE",
"282.667 462 OFFCURVE",
"278 462 CURVE SMOOTH",
"263 462 LINE SMOOTH",
"252.333 462 OFFCURVE",
"239.333 461.667 OFFCURVE",
"230 459 CURVE SMOOTH",
"188.667 451 OFFCURVE",
"172 424.667 OFFCURVE",
"164 366 CURVE SMOOTH",
"157.333 316.667 OFFCURVE",
"163 286 OFFCURVE",
"206 265 CURVE SMOOTH",
"230 253 LINE",
"254 244 LINE SMOOTH",
"299 227 OFFCURVE",
"317 198 OFFCURVE",
"309 142 CURVE SMOOTH",
"299.667 78 OFFCURVE",
"278 41.333 OFFCURVE",
"234 32 CURVE SMOOTH",
"223.333 29.333 OFFCURVE",
"205 29 OFFCURVE",
"193 29 CURVE SMOOTH"
);
}
);
userData = {
assembly = "PUSHW[ ]	/* 1 value pushed */\012126 \012MDAP[1]	/* MoveDirectAbsPt */\012PUSHW[ ]	/* 1 value pushed */\01285 \012MDAP[1]	/* MoveDirectAbsPt */\012PUSHW[ ]	/* 1 value pushed */\01223 \012MDRP[10000]	/* MoveDirectRelPt */\012PUSHW[ ]	/* 1 value pushed */\01223 \012MDAP[1]	/* MoveDirectAbsPt */\012PUSHW[ ]	/* 1 value pushed */\012126 \012SRP0[ ]	/* SetRefPoint0 */\012PUSHW[ ]	/* 1 value pushed */\012107 \012MDRP[10000]	/* MoveDirectRelPt */\012PUSHW[ ]	/* 1 value pushed */\012107 \012MDAP[1]	/* MoveDirectAbsPt */\012PUSHW[ ]	/* 2 values pushed */\012109 6 \012MIRP[10100]	/* MoveIndirectRelPt */\012PUSHW[ ]	/* 3 values pushed */\01233 107 109 \012SRP1[ ]	/* SetRefPoint1 */\012SRP2[ ]	/* SetRefPoint2 */\012IP[ ]	/* InterpolatePts */\012PUSHW[ ]	/* 1 value pushed */\01285 \012SRP0[ ]	/* SetRefPoint0 */\012PUSHW[ ]	/* 1 value pushed */\01242 \012MDRP[10000]	/* MoveDirectRelPt */\012PUSHW[ ]	/* 1 value pushed */\01242 \012MDAP[1]	/* MoveDirectAbsPt */\012PUSHW[ ]	/* 1 value pushed */\01285 \012SRP0[ ]	/* SetRefPoint0 */\012PUSHW[ ]	/* 2 values pushed */\01296 6 \012MIRP[10100]	/* MoveIndirectRelPt */\012PUSHW[ ]	/* 1 value pushed */\012109 \012SRP0[ ]	/* SetRefPoint0 */\012PUSHW[ ]	/* 1 value pushed */\012101 \012MDRP[10000]	/* MoveDirectRelPt */\012PUSHW[ ]	/* 1 value pushed */\012101 \012MDAP[1]	/* MoveDirectAbsPt */\012PUSHW[ ]	/* 1 value pushed */\01296 \012SRP0[ ]	/* SetRefPoint0 */\012PUSHW[ ]	/* 1 value pushed */\012127 \012MDRP[11100]	/* MoveDirectRelPt */\012IUP[0]	/* InterpolateUntPts */\012IUP[1]	/* InterpolateUntPts */";
};
width = 398;
}
);
leftKerningGroup = s;
note = s;
rightKerningGroup = s;
unicode = 0073;
},
{
glyphname = germandbls;
lastChange = "2021-11-26 08:21:41 +0000";
layers = (
{
layerId = "DE28931B-8CFB-452E-AAB2-BC9BAE33C973";
paths = (
{
closed = 1;
nodes = (
"97.866 -160.165 OFFCURVE",
"208.709 -121.987 OFFCURVE",
"231 39 CURVE SMOOTH",
"296 498 LINE SMOOTH",
"301.333 538 OFFCURVE",
"312 558 OFFCURVE",
"348 558 CURVE SMOOTH",
"389.823 558 OFFCURVE",
"389.12 531.721 OFFCURVE",
"381 483 CURVE SMOOTH",
"375 435 LINE SMOOTH",
"368.333 396.333 OFFCURVE",
"362 373 OFFCURVE",
"338 373 CURVE SMOOTH",
"303 373 LINE",
"291 293 LINE",
"333 291 LINE SMOOTH",
"336.333 291 OFFCURVE",
"339.333 290 OFFCURVE",
"342 288 CURVE SMOOTH",
"347.333 284 OFFCURVE",
"349.667 276.333 OFFCURVE",
"349 265 CURVE SMOOTH",
"347.332 248.318 OFFCURVE",
"336.381 168.664 OFFCURVE",
"335 159 CURVE SMOOTH",
"331.479 134.351 OFFCURVE",
"325.651 80 OFFCURVE",
"300 80 CURVE SMOOTH",
"264 80 LINE",
"253 0 LINE",
"327 0 LINE SMOOTH",
"427 0 OFFCURVE",
"489.333 31.667 OFFCURVE",
"504 133 CURVE SMOOTH",
"516 216 LINE SMOOTH",
"528 298.667 OFFCURVE",
"484.333 337 OFFCURVE",
"423 337 CURVE",
"423 340 LINE",
"491 346.667 OFFCURVE",
"524.667 395 OFFCURVE",
"534 455 CURVE SMOOTH",
"543 523 LINE SMOOTH",
"552.333 589.667 OFFCURVE",
"485.333 632 OFFCURVE",
"376 632 CURVE SMOOTH",
"246.337 632 OFFCURVE",
"156.186 614.3 OFFCURVE",
"140 501 CURVE SMOOTH",
"136 476 LINE",
"93 476 LINE",
"81 389 LINE",
"124 389 LINE",
"67 -18 LINE SMOOTH",
"64.333 -38 OFFCURVE",
"39.667 -59 OFFCURVE",
"17 -59 CURVE SMOOTH",
"-18 -59 LINE",
"-29 -136 LINE"
);
},
{
closed = 1;
nodes = (
"180 305 LINE",
"219 547 LINE",
"223 547 LINE",
"190 305 LINE",
"140 -41 LINE",
"137 -41 LINE"
);
},
{
closed = 1;
nodes = (
"279 44 LINE",
"279 46 LINE",
"323 47 LINE SMOOTH",
"364.045 47 OFFCURVE",
"396.78 85.662 OFFCURVE",
"410 176 CURVE SMOOTH",
"410 176.667 OFFCURVE",
"410.333 179.667 OFFCURVE",
"411 185 CURVE SMOOTH",
"417 227 LINE SMOOTH",
"425.468 286.274 OFFCURVE",
"421.925 337 OFFCURVE",
"360 337 CURVE SMOOTH",
"340 337 LINE",
"340 339 LINE",
"360 339 LINE SMOOTH",
"408.565 339 OFFCURVE",
"432.144 407.541 OFFCURVE",
"442 479 CURVE SMOOTH",
"454.301 565.107 OFFCURVE",
"452.191 587.2 OFFCURVE",
"385 590 CURVE",
"386 591 LINE",
"454.242 591 OFFCURVE",
"462.306 570.062 OFFCURVE",
"450 479 CURVE SMOOTH",
"443.333 432.333 OFFCURVE",
"432 397.333 OFFCURVE",
"416 374 CURVE SMOOTH",
"400 350.667 OFFCURVE",
"384.667 339 OFFCURVE",
"370 339 CURVE SMOOTH",
"421.042 339 OFFCURVE",
"434.409 277.451 OFFCURVE",
"426 227 CURVE SMOOTH",
"423.333 207 OFFCURVE",
"421.5 193.667 OFFCURVE",
"420.5 187 CURVE SMOOTH",
"419 176 LINE SMOOTH",
"405.602 84.445 OFFCURVE",
"367.189 43 OFFCURVE",
"323 43 CURVE SMOOTH"
);
}
);
userData = {
assembly = "PUSHW[ ]	/* 4 values pushed */\01280 5 26 4 \012CALL[ ]	/* CallFunction */\012PUSHW[ ]	/* 1 value pushed */\01280 \012SRP0[ ]	/* SetRefPoint0 */\012PUSHW[ ]	/* 1 value pushed */\01283 \012MDRP[10000]	/* MoveDirectRelPt */\012PUSHW[ ]	/* 1 value pushed */\01283 \012MDAP[1]	/* MoveDirectAbsPt */\012PUSHW[ ]	/* 3 values pushed */\01217 80 83 \012SRP1[ ]	/* SetRefPoint1 */\012SRP2[ ]	/* SetRefPoint2 */\012IP[ ]	/* InterpolatePts */\012PUSHW[ ]	/* 3 values pushed */\01288 26 80 \012SRP1[ ]	/* SetRefPoint1 */\012SRP2[ ]	/* SetRefPoint2 */\012IP[ ]	/* InterpolatePts */\012PUSHW[ ]	/* 3 values pushed */\01297 26 80 \012SRP1[ ]	/* SetRefPoint1 */\012SRP2[ ]	/* SetRefPoint2 */\012IP[ ]	/* InterpolatePts */\012PUSHW[ ]	/* 3 values pushed */\012109 26 80 \012SRP1[ ]	/* SetRefPoint1 */\012SRP2[ ]	/* SetRefPoint2 */\012IP[ ]	/* InterpolatePts */\012PUSHW[ ]	/* 1 value pushed */\01280 \012SRP0[ ]	/* SetRefPoint0 */\012PUSHW[ ]	/* 1 value pushed */\012126 \012MDRP[11100]	/* MoveDirectRelPt */\012IUP[0]	/* InterpolateUntPts */\012IUP[1]	/* InterpolateUntPts */";
};
width = 494;
}
);
unicode = 00DF;
},
{
glyphname = longs;
lastChange = "2021-11-26 08:21:41 +0000";
layers = (
{
layerId = "DE28931B-8CFB-452E-AAB2-BC9BAE33C973";
paths = (
{
closed = 1;
nodes = (
"108.866 -160.165 OFFCURVE",
"219.709 -121.987 OFFCURVE",
"242 39 CURVE SMOOTH",
"305 485 LINE SMOOTH",
"307.667 505 OFFCURVE",
"315.333 529 OFFCURVE",
"338 529 CURVE SMOOTH",
"351.333 529 OFFCURVE",
"364.333 528.333 OFFCURVE",
"375 527 CURVE SMOOTH",
"381 526.333 OFFCURVE",
"387 526 OFFCURVE",
"393 526 CURVE",
"406 624 LINE",
"395.647 624 OFFCURVE",
"340.593 630 OFFCURVE",
"319 630 CURVE SMOOTH",
"237.364 630 OFFCURVE",
"167.059 617.413 OFFCURVE",
"152 512 CURVE SMOOTH",
"141 440 LINE",
"98 440 LINE",
"86 350 LINE",
"129 350 LINE",
"79 -3 LINE SMOOTH",
"72.333 -44.333 OFFCURVE",
"46.667 -59 OFFCURVE",
"28 -59 CURVE SMOOTH",
"-8 -59 LINE",
"-18 -136 LINE"
);
},
{
closed = 1;
nodes = (
"188 300 LINE",
"202 396 LINE",
"136 399 LINE",
"136 401 LINE",
"203 403 LINE",
"221 512 LINE SMOOTH",
"225 546.667 OFFCURVE",
"251.333 583 OFFCURVE",
"294 583 CURVE",
"293 582 LINE",
"258.333 579.333 OFFCURVE",
"232.667 555.667 OFFCURVE",
"226 509 CURVE SMOOTH",
"201 300 LINE",
"151 -25 LINE",
"147 -25 LINE"
);
}
);
userData = {
assembly = "SVTCA[0]	/* SetFreedomAndProjectionVectorToAxis */\012PUSHW[ ]	/* 4 values pushed */\0127 3 18 4 \012CALL[ ]	/* CallFunction */\012PUSHW[ ]	/* 4 values pushed */\0121 1 33 4 \012CALL[ ]	/* CallFunction */\012PUSHW[ ]	/* 1 value pushed */\01218 \012SRP0[ ]	/* SetRefPoint0 */\012PUSHW[ ]	/* 1 value pushed */\01213 \012MDRP[10000]	/* MoveDirectRelPt */\012PUSHW[ ]	/* 1 value pushed */\01213 \012MDAP[1]	/* MoveDirectAbsPt */\012PUSHW[ ]	/* 3 values pushed */\01245 18 7 \012SRP1[ ]	/* SetRefPoint1 */\012SRP2[ ]	/* SetRefPoint2 */\012IP[ ]	/* InterpolatePts */\012IUP[0]	/* InterpolateUntPts */\012IUP[1]	/* InterpolateUntPts */";
};
width = 324;
}
);
note = longs;
rightKerningGroup = a;
unicode = 017F;
},
{
glyphname = t;
lastChange = "2021-11-26 08:21:41 +0000";
layers = (
{
anchors = (
{
name = bottom;
position = "{170, 0}";
},
{
name = center;
position = "{167, 277}";
},
{
name = top;
position = "{195, 495}";
},
{
name = topright;
position = "{327, 554}";
}
);
layerId = "DE28931B-8CFB-452E-AAB2-BC9BAE33C973";
paths = (
{
closed = 1;
nodes = (
"221.667 -5 OFFCURVE",
"243.667 -2 OFFCURVE",
"261 2 CURVE SMOOTH",
"271 4 OFFCURVE",
"280.667 6.333 OFFCURVE",
"290 9 CURVE",
"303 101 LINE",
"285 99 LINE SMOOTH",
"280 98 OFFCURVE",
"274.5 98 OFFCURVE",
"269.5 98 CURVE SMOOTH",
"256 98 LINE SMOOTH",
"224 98 OFFCURVE",
"222 122 OFFCURVE",
"225 142 CURVE SMOOTH",
"262 405 LINE",
"346 405 LINE",
"359 495 LINE",
"275 495 LINE",
"287 585 LINE",
"166 585 LINE",
"133 495 LINE",
"67 472 LINE",
"57 405 LINE",
"106 405 LINE",
"65 115 LINE SMOOTH",
"50 12 OFFCURVE",
"120.669 -5 OFFCURVE",
"199 -5 CURVE SMOOTH"
);
},
{
closed = 1;
nodes = (
"147.333 47 OFFCURVE",
"133 83 OFFCURVE",
"137 118 CURVE SMOOTH",
"159 295 LINE",
"183 444 LINE",
"99 447 LINE",
"99 449 LINE",
"184 451 LINE",
"195 520 LINE",
"199 520 LINE",
"191 451 LINE",
"306 449 LINE",
"306 447 LINE",
"190 444 LINE",
"172 295 LINE",
"143 121 LINE SMOOTH",
"135 75 OFFCURVE",
"155.333 50.667 OFFCURVE",
"190 48 CURVE",
"190 47 LINE"
);
}
);
userData = {
assembly = "SVTCA[0]	/* SetFreedomAndProjectionVectorToAxis */\012PUSHW[ ]	/* 1 value pushed */\0120 \012RCVT[ ]	/* ReadCVT */\012IF[ ]	/* If */\012PUSHW[ ]	/* 1 value pushed */\01221 \012MDAP[1]	/* MoveDirectAbsPt */\012ELSE[ ]	/* Else */\012PUSHW[ ]	/* 2 values pushed */\01221 11 \012MIAP[0]	/* MoveIndirectAbsPt */\012EIF[ ]	/* EndIf */\012PUSHW[ ]	/* 1 value pushed */\0120 \012RCVT[ ]	/* ReadCVT */\012IF[ ]	/* If */\012PUSHW[ ]	/* 1 value pushed */\01224 \012MDAP[1]	/* MoveDirectAbsPt */\012ELSE[ ]	/* Else */\012PUSHW[ ]	/* 2 values pushed */\01224 11 \012MIAP[0]	/* MoveIndirectAbsPt */\012EIF[ ]	/* EndIf */\012PUSHW[ ]	/* 1 value pushed */\0120 \012RCVT[ ]	/* ReadCVT */\012IF[ ]	/* If */\012PUSHW[ ]	/* 1 value pushed */\01222 \012MDAP[1]	/* MoveDirectAbsPt */\012ELSE[ ]	/* Else */\012PUSHW[ ]	/* 2 values pushed */\01222 13 \012MIAP[0]	/* MoveIndirectAbsPt */\012EIF[ ]	/* EndIf */\012PUSHW[ ]	/* 1 value pushed */\0120 \012RCVT[ ]	/* ReadCVT */\012IF[ ]	/* If */\012PUSHW[ ]	/* 1 value pushed */\01239 \012MDAP[1]	/* MoveDirectAbsPt */\012ELSE[ ]	/* Else */\012PUSHW[ ]	/* 2 values pushed */\01239 7 \012MIAP[0]	/* MoveIndirectAbsPt */\012EIF[ ]	/* EndIf */\012PUSHW[ ]	/* 1 value pushed */\0120 \012RCVT[ ]	/* ReadCVT */\012IF[ ]	/* If */\012PUSHW[ ]	/* 1 value pushed */\01242 \012MDAP[1]	/* MoveDirectAbsPt */\012ELSE[ ]	/* Else */\012PUSHW[ ]	/* 2 values pushed */\01242 7 \012MIAP[0]	/* MoveIndirectAbsPt */\012EIF[ ]	/* EndIf */\012PUSHW[ ]	/* 1 value pushed */\01239 \012SRP0[ ]	/* SetRefPoint0 */\012PUSHW[ ]	/* 2 values pushed */\01231 3 \012MIRP[10100]	/* MoveIndirectRelPt */\012NPUSHW[ ]	/* 9 values pushed */\0127 31 23 31 39 31 55 31 4 \012DELTAP1[ ]	/* DeltaExceptionP1 */\012PUSHW[ ]	/* 3 values pushed */\0124 39 31 \012SRP1[ ]	/* SetRefPoint1 */\012SRP2[ ]	/* SetRefPoint2 */\012IP[ ]	/* InterpolatePts */\012PUSHW[ ]	/* 1 value pushed */\01224 \012SRP0[ ]	/* SetRefPoint0 */\012PUSHW[ ]	/* 2 values pushed */\01226 1 \012MIRP[10100]	/* MoveIndirectRelPt */\012PUSHW[ ]	/* 3 values pushed */\01211 24 26 \012SRP1[ ]	/* SetRefPoint1 */\012SRP2[ ]	/* SetRefPoint2 */\012IP[ ]	/* InterpolatePts */\012PUSHW[ ]	/* 1 value pushed */\01222 \012SRP0[ ]	/* SetRefPoint0 */\012PUSHW[ ]	/* 2 values pushed */\01227 4 \012MIRP[10100]	/* MoveIndirectRelPt */\012PUSHW[ ]	/* 3 values pushed */\01214 22 27 \012SRP1[ ]	/* SetRefPoint1 */\012SRP2[ ]	/* SetRefPoint2 */\012IP[ ]	/* InterpolatePts */\012PUSHW[ ]	/* 3 values pushed */\01217 24 26 \012SRP1[ ]	/* SetRefPoint1 */\012SRP2[ ]	/* SetRefPoint2 */\012IP[ ]	/* InterpolatePts */\012PUSHW[ ]	/* 1 value pushed */\01231 \012SRP0[ ]	/* SetRefPoint0 */\012PUSHW[ ]	/* 1 value pushed */\01236 \012MDRP[10000]	/* MoveDirectRelPt */\012PUSHW[ ]	/* 1 value pushed */\01236 \012MDAP[1]	/* MoveDirectAbsPt */\012PUSHW[ ]	/* 1 value pushed */\01226 \012SRP0[ ]	/* SetRefPoint0 */\012PUSHW[ ]	/* 1 value pushed */\01248 \012MDRP[10000]	/* MoveDirectRelPt */\012PUSHW[ ]	/* 1 value pushed */\01249 \012MDRP[10000]	/* MoveDirectRelPt */\012IUP[0]	/* InterpolateUntPts */\012IUP[1]	/* InterpolateUntPts */";
};
width = 319;
}
);
note = t;
rightKerningGroup = a;
unicode = 0074;
},
{
glyphname = u;
lastChange = "2021-11-26 08:21:41 +0000";
layers = (
{
anchors = (
{
name = bottom;
position = "{167, 0}";
},
{
name = ogonek;
position = "{347, 0}";
},
{
name = top;
position = "{256, 495}";
},
{
name = topright;
position = "{326, 495}";
}
);
layerId = "DE28931B-8CFB-452E-AAB2-BC9BAE33C973";
paths = (
{
closed = 1;
nodes = (
"158.101 -7 OFFCURVE",
"205.145 44.363 OFFCURVE",
"223 89 CURVE",
"222 0 LINE",
"356 0 LINE",
"426 495 LINE",
"270 495 LINE",
"217 122 LINE SMOOTH",
"216 115 OFFCURVE",
"207.667 104 OFFCURVE",
"197 104 CURVE SMOOTH",
"186.333 104 OFFCURVE",
"181 106 OFFCURVE",
"184 125 CURVE SMOOTH",
"236 495 LINE",
"81 495 LINE",
"22 87 LINE SMOOTH",
"14 29 OFFCURVE",
"32 -7 OFFCURVE",
"92 -7 CURVE SMOOTH"
);
},
{
closed = 1;
nodes = (
"111 47 OFFCURVE",
"99 66 OFFCURVE",
"103 97 CURVE SMOOTH",
"121 251 LINE",
"154 449 LINE",
"158 449 LINE",
"134 251 LINE",
"109 97 LINE",
"103.142 76.498 OFFCURVE",
"112.265 49 OFFCURVE",
"139 49 CURVE SMOOTH",
"153.667 49 OFFCURVE",
"171.667 54.667 OFFCURVE",
"185 64 CURVE",
"184 62 LINE",
"172 52.667 OFFCURVE",
"153.667 47 OFFCURVE",
"139 47 CURVE SMOOTH"
);
},
{
closed = 1;
nodes = (
"311 256 LINE",
"343 449 LINE",
"347 449 LINE",
"324 256 LINE",
"289 43 LINE",
"285 43 LINE"
);
}
);
userData = {
assembly = "SVTCA[0]	/* SetFreedomAndProjectionVectorToAxis */\012PUSHW[ ]	/* 1 value pushed */\0120 \012RCVT[ ]	/* ReadCVT */\012IF[ ]	/* If */\012PUSHW[ ]	/* 1 value pushed */\01226 \012MDAP[1]	/* MoveDirectAbsPt */\012ELSE[ ]	/* Else */\012PUSHW[ ]	/* 2 values pushed */\01226 11 \012MIAP[0]	/* MoveIndirectAbsPt */\012EIF[ ]	/* EndIf */\012PUSHW[ ]	/* 1 value pushed */\0120 \012RCVT[ ]	/* ReadCVT */\012IF[ ]	/* If */\012PUSHW[ ]	/* 1 value pushed */\01235 \012MDAP[1]	/* MoveDirectAbsPt */\012ELSE[ ]	/* Else */\012PUSHW[ ]	/* 2 values pushed */\01235 11 \012MIAP[0]	/* MoveIndirectAbsPt */\012EIF[ ]	/* EndIf */\012PUSHW[ ]	/* 1 value pushed */\0120 \012RCVT[ ]	/* ReadCVT */\012IF[ ]	/* If */\012PUSHW[ ]	/* 1 value pushed */\01237 \012MDAP[1]	/* MoveDirectAbsPt */\012ELSE[ ]	/* Else */\012PUSHW[ ]	/* 2 values pushed */\01237 7 \012MIAP[0]	/* MoveIndirectAbsPt */\012EIF[ ]	/* EndIf */\012PUSHW[ ]	/* 1 value pushed */\0120 \012RCVT[ ]	/* ReadCVT */\012IF[ ]	/* If */\012PUSHW[ ]	/* 1 value pushed */\01244 \012MDAP[1]	/* MoveDirectAbsPt */\012ELSE[ ]	/* Else */\012PUSHW[ ]	/* 2 values pushed */\01244 7 \012MIAP[0]	/* MoveIndirectAbsPt */\012EIF[ ]	/* EndIf */\012PUSHW[ ]	/* 2 values pushed */\01231 3 \012MIRP[10100]	/* MoveIndirectRelPt */\012NPUSHW[ ]	/* 9 values pushed */\0127 31 23 31 39 31 55 31 4 \012DELTAP1[ ]	/* DeltaExceptionP1 */\012PUSHW[ ]	/* 3 values pushed */\0120 44 31 \012SRP1[ ]	/* SetRefPoint1 */\012SRP2[ ]	/* SetRefPoint2 */\012IP[ ]	/* InterpolatePts */\012PUSHW[ ]	/* 3 values pushed */\01211 44 26 \012SRP1[ ]	/* SetRefPoint1 */\012SRP2[ ]	/* SetRefPoint2 */\012IP[ ]	/* InterpolatePts */\012PUSHW[ ]	/* 3 values pushed */\01222 44 26 \012SRP1[ ]	/* SetRefPoint1 */\012SRP2[ ]	/* SetRefPoint2 */\012IP[ ]	/* InterpolatePts */\012PUSHW[ ]	/* 3 values pushed */\01225 44 31 \012SRP1[ ]	/* SetRefPoint1 */\012SRP2[ ]	/* SetRefPoint2 */\012IP[ ]	/* InterpolatePts */\012PUSHW[ ]	/* 3 values pushed */\01239 44 31 \012SRP1[ ]	/* SetRefPoint1 */\012SRP2[ ]	/* SetRefPoint2 */\012IP[ ]	/* InterpolatePts */\012IUP[0]	/* InterpolateUntPts */\012IUP[1]	/* InterpolateUntPts */";
};
width = 387;
}
);
note = u;
rightKerningGroup = a;
unicode = 0075;
},
{
glyphname = v;
lastChange = "2021-11-26 08:21:41 +0000";
layers = (
{
layerId = "DE28931B-8CFB-452E-AAB2-BC9BAE33C973";
paths = (
{
closed = 1;
nodes = (
"228 0 LINE",
"266.157 17.611 OFFCURVE",
"345.305 144.53 OFFCURVE",
"373 223 CURVE SMOOTH",
"406.498 316.315 OFFCURVE",
"416.621 436.313 OFFCURVE",
"395 495 CURVE",
"258 495 LINE",
"278.125 440.375 OFFCURVE",
"275.056 320.79 OFFCURVE",
"251 239 CURVE SMOOTH",
"240.333 204.333 OFFCURVE",
"229.667 174.333 OFFCURVE",
"215 145 CURVE",
"215 495 LINE",
"66 495 LINE",
"82 0 LINE"
);
},
{
closed = 1;
nodes = (
"150 269 LINE",
"151 466 LINE",
"155 466 LINE",
"162 270 LINE",
"164 47 LINE",
"161 47 LINE"
);
},
{
closed = 1;
nodes = (
"254.095 99.727 OFFCURVE",
"312.744 233.696 OFFCURVE",
"316 263 CURVE",
"322.877 293.945 OFFCURVE",
"333.784 424.233 OFFCURVE",
"331 466 CURVE",
"335 466 LINE",
"340.941 424.415 OFFCURVE",
"332.575 295.453 OFFCURVE",
"327 262 CURVE SMOOTH",
"320.977 225.862 OFFCURVE",
"250.615 84 OFFCURVE",
"225 47 CURVE",
"222 47 LINE"
);
}
);
userData = {
assembly = "SVTCA[0]	/* SetFreedomAndProjectionVectorToAxis */\012PUSHW[ ]	/* 1 value pushed */\0120 \012RCVT[ ]	/* ReadCVT */\012IF[ ]	/* If */\012PUSHW[ ]	/* 1 value pushed */\0127 \012MDAP[1]	/* MoveDirectAbsPt */\012ELSE[ ]	/* Else */\012PUSHW[ ]	/* 2 values pushed */\0127 11 \012MIAP[0]	/* MoveIndirectAbsPt */\012EIF[ ]	/* EndIf */\012PUSHW[ ]	/* 1 value pushed */\0120 \012RCVT[ ]	/* ReadCVT */\012IF[ ]	/* If */\012PUSHW[ ]	/* 1 value pushed */\01217 \012MDAP[1]	/* MoveDirectAbsPt */\012ELSE[ ]	/* Else */\012PUSHW[ ]	/* 2 values pushed */\01217 11 \012MIAP[0]	/* MoveIndirectAbsPt */\012EIF[ ]	/* EndIf */\012PUSHW[ ]	/* 1 value pushed */\0120 \012RCVT[ ]	/* ReadCVT */\012IF[ ]	/* If */\012PUSHW[ ]	/* 1 value pushed */\0126 \012MDAP[1]	/* MoveDirectAbsPt */\012ELSE[ ]	/* Else */\012PUSHW[ ]	/* 2 values pushed */\0126 7 \012MIAP[0]	/* MoveIndirectAbsPt */\012EIF[ ]	/* EndIf */\012PUSHW[ ]	/* 3 values pushed */\0123 6 7 \012SRP1[ ]	/* SetRefPoint1 */\012SRP2[ ]	/* SetRefPoint2 */\012IP[ ]	/* InterpolatePts */\012PUSHW[ ]	/* 3 values pushed */\0129 6 7 \012SRP1[ ]	/* SetRefPoint1 */\012SRP2[ ]	/* SetRefPoint2 */\012IP[ ]	/* InterpolatePts */\012PUSHW[ ]	/* 3 values pushed */\01240 6 7 \012SRP1[ ]	/* SetRefPoint1 */\012SRP2[ ]	/* SetRefPoint2 */\012IP[ ]	/* InterpolatePts */\012IUP[0]	/* InterpolateUntPts */\012IUP[1]	/* InterpolateUntPts */";
};
width = 404;
}
);
note = v;
rightKerningGroup = a;
unicode = 0076;
},
{
glyphname = w;
lastChange = "2021-11-26 08:21:41 +0000";
layers = (
{
anchors = (
{
name = bottom;
position = "{284, 0}";
},
{
name = top;
position = "{362, 495}";
}
);
layerId = "DE28931B-8CFB-452E-AAB2-BC9BAE33C973";
paths = (
{
closed = 1;
nodes = (
"265 0 LINE",
"322 198 LINE",
"326 0 LINE",
"464 0 LINE",
"502.157 17.611 OFFCURVE",
"581.305 144.53 OFFCURVE",
"609 223 CURVE SMOOTH",
"642.498 316.315 OFFCURVE",
"652.621 436.313 OFFCURVE",
"631 495 CURVE",
"494 495 LINE",
"514.395 439.642 OFFCURVE",
"503 324 OFFCURVE",
"479 242 CURVE SMOOTH",
"464 191.5 LINE SMOOTH",
"459 175 OFFCURVE",
"453.333 159.667 OFFCURVE",
"446 145 CURVE",
"440 495 LINE",
"289 495 LINE",
"202 184 LINE",
"204 495 LINE",
"56 495 LINE",
"85 0 LINE"
);
},
{
closed = 1;
nodes = (
"140 269 LINE",
"141 466 LINE",
"145 466 LINE",
"152 270 LINE",
"154 47 LINE",
"151 47 LINE"
);
},
{
closed = 1;
nodes = (
"267 241 LINE",
"347 466 LINE",
"350 466 LINE",
"279 240 LINE",
"209 47 LINE",
"206 47 LINE"
);
},
{
closed = 1;
nodes = (
"368 240 LINE",
"362 466 LINE",
"365 466 LINE",
"380 241 LINE",
"388 47 LINE",
"385 47 LINE"
);
},
{
closed = 1;
nodes = (
"484.095 99.727 OFFCURVE",
"542.744 233.696 OFFCURVE",
"546 263 CURVE",
"552.877 293.945 OFFCURVE",
"563.784 424.233 OFFCURVE",
"561 466 CURVE",
"565 466 LINE",
"570.941 424.415 OFFCURVE",
"562.575 295.453 OFFCURVE",
"557 262 CURVE SMOOTH",
"550.977 225.862 OFFCURVE",
"480.615 84 OFFCURVE",
"455 47 CURVE",
"452 47 LINE"
);
}
);
userData = {
assembly = "SVTCA[0]	/* SetFreedomAndProjectionVectorToAxis */\012PUSHW[ ]	/* 1 value pushed */\0120 \012RCVT[ ]	/* ReadCVT */\012IF[ ]	/* If */\012PUSHW[ ]	/* 1 value pushed */\01222 \012MDAP[1]	/* MoveDirectAbsPt */\012ELSE[ ]	/* Else */\012PUSHW[ ]	/* 2 values pushed */\01222 11 \012MIAP[0]	/* MoveIndirectAbsPt */\012EIF[ ]	/* EndIf */\012PUSHW[ ]	/* 1 value pushed */\0120 \012RCVT[ ]	/* ReadCVT */\012IF[ ]	/* If */\012PUSHW[ ]	/* 1 value pushed */\01225 \012MDAP[1]	/* MoveDirectAbsPt */\012ELSE[ ]	/* Else */\012PUSHW[ ]	/* 2 values pushed */\01225 11 \012MIAP[0]	/* MoveIndirectAbsPt */\012EIF[ ]	/* EndIf */\012PUSHW[ ]	/* 1 value pushed */\0120 \012RCVT[ ]	/* ReadCVT */\012IF[ ]	/* If */\012PUSHW[ ]	/* 1 value pushed */\01235 \012MDAP[1]	/* MoveDirectAbsPt */\012ELSE[ ]	/* Else */\012PUSHW[ ]	/* 2 values pushed */\01235 11 \012MIAP[0]	/* MoveIndirectAbsPt */\012EIF[ ]	/* EndIf */\012PUSHW[ ]	/* 1 value pushed */\0120 \012RCVT[ ]	/* ReadCVT */\012IF[ ]	/* If */\012PUSHW[ ]	/* 1 value pushed */\01218 \012MDAP[1]	/* MoveDirectAbsPt */\012ELSE[ ]	/* Else */\012PUSHW[ ]	/* 2 values pushed */\01218 7 \012MIAP[0]	/* MoveIndirectAbsPt */\012EIF[ ]	/* EndIf */\012PUSHW[ ]	/* 1 value pushed */\0120 \012RCVT[ ]	/* ReadCVT */\012IF[ ]	/* If */\012PUSHW[ ]	/* 1 value pushed */\01220 \012MDAP[1]	/* MoveDirectAbsPt */\012ELSE[ ]	/* Else */\012PUSHW[ ]	/* 2 values pushed */\01220 7 \012MIAP[0]	/* MoveIndirectAbsPt */\012EIF[ ]	/* EndIf */\012PUSHW[ ]	/* 3 values pushed */\0123 18 22 \012SRP1[ ]	/* SetRefPoint1 */\012SRP2[ ]	/* SetRefPoint2 */\012IP[ ]	/* InterpolatePts */\012PUSHW[ ]	/* 3 values pushed */\0129 18 22 \012SRP1[ ]	/* SetRefPoint1 */\012SRP2[ ]	/* SetRefPoint2 */\012IP[ ]	/* InterpolatePts */\012PUSHW[ ]	/* 3 values pushed */\01215 18 22 \012SRP1[ ]	/* SetRefPoint1 */\012SRP2[ ]	/* SetRefPoint2 */\012IP[ ]	/* InterpolatePts */\012PUSHW[ ]	/* 3 values pushed */\01219 18 22 \012SRP1[ ]	/* SetRefPoint1 */\012SRP2[ ]	/* SetRefPoint2 */\012IP[ ]	/* InterpolatePts */\012PUSHW[ ]	/* 3 values pushed */\01224 18 22 \012SRP1[ ]	/* SetRefPoint1 */\012SRP2[ ]	/* SetRefPoint2 */\012IP[ ]	/* InterpolatePts */\012PUSHW[ ]	/* 3 values pushed */\01227 18 22 \012SRP1[ ]	/* SetRefPoint1 */\012SRP2[ ]	/* SetRefPoint2 */\012IP[ ]	/* InterpolatePts */\012PUSHW[ ]	/* 3 values pushed */\01258 18 22 \012SRP1[ ]	/* SetRefPoint1 */\012SRP2[ ]	/* SetRefPoint2 */\012IP[ ]	/* InterpolatePts */\012IUP[0]	/* InterpolateUntPts */\012IUP[1]	/* InterpolateUntPts */";
};
width = 637;
}
);
note = w;
rightKerningGroup = a;
unicode = 0077;
},
{
glyphname = x;
lastChange = "2021-11-26 08:21:41 +0000";
layers = (
{
layerId = "DE28931B-8CFB-452E-AAB2-BC9BAE33C973";
paths = (
{
closed = 1;
nodes = (
"149 0 LINE",
"172 65 LINE SMOOTH",
"184 99.667 OFFCURVE",
"197.667 137.333 OFFCURVE",
"207 152 CURVE",
"215.972 128.073 OFFCURVE",
"222 33.548 OFFCURVE",
"222 0 CURVE",
"370 0 LINE",
"367.482 52.874 OFFCURVE",
"341.672 202.444 OFFCURVE",
"322 259 CURVE",
"358.251 305.609 OFFCURVE",
"420.643 427.91 OFFCURVE",
"447 495 CURVE",
"304 495 LINE",
"297.333 473 OFFCURVE",
"290.333 452 OFFCURVE",
"283 432 CURVE SMOOTH",
"271 397.333 OFFCURVE",
"256.333 360.667 OFFCURVE",
"243 342 CURVE",
"237.667 360.667 OFFCURVE",
"236.333 399.667 OFFCURVE",
"235 433 CURVE SMOOTH",
"234.333 452.333 OFFCURVE",
"234.333 473 OFFCURVE",
"235 495 CURVE",
"87 495 LINE",
"87 447.791 OFFCURVE",
"103.536 302.601 OFFCURVE",
"124 254 CURVE",
"86.081 207.955 OFFCURVE",
"11.321 53.775 OFFCURVE",
"0 0 CURVE"
);
},
{
closed = 1;
nodes = (
"109.574 97.229 OFFCURVE",
"174.997 224.974 OFFCURVE",
"178 252 CURVE",
"183.775 277.986 OFFCURVE",
"167.266 417.004 OFFCURVE",
"164 466 CURVE",
"168 466 LINE",
"173.538 427.232 OFFCURVE",
"194.189 295.105 OFFCURVE",
"189 251 CURVE SMOOTH",
"182.794 213.761 OFFCURVE",
"108.062 84.645 OFFCURVE",
"82 47 CURVE",
"79 47 LINE"
);
},
{
closed = 1;
nodes = (
"272.462 85.768 OFFCURVE",
"251.811 217.895 OFFCURVE",
"257 262 CURVE SMOOTH",
"259.856 296.269 OFFCURVE",
"340.374 431.873 OFFCURVE",
"364 466 CURVE",
"367 466 LINE",
"336.426 415.771 OFFCURVE",
"271.003 288.026 OFFCURVE",
"268 261 CURVE",
"262.466 236.095 OFFCURVE",
"277.412 81.412 OFFCURVE",
"282 47 CURVE",
"278 47 LINE"
);
}
);
userData = {
assembly = "SVTCA[0]	/* SetFreedomAndProjectionVectorToAxis */\012PUSHW[ ]	/* 1 value pushed */\0120 \012RCVT[ ]	/* ReadCVT */\012IF[ ]	/* If */\012PUSHW[ ]	/* 1 value pushed */\01221 \012MDAP[1]	/* MoveDirectAbsPt */\012ELSE[ ]	/* Else */\012PUSHW[ ]	/* 2 values pushed */\01221 11 \012MIAP[0]	/* MoveIndirectAbsPt */\012EIF[ ]	/* EndIf */\012PUSHW[ ]	/* 1 value pushed */\0120 \012RCVT[ ]	/* ReadCVT */\012IF[ ]	/* If */\012PUSHW[ ]	/* 1 value pushed */\01232 \012MDAP[1]	/* MoveDirectAbsPt */\012ELSE[ ]	/* Else */\012PUSHW[ ]	/* 2 values pushed */\01232 11 \012MIAP[0]	/* MoveIndirectAbsPt */\012EIF[ ]	/* EndIf */\012PUSHW[ ]	/* 1 value pushed */\0120 \012RCVT[ ]	/* ReadCVT */\012IF[ ]	/* If */\012PUSHW[ ]	/* 1 value pushed */\0120 \012MDAP[1]	/* MoveDirectAbsPt */\012ELSE[ ]	/* Else */\012PUSHW[ ]	/* 2 values pushed */\0120 7 \012MIAP[0]	/* MoveIndirectAbsPt */\012EIF[ ]	/* EndIf */\012PUSHW[ ]	/* 1 value pushed */\0120 \012RCVT[ ]	/* ReadCVT */\012IF[ ]	/* If */\012PUSHW[ ]	/* 1 value pushed */\01210 \012MDAP[1]	/* MoveDirectAbsPt */\012ELSE[ ]	/* Else */\012PUSHW[ ]	/* 2 values pushed */\01210 7 \012MIAP[0]	/* MoveIndirectAbsPt */\012EIF[ ]	/* EndIf */\012PUSHW[ ]	/* 3 values pushed */\0125 0 21 \012SRP1[ ]	/* SetRefPoint1 */\012SRP2[ ]	/* SetRefPoint2 */\012IP[ ]	/* InterpolatePts */\012PUSHW[ ]	/* 3 values pushed */\01227 0 21 \012SRP1[ ]	/* SetRefPoint1 */\012SRP2[ ]	/* SetRefPoint2 */\012IP[ ]	/* InterpolatePts */\012PUSHW[ ]	/* 3 values pushed */\01255 0 21 \012SRP1[ ]	/* SetRefPoint1 */\012SRP2[ ]	/* SetRefPoint2 */\012IP[ ]	/* InterpolatePts */\012PUSHW[ ]	/* 3 values pushed */\01277 0 21 \012SRP1[ ]	/* SetRefPoint1 */\012SRP2[ ]	/* SetRefPoint2 */\012IP[ ]	/* InterpolatePts */\012IUP[0]	/* InterpolateUntPts */\012IUP[1]	/* InterpolateUntPts */";
};
width = 398;
}
);
note = x;
rightKerningGroup = a;
unicode = 0078;
},
{
glyphname = y;
lastChange = "2021-11-26 08:21:41 +0000";
layers = (
{
anchors = (
{
name = bottom;
position = "{349, 0}";
},
{
name = top;
position = "{250, 495}";
}
);
layerId = "DE28931B-8CFB-452E-AAB2-BC9BAE33C973";
paths = (
{
closed = 1;
nodes = (
"235.326 -116 OFFCURVE",
"303.106 1.427 OFFCURVE",
"354 130 CURVE SMOOTH",
"402.771 250.766 OFFCURVE",
"427.892 421.354 OFFCURVE",
"422 495 CURVE",
"281 495 LINE",
"291.716 414.633 OFFCURVE",
"257.425 200.069 OFFCURVE",
"217 130 CURVE",
"217 495 LINE",
"68 495 LINE",
"94 16 LINE",
"94 -24.162 OFFCURVE",
"72.504 -27 OFFCURVE",
"41 -27 CURVE SMOOTH",
"33 -27 OFFCURVE",
"26 -26 OFFCURVE",
"19 -24 CURVE SMOOTH",
"6 -21 LINE",
"-5 -101 LINE",
"17.667 -107.667 OFFCURVE",
"59 -116 OFFCURVE",
"103 -116 CURVE SMOOTH"
);
},
{
closed = 1;
nodes = (
"153 269 LINE",
"153 466 LINE",
"157 466 LINE",
"165 270 LINE",
"166 47 LINE",
"163 47 LINE"
);
},
{
closed = 1;
nodes = (
"116 -62 LINE",
"140 -66 OFFCURVE",
"166 -52.667 OFFCURVE",
"198 -10 CURVE SMOOTH",
"230 32.667 OFFCURVE",
"267 105.333 OFFCURVE",
"315 220 CURVE",
"317.83 232.736 OFFCURVE",
"331 322 OFFCURVE",
"337 363 CURVE SMOOTH",
"352 471 LINE",
"356 471 LINE",
"347 361 LINE SMOOTH",
"342 302 OFFCURVE",
"333.667 239.667 OFFCURVE",
"327 217 CURVE",
"276.333 98.333 OFFCURVE",
"237.167 24.5 OFFCURVE",
"204.5 -17.5 CURVE SMOOTH",
"171.833 -59.5 OFFCURVE",
"144 -69.667 OFFCURVE",
"116 -63 CURVE"
);
}
);
userData = {
assembly = "SVTCA[0]	/* SetFreedomAndProjectionVectorToAxis */\012PUSHW[ ]	/* 1 value pushed */\0120 \012RCVT[ ]	/* ReadCVT */\012IF[ ]	/* If */\012PUSHW[ ]	/* 1 value pushed */\01230 \012MDAP[1]	/* MoveDirectAbsPt */\012ELSE[ ]	/* Else */\012PUSHW[ ]	/* 2 values pushed */\01230 11 \012MIAP[0]	/* MoveIndirectAbsPt */\012EIF[ ]	/* EndIf */\012PUSHW[ ]	/* 1 value pushed */\0120 \012RCVT[ ]	/* ReadCVT */\012IF[ ]	/* If */\012PUSHW[ ]	/* 1 value pushed */\01237 \012MDAP[1]	/* MoveDirectAbsPt */\012ELSE[ ]	/* Else */\012PUSHW[ ]	/* 2 values pushed */\01237 11 \012MIAP[0]	/* MoveIndirectAbsPt */\012EIF[ ]	/* EndIf */\012IUP[0]	/* InterpolateUntPts */\012IUP[1]	/* InterpolateUntPts */";
};
width = 387;
}
);
note = y;
rightKerningGroup = a;
unicode = 0079;
},
